<svg width="20" height="20" viewBox="0 0 20 20" fill="none" xmlns="http://www.w3.org/2000/svg">
<g id="flag-jp-svgrepo-com" clip-path="url(#clip0_1838_759)">
<g id="Clip path group">
<mask id="mask0_1838_759" style="mask-type:luminance" maskUnits="userSpaceOnUse" x="0" y="2" width="20" height="16">
<g id="clip0_503_3081">
<path id="Vector" d="M18.5714 2.85714H1.42857C0.639593 2.85714 0 3.49673 0 4.28571V15.7143C0 16.5033 0.639593 17.1429 1.42857 17.1429H18.5714C19.3604 17.1429 20 16.5033 20 15.7143V4.28571C20 3.49673 19.3604 2.85714 18.5714 2.85714Z" fill="white"/>
</g>
</mask>
<g mask="url(#mask0_1838_759)">
<g id="Group">
<path id="Vector_2" d="M18.5713 3.03571H1.42847C0.738111 3.03571 0.178467 3.59536 0.178467 4.28571V15.7143C0.178467 16.4046 0.738111 16.9643 1.42847 16.9643H18.5713C19.2617 16.9643 19.8213 16.4046 19.8213 15.7143V4.28571C19.8213 3.59536 19.2617 3.03571 18.5713 3.03571Z" fill="white" stroke="#F5F5F5" stroke-width="14.2857"/>
<g id="Mask group">
<mask id="mask1_1838_759" style="mask-type:alpha" maskUnits="userSpaceOnUse" x="-7" y="-5" width="34" height="30">
<g id="Group_2">
<path id="Vector_3" d="M18.5713 3.03571H1.42847C0.738111 3.03571 0.178467 3.59536 0.178467 4.28571V15.7143C0.178467 16.4046 0.738111 16.9643 1.42847 16.9643H18.5713C19.2617 16.9643 19.8213 16.4046 19.8213 15.7143V4.28571C19.8213 3.59536 19.2617 3.03571 18.5713 3.03571Z" fill="white" stroke="white" stroke-width="14.2857"/>
</g>
</mask>
<g mask="url(#mask1_1838_759)">
<g id="Group_3">
<path id="Vector_4" fill-rule="evenodd" clip-rule="evenodd" d="M9.99983 14.2857C12.3668 14.2857 14.2855 12.3669 14.2855 10C14.2855 7.63307 12.3668 5.71429 9.99983 5.71429C7.6329 5.71429 5.71411 7.63307 5.71411 10C5.71411 12.3669 7.6329 14.2857 9.99983 14.2857Z" fill="url(#paint0_linear_1838_759)"/>
</g>
</g>
</g>
</g>
</g>
</g>
</g>
<defs>
<linearGradient id="paint0_linear_1838_759" x1="5.71411" y1="5.71429" x2="5.71411" y2="14.2857" gradientUnits="userSpaceOnUse">
<stop stop-color="#D81441"/>
<stop offset="1" stop-color="#BB0831"/>
</linearGradient>
<clipPath id="clip0_1838_759">
<rect width="20" height="20" fill="white"/>
</clipPath>
</defs>
</svg>
