<svg width="234" height="72" viewBox="0 0 234 72" fill="none" xmlns="http://www.w3.org/2000/svg">
<g opacity="0.6">
<path d="M181.388 32.6399L0 71.589L162.782 23.4659L181.388 32.6399Z" fill="#EBEBEB"/>
<path d="M156.084 44.3175C146.436 46.7712 136.729 48.9245 127.011 50.9876C122.152 52.0392 117.283 52.9907 112.414 53.9922L97.7877 56.8365L83.1311 59.5206C78.2323 60.3618 73.3434 61.2532 68.4445 62.0344C58.6368 63.6568 48.8191 65.1792 38.9414 66.401C48.5892 63.9473 58.2869 61.784 68.0146 59.7309C72.8735 58.6693 77.7424 57.7279 82.6113 56.7263L97.2379 53.892L111.894 51.218C116.793 50.3767 121.682 49.4853 126.581 48.7042C136.389 47.0817 146.206 45.5594 156.084 44.3375V44.3175Z" fill="#EBEBEB"/>
<path d="M87.3797 41.1928C81.3011 43.4763 75.1925 45.6296 69.044 47.6626C62.9054 49.7258 56.7268 51.6787 50.5483 53.6016C44.3597 55.4945 38.1511 57.3674 31.9226 59.12C25.694 60.9027 19.4355 62.5652 13.127 64.0976C19.1955 61.8141 25.3141 59.6608 31.4627 57.6177C37.6013 55.5546 43.7798 53.6016 49.9584 51.6787C56.1469 49.7859 62.3555 47.923 68.5841 46.1604C74.8126 44.3777 81.0712 42.7151 87.3797 41.1728V41.1928Z" fill="#EBEBEB"/>
</g>
<path d="M185.976 34.0714C185.626 33.6708 180.767 30.2656 180.397 30.0152L181.227 29.875C181.227 29.875 185.666 33.6607 185.976 34.0814V34.0714Z" fill="#FFC727"/>
<path opacity="0.5" d="M185.976 34.0714C185.626 33.6708 180.767 30.2656 180.397 30.0152L181.227 29.875C181.227 29.875 185.666 33.6607 185.976 34.0814V34.0714Z" fill="white"/>
<path d="M185.996 34.1014C185.996 34.1014 185.996 34.1114 185.996 34.1214C185.956 34.2116 185.626 34.2817 185.256 34.3317C185.256 34.3317 185.256 34.3317 185.246 34.3317C184.786 34.3918 184.286 34.4018 184.206 34.3518C184.106 34.2817 180.597 32.519 178.448 31.4474C178.418 31.4374 178.388 31.4173 178.368 31.4073H178.348C178.248 31.3572 178.138 31.3072 178.048 31.2571C177.678 31.0768 177.378 30.9266 177.168 30.8164C176.948 30.7062 176.828 30.6461 176.828 30.6461L180.437 30.0252C180.647 30.1654 182.287 31.3172 183.737 32.3587C183.787 32.3888 183.837 32.4289 183.886 32.4689C184.026 32.5691 184.156 32.6592 184.286 32.7594C185.166 33.4003 185.886 33.9412 186.016 34.0914C186.016 34.0914 186.016 34.1014 186.026 34.1114C186.026 34.1114 186.026 34.1114 186.026 34.1214L185.996 34.1014Z" fill="#FFC727"/>
<g opacity="0.1">
<path d="M185.996 34.1013C185.996 34.1013 185.996 34.1113 185.996 34.1213C185.956 34.2115 185.626 34.2816 185.257 34.3317C185.257 34.3317 185.257 34.3317 185.247 34.3317C184.787 34.3918 184.287 34.4018 184.207 34.3517C184.097 34.2816 180.498 32.4789 178.368 31.4072C178.718 31.5775 183.337 33.8009 184.267 32.7392C185.147 33.3802 185.866 33.921 185.996 34.0713C185.996 34.0713 185.996 34.0813 186.006 34.0913C186.006 34.0913 186.006 34.0913 186.006 34.1013H185.996Z" fill="black"/>
</g>
<path d="M233.535 38.0684C233.535 38.5591 230.876 38.7093 230.516 38.6092C230.116 38.499 201.173 27.0817 201.173 27.0817L211.82 22.8553C211.9 22.9154 212 22.9855 212.13 23.0656C212.17 23.0957 212.22 23.1257 212.27 23.1557C214.23 24.5178 220.098 28.594 225.217 32.1694C225.317 32.2395 225.417 32.3096 225.517 32.3797C225.657 32.4699 225.787 32.57 225.917 32.6602C229.466 35.1439 232.546 37.3172 233.535 38.0584V38.0684Z" fill="#FFC727"/>
<path d="M233.535 38.0684C230.946 36.1254 214.03 24.3876 211.82 22.8553L213.17 22.3145C213.17 22.3145 232.865 37.3172 233.455 37.9181C233.505 37.9682 233.525 38.0183 233.525 38.0583L233.535 38.0684Z" fill="#FFC727"/>
<path opacity="0.5" d="M233.535 38.0684C230.946 36.1254 214.03 24.3876 211.82 22.8553L213.17 22.3145C213.17 22.3145 232.865 37.3172 233.455 37.9181C233.505 37.9682 233.525 38.0183 233.525 38.0583L233.535 38.0684Z" fill="white"/>
<g opacity="0.5">
<path opacity="0.1" d="M233.535 38.0684C233.535 38.5591 230.876 38.7093 230.516 38.6092C230.116 38.499 201.173 27.0817 201.173 27.0817L211.82 22.8553C211.82 22.8553 209.191 25.8699 215.44 30.5169C219.699 33.6817 224.237 34.3327 225.917 32.6702C229.466 35.1539 232.546 37.3272 233.535 38.0684Z" fill="black"/>
</g>
<path d="M209.391 30.8273C208.571 31.228 207.671 31.5384 207.611 30.7172C207.581 30.3767 207.851 30.0161 209.171 29.3751C209.481 29.2249 210.241 28.8944 210.461 29.5855C210.671 30.2465 209.701 30.6871 209.391 30.8374V30.8273Z" fill="#FFC727"/>
<path opacity="0.1" d="M209.391 30.8273C208.571 31.228 207.671 31.5384 207.611 30.7172C207.581 30.3767 207.851 30.0161 209.171 29.3751C209.481 29.2249 210.241 28.8944 210.461 29.5855C210.671 30.2465 209.701 30.6871 209.391 30.8374V30.8273Z" fill="black"/>
<path d="M216.109 33.5713C215.289 33.9719 214.389 34.2824 214.329 33.4611C214.299 33.1206 214.569 32.7601 215.889 32.1191C216.199 31.9689 216.959 31.6384 217.179 32.3294C217.389 32.9904 216.419 33.4311 216.109 33.5813V33.5713Z" fill="#FFC727"/>
<path opacity="0.1" d="M216.109 33.5713C215.289 33.9719 214.389 34.2824 214.329 33.4611C214.299 33.1206 214.569 32.7601 215.889 32.1191C216.199 31.9689 216.959 31.6384 217.179 32.3294C217.389 32.9904 216.419 33.4311 216.109 33.5813V33.5713Z" fill="black"/>
<path d="M222.828 36.3262C222.008 36.7268 221.108 37.0373 221.048 36.216C221.018 35.8755 221.288 35.515 222.608 34.874C222.918 34.7238 223.677 34.3933 223.897 35.0843C224.107 35.7453 223.138 36.186 222.828 36.3362V36.3262Z" fill="#FFC727"/>
<path opacity="0.1" d="M222.828 36.3262C222.008 36.7268 221.108 37.0373 221.048 36.216C221.018 35.8755 221.288 35.515 222.608 34.874C222.918 34.7238 223.677 34.3933 223.897 35.0843C224.107 35.7453 223.138 36.186 222.828 36.3362V36.3262Z" fill="black"/>
<path d="M220.628 29.0948C219.818 30.537 217.979 31.0578 216.819 31.5185C213.729 32.7504 211.49 33.4515 210.39 30.6372C210.25 30.2766 210.17 29.9361 210.14 29.6156C209.96 27.4924 212.15 26.4408 213.26 25.8499C214.599 25.1388 215.549 24.6781 216.259 24.3877C217.409 23.897 217.929 23.8369 218.458 23.8168C219.078 23.7968 220.488 23.957 220.958 26.541C221.148 27.6226 220.988 28.4439 220.628 29.0848V29.0948Z" fill="#FFC727"/>
<path d="M220.668 27.0819C220.668 28.6643 219.678 29.9362 218.468 29.9362C217.258 29.9362 216.269 28.6543 216.269 27.0819C216.269 25.5095 217.258 24.2275 218.468 24.2275C219.678 24.2275 220.668 25.5095 220.668 27.0819Z" fill="#263238"/>
<path d="M220.408 27.0814C220.408 28.4736 219.538 29.6053 218.468 29.6053C217.398 29.6053 216.519 28.4736 216.519 27.0814C216.519 25.6893 217.388 24.5576 218.468 24.5576C219.548 24.5576 220.408 25.6893 220.408 27.0814Z" fill="#455A64"/>
<path d="M174.549 26.3197L174.039 26.51L172.889 26.9306C171.859 26.4799 170.45 25.869 168.92 25.218C165.071 23.5655 160.522 21.6225 159.642 21.3221C159.672 21.3221 159.712 21.3421 159.752 21.3521C159.782 21.3521 159.812 21.3722 159.852 21.3822C159.892 21.3922 159.942 21.4122 159.982 21.4222C160.002 21.4222 160.032 21.4423 160.062 21.4423C160.152 21.4723 160.252 21.5024 160.362 21.5424C160.462 21.5725 160.562 21.6125 160.672 21.6426C160.932 21.7227 161.222 21.8228 161.542 21.933C161.642 21.9631 161.742 22.0031 161.842 22.0332C161.932 22.0632 162.022 22.0933 162.122 22.1233C162.172 22.1433 162.222 22.1533 162.272 22.1734C162.422 22.2235 162.582 22.2735 162.742 22.3336C162.842 22.3737 162.952 22.4037 163.062 22.4438C164.291 22.8544 165.721 23.3351 167.151 23.8159L167.54 23.9461C168.05 24.1163 168.56 24.2966 169.06 24.4568C170 24.7773 170.9 25.0778 171.69 25.3482C171.819 25.3883 171.939 25.4383 172.059 25.4784C172.479 25.6186 172.869 25.7488 173.199 25.869C173.299 25.909 173.399 25.9391 173.489 25.9691C173.539 25.9892 173.579 25.9992 173.629 26.0192C173.649 26.0192 173.679 26.0392 173.699 26.0392C174.229 26.2195 174.539 26.3297 174.539 26.3297L174.549 26.3197Z" fill="#FFC727"/>
<path opacity="0.5" d="M174.549 26.3197L174.039 26.51L172.889 26.9306C171.859 26.4799 170.45 25.869 168.92 25.218C165.071 23.5655 160.522 21.6225 159.642 21.3221C159.672 21.3221 159.712 21.3421 159.752 21.3521C159.782 21.3521 159.812 21.3722 159.852 21.3822C159.892 21.3922 159.942 21.4122 159.982 21.4222C160.002 21.4222 160.032 21.4423 160.062 21.4423C160.152 21.4723 160.252 21.5024 160.362 21.5424C160.462 21.5725 160.562 21.6125 160.672 21.6426C160.932 21.7227 161.222 21.8228 161.542 21.933C161.642 21.9631 161.742 22.0031 161.842 22.0332C161.932 22.0632 162.022 22.0933 162.122 22.1233C162.172 22.1433 162.222 22.1533 162.272 22.1734C162.422 22.2235 162.582 22.2735 162.742 22.3336C162.842 22.3737 162.952 22.4037 163.062 22.4438C164.291 22.8544 165.721 23.3351 167.151 23.8159L167.54 23.9461C168.05 24.1163 168.56 24.2966 169.06 24.4568C170 24.7773 170.9 25.0778 171.69 25.3482C171.819 25.3883 171.939 25.4383 172.059 25.4784C172.479 25.6186 172.869 25.7488 173.199 25.869C173.299 25.909 173.399 25.9391 173.489 25.9691C173.539 25.9892 173.579 25.9992 173.629 26.0192C173.649 26.0192 173.679 26.0392 173.699 26.0392C174.229 26.2195 174.539 26.3297 174.539 26.3297L174.549 26.3197Z" fill="white"/>
<path d="M172.9 26.9312L169.82 28.0529C169.82 28.0529 162.952 24.8581 158.853 22.855C158.823 22.845 158.803 22.835 158.803 22.835C158.783 22.835 158.763 22.815 158.753 22.8049C158.323 22.5946 157.923 22.4043 157.573 22.2241C156.513 21.6933 155.843 21.3327 155.863 21.2826C155.973 21.0523 158.523 21.0022 159.543 21.2826C159.543 21.2826 159.563 21.2826 159.573 21.2826C159.593 21.2826 159.613 21.2927 159.643 21.3027C160.492 21.5931 164.771 23.4159 168.531 25.0283C168.561 25.0383 168.591 25.0484 168.621 25.0684C168.72 25.1185 168.82 25.1585 168.92 25.1986C170.45 25.8596 171.86 26.4705 172.89 26.9112L172.9 26.9312Z" fill="#FFC727"/>
<g opacity="0.1">
<path d="M172.899 26.9315L169.82 28.0532C169.82 28.0532 162.951 24.8583 158.852 22.8553C159.532 23.1457 166.481 26.2104 168.2 25.7897C168.6 25.6896 168.84 25.4592 168.93 25.2189C170.46 25.8799 171.869 26.4908 172.899 26.9315Z" fill="black"/>
</g>
<path d="M180.808 22.5342L173.35 26.1296C173.35 26.1296 173.43 19.7199 173.48 15.1129C173.48 14.9527 173.48 14.7924 173.48 14.6422C173.48 14.512 173.48 14.3918 173.48 14.2717C173.5 12.6892 173.52 11.4173 173.53 10.8465C173.56 8.99364 173.76 8.61306 174.249 8.91352C174.739 9.21398 176.919 11.1169 177.579 11.9581C178.118 12.6492 179.308 16.8656 180.078 19.75C180.078 19.78 180.088 19.8 180.098 19.8201C180.148 19.9903 180.188 20.1506 180.228 20.3108C180.568 21.6128 180.808 22.5342 180.808 22.5342Z" fill="#FFC727"/>
<g opacity="0.1">
<path d="M180.808 22.5345L173.35 26.13C173.35 26.13 173.43 19.7203 173.48 15.1133C174.579 17.567 176.749 20.9221 180.228 20.3212C180.568 21.6232 180.808 22.5446 180.808 22.5446V22.5345Z" fill="black"/>
</g>
<path d="M168.13 30.056C167.36 28.1331 170.62 26.3804 174.329 24.7179C178.028 23.0554 214.529 6.93091 219.818 5.48872C225.107 4.04653 231.266 6.01952 232.315 9.04411C233.875 13.591 227.296 17.3868 203.652 27.2117C200.553 28.4936 186.696 31.8287 178.908 31.8587C170.58 31.8888 168.52 30.9974 168.14 30.056H168.13Z" fill="#FFC727"/>
<path opacity="0.5" d="M168.13 30.056C167.36 28.1331 170.62 26.3804 174.329 24.7179C178.028 23.0554 214.529 6.93091 219.818 5.48872C225.107 4.04653 231.266 6.01952 232.315 9.04411C233.875 13.591 227.296 17.3868 203.652 27.2117C200.553 28.4936 186.696 31.8287 178.908 31.8587C170.58 31.8888 168.52 30.9974 168.14 30.056H168.13Z" fill="white"/>
<path opacity="0.1" d="M203.652 27.211C200.552 28.503 186.696 31.828 178.897 31.8581C170.569 31.8881 168.51 30.9967 168.13 30.0553C167.73 29.0538 168.43 28.0923 169.72 27.1709C169.72 27.3612 169.74 27.5515 169.82 27.7418C170.159 28.6031 172.029 29.4043 179.587 29.3843C186.656 29.3643 196.823 23.6256 199.643 22.4538C221.098 13.5403 229.476 12.7991 228.056 8.6829C227.436 6.89018 224.837 5.50808 221.767 5.1275C226.526 4.55664 231.395 6.39943 232.305 9.06347C233.865 13.6104 227.286 17.4161 203.642 27.231L203.652 27.211Z" fill="black"/>
<path d="M179.697 23.7063L180.537 23.3457V24.5776L179.697 24.9381V23.7063Z" fill="#455A64"/>
<path d="M181.227 23.0459L182.126 22.6553V23.8871L181.227 24.2777V23.0459Z" fill="#455A64"/>
<path d="M182.817 22.3546L183.716 21.964V23.2059L182.817 23.5864V22.3546Z" fill="#455A64"/>
<path d="M184.406 21.6635L185.296 21.283V22.5148L184.406 22.9054V21.6635Z" fill="#455A64"/>
<path d="M185.996 20.9824L186.886 20.5918V21.8237L185.996 22.2143V20.9824Z" fill="#455A64"/>
<path d="M187.575 20.292L188.475 19.9014V21.1433L187.575 21.5238V20.292Z" fill="#455A64"/>
<path d="M189.165 19.6004L190.065 19.2098V20.4517L189.165 20.8423V19.6004Z" fill="#455A64"/>
<path d="M190.755 18.9189L191.645 18.5283V19.7602L190.755 20.1508V18.9189Z" fill="#455A64"/>
<path d="M192.345 18.2285L193.235 17.8379V19.0698L192.345 19.4604V18.2285Z" fill="#455A64"/>
<path d="M193.924 17.5373L194.824 17.1467V18.3886L193.924 18.7792V17.5373Z" fill="#455A64"/>
<path d="M195.514 16.8463L196.413 16.4657V17.6976L195.514 18.0882V16.8463Z" fill="#455A64"/>
<path d="M197.104 16.165L197.993 15.7744V17.0063L197.104 17.3969V16.165Z" fill="#455A64"/>
<path d="M198.683 15.4746L199.582 15.084V16.3259L198.683 16.7064V15.4746Z" fill="#455A64"/>
<path d="M200.272 14.7831L201.172 14.4025V15.6344L200.272 16.025V14.7831Z" fill="#455A64"/>
<path d="M201.862 14.1025L202.752 13.7119V14.9438L201.862 15.3344V14.1025Z" fill="#455A64"/>
<path d="M203.452 13.4111L204.342 13.0205V14.2524L203.452 14.643V13.4111Z" fill="#455A64"/>
<path d="M205.031 12.7197L205.931 12.3291V13.571L205.031 13.9616V12.7197Z" fill="#455A64"/>
<path d="M206.621 12.029L207.521 11.6484V12.8802L206.621 13.2708V12.029Z" fill="#455A64"/>
<path d="M208.211 11.3476L209.101 10.957V12.1889L208.211 12.5795V11.3476Z" fill="#455A64"/>
<path d="M209.8 10.6562L210.69 10.2656V11.5075L209.8 11.8881V10.6562Z" fill="#455A64"/>
<path d="M211.38 9.96554L212.28 9.58496V10.8168L211.38 11.2074V9.96554Z" fill="#455A64"/>
<path d="M213.87 8.89453V10.1264L212.97 10.517V9.28512L213.87 8.89453Z" fill="#455A64"/>
<path d="M215.449 8.20312V9.44501L214.56 9.82559V8.59372L215.449 8.20312Z" fill="#455A64"/>
<path d="M217.038 7.51172V8.7536L216.139 9.1442V7.90231L217.038 7.51172Z" fill="#455A64"/>
<path d="M218.628 6.83105V8.06292L217.728 8.45352V7.22165L218.628 6.83105Z" fill="#455A64"/>
<path d="M222.777 6.32025C223.267 5.92965 223.847 5.69931 224.437 5.53906V6.36031C223.897 6.34028 223.357 6.33026 222.777 6.31023V6.32025Z" fill="#455A64"/>
<path d="M226.386 5.34833V6.48005C225.967 6.43999 225.557 6.41996 225.127 6.39993V5.40842C225.537 5.34833 225.967 5.3283 226.386 5.34833Z" fill="#455A64"/>
<path d="M230.375 6.95096C230.026 6.95096 229.706 6.88085 229.376 6.84079C229.046 6.81075 228.746 6.74064 228.426 6.72061C227.966 6.6505 227.516 6.60043 227.076 6.56037V5.42865C227.626 5.50877 228.156 5.64898 228.666 5.8593C228.986 5.97949 229.286 6.14974 229.576 6.32C229.726 6.40012 229.856 6.51029 229.996 6.62046C230.126 6.73062 230.265 6.83078 230.385 6.95096H230.375Z" fill="#455A64"/>
<path d="M201.863 17.0162L191.345 22.0838C191.345 22.0838 174.629 13.1102 162.632 6.54027C162.622 6.54027 162.612 6.53025 162.602 6.53025C156.193 3.02493 151.315 0.300799 151.385 0.200647C151.584 -0.069763 154.804 -0.0397175 156.083 0.130541C156.233 0.150571 156.363 0.170602 156.443 0.200647C156.983 0.350875 175.899 7.37153 189.146 12.289C196.344 14.963 201.863 17.0162 201.863 17.0162Z" fill="#FFC727"/>
<g opacity="0.1">
<path d="M201.863 17.0162L191.345 22.0839C191.345 22.0839 174.629 13.1103 162.632 6.54028C163.572 7.011 185.077 17.8775 187.886 16.245C188.946 15.6341 189.226 14.0417 189.156 12.289C196.354 14.9631 201.873 17.0162 201.873 17.0162H201.863Z" fill="black"/>
</g>
<path d="M203.392 16.3249L200.273 17.8272C192.285 14.4721 159.042 1.31215 156.263 0.200467C156.233 0.190452 156.203 0.180437 156.173 0.170421C156.143 0.170421 156.123 0.150391 156.103 0.150391C156.093 0.150391 156.083 0.150391 156.083 0.150391C156.233 0.170421 156.363 0.190452 156.443 0.220497C157.273 0.450847 203.392 16.3349 203.392 16.3349V16.3249Z" fill="#FFC727"/>
<path opacity="0.5" d="M203.392 16.3249L200.273 17.8272C192.285 14.4721 159.042 1.31215 156.263 0.200467C156.233 0.190452 156.203 0.180437 156.173 0.170421C156.143 0.170421 156.123 0.150391 156.103 0.150391C156.093 0.150391 156.083 0.150391 156.083 0.150391C156.233 0.170421 156.363 0.190452 156.443 0.220497C157.273 0.450847 203.392 16.3349 203.392 16.3349V16.3249Z" fill="white"/>
<path d="M180.868 16.5652C179.838 17.0659 178.719 17.4565 178.639 16.425C178.609 16.0043 178.938 15.5436 180.588 14.7524C180.978 14.5621 181.928 14.1515 182.198 15.0128C182.468 15.8441 181.248 16.3849 180.858 16.5752L180.868 16.5652Z" fill="#FFC727"/>
<path opacity="0.1" d="M180.868 16.5652C179.838 17.0659 178.719 17.4565 178.639 16.425C178.609 16.0043 178.938 15.5436 180.588 14.7524C180.978 14.5621 181.928 14.1515 182.198 15.0128C182.468 15.8441 181.248 16.3849 180.858 16.5752L180.868 16.5652Z" fill="black"/>
<path d="M171.97 12.0583C170.94 12.5591 169.82 12.9497 169.74 11.9181C169.71 11.4975 170.04 11.0368 171.69 10.2456C172.08 10.0553 173.029 9.64468 173.299 10.506C173.569 11.3372 172.349 11.8781 171.96 12.0684L171.97 12.0583Z" fill="#FFC727"/>
<path opacity="0.1" d="M171.97 12.0583C170.94 12.5591 169.82 12.9497 169.74 11.9181C169.71 11.4975 170.04 11.0368 171.69 10.2456C172.08 10.0553 173.029 9.64468 173.299 10.506C173.569 11.3372 172.349 11.8781 171.96 12.0684L171.97 12.0583Z" fill="black"/>
<path d="M163.041 7.50129C162.082 7.972 161.042 8.33255 160.962 7.37109C160.932 6.9805 161.232 6.54985 162.782 5.80872C163.141 5.63846 164.021 5.24787 164.281 6.04909C164.531 6.82026 163.401 7.33103 163.031 7.50129H163.041Z" fill="#FFC727"/>
<path opacity="0.1" d="M163.041 7.50129C162.082 7.972 161.042 8.33255 160.962 7.37109C160.932 6.9805 161.232 6.54985 162.782 5.80872C163.141 5.63846 164.021 5.24787 164.281 6.04909C164.531 6.82026 163.401 7.33103 163.031 7.50129H163.041Z" fill="black"/>
<path d="M194.154 15.5441C193.344 16.9863 191.505 17.507 190.345 17.9677C187.256 19.1996 185.016 19.9007 183.917 17.0864C183.777 16.7259 183.697 16.3853 183.667 16.0649C183.487 13.9416 185.676 12.89 186.786 12.2991C188.126 11.5881 189.075 11.1274 189.785 10.8369C190.935 10.3462 191.455 10.2861 191.985 10.2661C192.605 10.246 194.014 10.4063 194.484 12.9902C194.674 14.0718 194.514 14.8931 194.154 15.534V15.5441Z" fill="#FFC727"/>
<path d="M191.985 16.3854C193.2 16.3854 194.184 15.1074 194.184 13.531C194.184 11.9546 193.2 10.6767 191.985 10.6767C190.77 10.6767 189.785 11.9546 189.785 13.531C189.785 15.1074 190.77 16.3854 191.985 16.3854Z" fill="#263238"/>
<path d="M193.934 13.5306C193.934 14.9227 193.064 16.0544 191.995 16.0544C190.925 16.0544 190.045 14.9227 190.045 13.5306C190.045 12.1385 190.915 11.0068 191.995 11.0068C193.074 11.0068 193.934 12.1385 193.934 13.5306Z" fill="#455A64"/>
<path d="M160.682 21.6527C160.572 21.6127 160.472 21.5827 160.372 21.5527C160.472 21.5827 160.572 21.6227 160.682 21.6527Z" fill="#FFC727"/>
</svg>
