<svg width="20" height="20" viewBox="0 0 20 20" fill="none" xmlns="http://www.w3.org/2000/svg">
<path d="M18.9906 5.49952C18.7745 4.69629 18.1412 4.06315 17.3381 3.84686C15.8708 3.44531 10.0018 3.44531 10.0018 3.44531C10.0018 3.44531 4.13284 3.44531 2.66557 3.83155C1.87793 4.0477 1.2292 4.69643 1.01305 5.49952C0.626953 6.96664 0.626953 10.0093 0.626953 10.0093C0.626953 10.0093 0.626953 13.0673 1.01305 14.5191C1.22934 15.3222 1.86248 15.9555 2.66571 16.1718C4.14829 16.5733 10.0019 16.5733 10.0019 16.5733C10.0019 16.5733 15.8708 16.5733 17.3381 16.1871C18.1413 15.971 18.7745 15.3377 18.9908 14.5346C19.3769 13.0673 19.3769 10.0248 19.3769 10.0248C19.3769 10.0248 19.3923 6.96664 18.9906 5.49952Z" fill="#9E5FC4"/>
<path d="M8.13477 12.82L13.0152 10.0091L8.13477 7.19812V12.82Z" fill="white"/>
</svg>
