<svg width="20" height="20" viewBox="0 0 20 20" fill="none" xmlns="http://www.w3.org/2000/svg">
<g clip-path="url(#clip0_1838_728)">
<mask id="mask0_1838_728" style="mask-type:luminance" maskUnits="userSpaceOnUse" x="0" y="2" width="20" height="16">
<path d="M18.5714 2.85715H1.42857C0.639593 2.85715 0 3.49674 0 4.28572V15.7143C0 16.5033 0.639593 17.1429 1.42857 17.1429H18.5714C19.3604 17.1429 20 16.5033 20 15.7143V4.28572C20 3.49674 19.3604 2.85715 18.5714 2.85715Z" fill="white"/>
</mask>
<g mask="url(#mask0_1838_728)">
<path d="M18.5713 3.03571H1.42847C0.738111 3.03571 0.178467 3.59535 0.178467 4.28571V15.7143C0.178467 16.4046 0.738111 16.9643 1.42847 16.9643H18.5713C19.2617 16.9643 19.8213 16.4046 19.8213 15.7143V4.28571C19.8213 3.59535 19.2617 3.03571 18.5713 3.03571Z" fill="white" stroke="#F5F5F5" stroke-width="14.2857"/>
<mask id="mask1_1838_728" style="mask-type:alpha" maskUnits="userSpaceOnUse" x="-7" y="-5" width="34" height="30">
<path d="M18.5713 3.03571H1.42847C0.738111 3.03571 0.178467 3.59535 0.178467 4.28571V15.7143C0.178467 16.4046 0.738111 16.9643 1.42847 16.9643H18.5713C19.2617 16.9643 19.8213 16.4046 19.8213 15.7143V4.28571C19.8213 3.59535 19.2617 3.03571 18.5713 3.03571Z" fill="white" stroke="white" stroke-width="14.2857"/>
</mask>
<g mask="url(#mask1_1838_728)">
<path fill-rule="evenodd" clip-rule="evenodd" d="M0 8.57143H8.57143V2.85715H0V8.57143Z" fill="#083D7A"/>
<path fill-rule="evenodd" clip-rule="evenodd" d="M11.4285 17.1429H19.9999V11.4286H11.4285V17.1429Z" fill="#083D7A"/>
<path fill-rule="evenodd" clip-rule="evenodd" d="M0 17.1429H8.57143V11.4286H0V17.1429Z" fill="#DF1E35"/>
<path fill-rule="evenodd" clip-rule="evenodd" d="M11.4285 8.57143H19.9999V2.85715H11.4285V8.57143Z" fill="#DF1E35"/>
<mask id="mask2_1838_728" style="mask-type:luminance" maskUnits="userSpaceOnUse" x="8" y="8" width="4" height="4">
<path fill-rule="evenodd" clip-rule="evenodd" d="M8.98993 8.98987C8.43207 9.54776 8.43207 10.4523 8.98993 11.0102C9.54785 11.5681 10.4524 11.5681 11.0103 11.0102C11.5681 10.4523 11.5681 9.54776 11.0103 8.98987" fill="white"/>
</mask>
<g mask="url(#mask2_1838_728)">
<path d="M8.65311 8.65314C7.90925 9.39699 7.90925 10.603 8.65311 11.3469L9.32654 10.6734C8.95461 10.3015 8.95461 9.6985 9.32654 9.32657L8.65311 8.65314ZM8.65311 11.3469C9.39696 12.0907 10.603 12.0907 11.3469 11.3469L10.6735 10.6734C10.3015 11.0454 9.69847 11.0454 9.32654 10.6734L8.65311 11.3469ZM11.3469 11.3469C12.0908 10.603 12.0908 9.39699 11.3469 8.65314L10.6735 9.32657C11.0454 9.6985 11.0454 10.3015 10.6735 10.6734L11.3469 11.3469Z" fill="#0F6D1A"/>
</g>
<path fill-rule="evenodd" clip-rule="evenodd" d="M10.0001 10.4762C10.2631 10.4762 10.4763 10.263 10.4763 9.99999C10.4763 9.737 10.2631 9.5238 10.0001 9.5238C9.73714 9.5238 9.52393 9.737 9.52393 9.99999C9.52393 10.263 9.73714 10.4762 10.0001 10.4762Z" fill="#042F60"/>
</g>
</g>
</g>
<defs>
<clipPath id="clip0_1838_728">
<rect width="20" height="20" fill="white"/>
</clipPath>
</defs>
</svg>
