<svg width="40" height="40" viewBox="0 0 40 40" fill="none" xmlns="http://www.w3.org/2000/svg">
<path d="M20 30C19.6868 30 19.3848 29.8841 19.1495 29.6734C18.2608 28.8794 17.4039 28.1331 16.6479 27.4749L16.6441 27.4714C14.4277 25.5415 12.5137 23.8747 11.182 22.2329C9.69337 20.3974 9 18.6571 9 16.7559C9 14.9088 9.61986 13.2046 10.7453 11.9573C11.8841 10.6951 13.4468 10 15.1459 10C16.4158 10 17.5788 10.4102 18.6025 11.2193C19.1191 11.6276 19.5874 12.1274 20 12.7104C20.4127 12.1274 20.8809 11.6276 21.3977 11.2193C22.4214 10.4102 23.5844 10 24.8543 10C26.5532 10 28.1161 10.6951 29.2549 11.9573C30.3803 13.2046 31 14.9088 31 16.7559C31 18.6571 30.3068 20.3974 28.8182 22.2327C27.4865 23.8747 25.5727 25.5413 23.3566 27.4711C22.5993 28.1304 21.7411 28.8778 20.8503 29.6738C20.6152 29.8841 20.313 30 20 30ZM15.1459 11.3168C13.811 11.3168 12.5847 11.8612 11.6926 12.8498C10.7872 13.8533 10.2886 15.2405 10.2886 16.7559C10.2886 18.3549 10.8701 19.7849 12.1741 21.3927C13.4343 22.9464 15.3084 24.5785 17.4785 26.4682L17.4798 26.4693L17.4838 26.4727C18.2426 27.1336 19.1029 27.8827 19.9982 28.6826C20.8988 27.8812 21.7604 27.1308 22.5207 26.469C22.5227 26.4673 22.5246 26.4656 22.5266 26.4638C24.6945 24.5758 26.5668 22.9453 27.826 21.3927C29.1299 19.7849 29.7114 18.3549 29.7114 16.7559C29.7114 15.2405 29.2128 13.8533 28.3074 12.8498C27.4155 11.8612 26.189 11.3168 24.8543 11.3168C23.8764 11.3168 22.9786 11.6345 22.1859 12.2608C21.4794 12.8193 20.9873 13.5252 20.6987 14.0191C20.5504 14.2731 20.2892 14.4248 20 14.4248C19.7108 14.4248 19.4496 14.2731 19.3013 14.0191C19.0129 13.5252 18.5208 12.8193 17.8141 12.2608C17.0214 11.6345 16.1236 11.3168 15.1459 11.3168Z" fill="white"/>
<path d="M15.1459 11.3168C13.811 11.3168 12.5847 11.8612 11.6926 12.8498C10.7872 13.8533 10.2886 15.2405 10.2886 16.7559C10.2886 18.3549 10.8701 19.7849 12.1741 21.3927C13.4343 22.9464 15.3084 24.5785 17.4785 26.4682L17.4798 26.4693L17.4838 26.4727C18.2426 27.1336 19.1029 27.8827 19.9982 28.6826C20.8988 27.8812 21.7604 27.1308 22.5207 26.469L22.5266 26.4638C24.6945 24.5758 26.5668 22.9453 27.826 21.3927C29.1299 19.7849 29.7114 18.3549 29.7114 16.7559C29.7114 15.2405 29.2128 13.8533 28.3074 12.8498C27.4155 11.8612 26.189 11.3168 24.8543 11.3168C23.8764 11.3168 22.9786 11.6345 22.1859 12.2608C21.4794 12.8193 20.9873 13.5252 20.6987 14.0191C20.5504 14.2731 20.2892 14.4248 20 14.4248C19.7108 14.4248 19.4496 14.2731 19.3013 14.0191C19.0129 13.5252 18.5208 12.8193 17.8141 12.2608C17.0214 11.6345 16.1236 11.3168 15.1459 11.3168Z" fill="white"/>
</svg>
