<svg width="20" height="20" viewBox="0 0 20 20" fill="none" xmlns="http://www.w3.org/2000/svg">
<g id="flag-my-svgrepo-com" clip-path="url(#clip0_1838_770)">
<g id="Clip path group">
<mask id="mask0_1838_770" style="mask-type:luminance" maskUnits="userSpaceOnUse" x="0" y="2" width="20" height="16">
<g id="clip0_503_3033">
<path id="Vector" d="M18.5714 2.85715H1.42857C0.639593 2.85715 0 3.49674 0 4.28572V15.7143C0 16.5033 0.639593 17.1429 1.42857 17.1429H18.5714C19.3604 17.1429 20 16.5033 20 15.7143V4.28572C20 3.49674 19.3604 2.85715 18.5714 2.85715Z" fill="white"/>
</g>
</mask>
<g mask="url(#mask0_1838_770)">
<g id="Group">
<path id="Vector_2" d="M18.5714 2.85715H1.42857C0.639593 2.85715 0 3.49674 0 4.28572V15.7143C0 16.5033 0.639593 17.1429 1.42857 17.1429H18.5714C19.3604 17.1429 20 16.5033 20 15.7143V4.28572C20 3.49674 19.3604 2.85715 18.5714 2.85715Z" fill="white"/>
<g id="Mask group">
<mask id="mask1_1838_770" style="mask-type:alpha" maskUnits="userSpaceOnUse" x="0" y="2" width="20" height="16">
<g id="Group_2">
<path id="Vector_3" d="M18.5714 2.85715H1.42857C0.639593 2.85715 0 3.49674 0 4.28572V15.7143C0 16.5033 0.639593 17.1429 1.42857 17.1429H18.5714C19.3604 17.1429 20 16.5033 20 15.7143V4.28572C20 3.49674 19.3604 2.85715 18.5714 2.85715Z" fill="white"/>
</g>
</mask>
<g mask="url(#mask1_1838_770)">
<g id="Group_3">
<path id="Vector_4" fill-rule="evenodd" clip-rule="evenodd" d="M20 2.85715H9.52379V3.80953H20V2.85715ZM20 4.76191H9.52379V5.71429H20V4.76191ZM9.52379 6.66667H20V7.61905H9.52379V6.66667ZM20 8.57143H9.52379V9.52381H20V8.57143ZM0 10.4762H20V11.4286H0V10.4762ZM20 12.3809H0V13.3334H20V12.3809ZM0 14.2857H20V15.2381H0V14.2857ZM20 16.1905H0V17.1429H20V16.1905Z" fill="#E1244A"/>
<path id="Vector_5" d="M11.4286 2.85715H0V10.4762H11.4286V2.85715Z" fill="#0C3F8E"/>
<path id="Vector_6" fill-rule="evenodd" clip-rule="evenodd" d="M4.76193 9.52383C5.43701 9.52383 6.0574 9.2897 6.54634 8.89822C6.28733 8.99483 6.00699 9.04764 5.71431 9.04764C4.39934 9.04764 3.33336 7.98165 3.33336 6.66668C3.33336 5.35172 4.39934 4.28573 5.71431 4.28573C6.00699 4.28573 6.28733 4.33854 6.54634 4.43515C6.0574 4.04367 5.43701 3.80954 4.76193 3.80954C3.18397 3.80954 1.90479 5.08873 1.90479 6.66668C1.90479 8.24464 3.18397 9.52383 4.76193 9.52383ZM6.79262 8.38282L7.6191 7.44764L8.44553 8.38282L8.22967 7.1536L9.4761 7.09053L8.38046 6.4929L9.10824 5.47908L7.95788 5.96307L7.6191 4.76193L7.28024 5.96307L6.12986 5.47908L6.8577 6.4929L5.76206 7.09053L7.00849 7.1536L6.79262 8.38282Z" fill="#FFD34F"/>
</g>
</g>
</g>
</g>
</g>
</g>
</g>
<defs>
<clipPath id="clip0_1838_770">
<rect width="20" height="20" fill="white"/>
</clipPath>
</defs>
</svg>
