<svg width="20" height="20" viewBox="0 0 20 20" fill="none" xmlns="http://www.w3.org/2000/svg">
<g id="flag-re-svgrepo-com" clip-path="url(#clip0_1838_783)">
<g id="Clip path group">
<mask id="mask0_1838_783" style="mask-type:luminance" maskUnits="userSpaceOnUse" x="0" y="2" width="20" height="16">
<g id="clip0_1310_7913">
<path id="Vector" d="M18.5714 2.85715H1.42857C0.639593 2.85715 0 3.49674 0 4.28572V15.7143C0 16.5033 0.639593 17.1429 1.42857 17.1429H18.5714C19.3604 17.1429 20 16.5033 20 15.7143V4.28572C20 3.49674 19.3604 2.85715 18.5714 2.85715Z" fill="white"/>
</g>
</mask>
<g mask="url(#mask0_1838_783)">
<g id="Group">
<path id="Vector_2" d="M20 2.85715H0V17.1429H20V2.85715Z" fill="url(#paint0_linear_1838_783)"/>
<path id="Vector_3" d="M19.9999 2.85715H9.52368V17.1429H19.9999V2.85715Z" fill="url(#paint1_linear_1838_783)"/>
<path id="Vector_4" d="M6.66666 2.85715H0V17.1429H6.66666V2.85715Z" fill="url(#paint2_linear_1838_783)"/>
<path id="Vector_5" d="M13.3334 2.85715H6.66675V17.1429H13.3334V2.85715Z" fill="url(#paint3_linear_1838_783)"/>
</g>
</g>
</g>
</g>
<defs>
<linearGradient id="paint0_linear_1838_783" x1="10" y1="2.85715" x2="10" y2="17.1429" gradientUnits="userSpaceOnUse">
<stop stop-color="white"/>
<stop offset="1" stop-color="#F0F0F0"/>
</linearGradient>
<linearGradient id="paint1_linear_1838_783" x1="14.7618" y1="2.85715" x2="14.7618" y2="17.1429" gradientUnits="userSpaceOnUse">
<stop stop-color="#F44653"/>
<stop offset="1" stop-color="#EE2A39"/>
</linearGradient>
<linearGradient id="paint2_linear_1838_783" x1="3.33334" y1="2.85715" x2="3.33334" y2="17.1429" gradientUnits="userSpaceOnUse">
<stop stop-color="#1035BB"/>
<stop offset="1" stop-color="#042396"/>
</linearGradient>
<linearGradient id="paint3_linear_1838_783" x1="10.0001" y1="2.85715" x2="10.0001" y2="17.1429" gradientUnits="userSpaceOnUse">
<stop stop-color="white"/>
<stop offset="1" stop-color="#F0F0F0"/>
</linearGradient>
<clipPath id="clip0_1838_783">
<rect width="20" height="20" fill="white"/>
</clipPath>
</defs>
</svg>
