<svg width="28" height="28" viewBox="0 0 28 28" fill="none" xmlns="http://www.w3.org/2000/svg">
<path d="M14.4025 3.85004C12.1886 3.85004 10.0654 4.7295 8.4999 6.29496C6.93444 7.86042 6.05498 9.98363 6.05498 12.1975C6.04811 14.2748 6.82285 16.2788 8.22532 17.8112L14.006 24.5362C14.0549 24.5934 14.1157 24.6394 14.1842 24.6709C14.2526 24.7025 14.3271 24.7188 14.4025 24.7188C14.4778 24.7188 14.5523 24.7025 14.6207 24.6709C14.6892 24.6394 14.75 24.5934 14.799 24.5362L20.5796 17.8112C21.9821 16.2788 22.7568 14.2748 22.75 12.1975C22.75 9.98363 21.8705 7.86042 20.305 6.29496C18.7396 4.7295 16.6164 3.85004 14.4025 3.85004ZM19.7866 17.133L14.4025 23.3988L9.01834 17.1382C8.06041 16.0932 7.42728 14.7921 7.19615 13.3934C6.96502 11.9948 7.14589 10.5592 7.71669 9.26156C8.28749 7.96396 9.22356 6.8605 10.4107 6.08577C11.5979 5.31105 12.9849 4.89852 14.4025 4.89852C15.8201 4.89852 17.207 5.31105 18.3942 6.08577C19.5814 6.8605 20.5174 7.96396 21.0882 9.26156C21.659 10.5592 21.8399 11.9948 21.6088 13.3934C21.3777 14.7921 20.7445 16.0932 19.7866 17.1382V17.133Z" fill="white"/>
<path d="M14.4025 8.54547C13.6802 8.54547 12.9741 8.75966 12.3736 9.16095C11.773 9.56224 11.3049 10.1326 11.0285 10.7999C10.7521 11.4672 10.6797 12.2015 10.8207 12.91C10.9616 13.6184 11.3094 14.2691 11.8201 14.7799C12.3309 15.2906 12.9816 15.6384 13.69 15.7794C14.3985 15.9203 15.1328 15.8479 15.8001 15.5715C16.4674 15.2951 17.0378 14.827 17.4391 14.2265C17.8404 13.6259 18.0545 12.9198 18.0545 12.1975C18.0545 11.2289 17.6698 10.3 16.9849 9.61512C16.3 8.93024 15.3711 8.54547 14.4025 8.54547ZM14.4025 14.8061C13.8866 14.8061 13.3822 14.6531 12.9533 14.3665C12.5243 14.0798 12.1899 13.6724 11.9925 13.1958C11.7951 12.7191 11.7434 12.1946 11.844 11.6886C11.9447 11.1826 12.1931 10.7178 12.558 10.3529C12.9228 9.98813 13.3876 9.73968 13.8936 9.63903C14.3996 9.53838 14.9241 9.59004 15.4008 9.78747C15.8774 9.98491 16.2848 10.3193 16.5715 10.7482C16.8581 11.1772 17.0111 11.6816 17.0111 12.1975C17.0111 12.8893 16.7363 13.5528 16.2471 14.042C15.7579 14.5313 15.0944 14.8061 14.4025 14.8061Z" fill="white"/>
</svg>
