<svg width="16" height="16" viewBox="0 0 16 16" fill="none" xmlns="http://www.w3.org/2000/svg">
<path d="M15.1772 13.6719H9.68848C9.3018 13.6719 8.98828 13.3584 8.98828 12.9717C8.98828 12.585 9.3018 12.2715 9.68848 12.2715H15.1772C15.5639 12.2715 15.8774 12.585 15.8774 12.9717C15.8774 13.3584 15.5639 13.6719 15.1772 13.6719Z" fill="#9E5FC4"/>
<path d="M9.55772 3.72657H0.823247C0.436561 3.72657 0.123047 3.41306 0.123047 3.02637C0.123047 2.63969 0.436561 2.32617 0.823247 2.32617H9.55772C9.9444 2.32617 10.2579 2.63969 10.2579 3.02637C10.2579 3.41306 9.9444 3.72657 9.55772 3.72657Z" fill="#9E5FC4"/>
<path d="M15.1769 8.69923H5.62403C5.23734 8.69923 4.92383 8.38571 4.92383 7.99903C4.92383 7.61234 5.23734 7.29883 5.62403 7.29883H15.1769C15.5635 7.29883 15.8771 7.61234 15.8771 7.99903C15.8771 8.38571 15.5635 8.69923 15.1769 8.69923Z" fill="#9E5FC4"/>
<path d="M6.4427 13.6719H0.823247C0.436561 13.6719 0.123047 13.3584 0.123047 12.9717C0.123047 12.585 0.436561 12.2715 0.823247 12.2715H6.4427C6.82939 12.2715 7.1429 12.585 7.1429 12.9717C7.1429 13.3584 6.82939 13.6719 6.4427 13.6719Z" fill="#9E5FC4"/>
<path d="M2.5095 8.69923H0.823247C0.436561 8.69923 0.123047 8.38571 0.123047 7.99903C0.123047 7.61234 0.436561 7.29883 0.823247 7.29883H2.5095C2.89619 7.29883 3.2097 7.61234 3.2097 7.99903C3.2097 8.38571 2.89619 8.69923 2.5095 8.69923Z" fill="#9E5FC4"/>
<path d="M15.1783 3.72657H12.7041C12.3174 3.72657 12.0039 3.41306 12.0039 3.02637C12.0039 2.63969 12.3174 2.32617 12.7041 2.32617H15.1783C15.5649 2.32617 15.8785 2.63969 15.8785 3.02637C15.8785 3.41306 15.5649 3.72657 15.1783 3.72657Z" fill="#9E5FC4"/>
<path d="M8.95848 14.5293H7.04343C6.71206 14.5293 6.44336 14.2606 6.44336 13.9292V12.0141C6.44336 11.6828 6.71206 11.4141 7.04343 11.4141H8.95848C9.28985 11.4141 9.55855 11.6828 9.55855 12.0141V13.9292C9.55855 14.2606 9.28985 14.5293 8.95848 14.5293Z" fill="#9E5FC4"/>
<path d="M5.02488 9.5566H3.10984C2.77847 9.5566 2.50977 9.28789 2.50977 8.95652V7.04148C2.50977 6.71011 2.77847 6.44141 3.10984 6.44141H5.02488C5.35625 6.44141 5.62496 6.71011 5.62496 7.04148V8.95652C5.62496 9.28789 5.35625 9.5566 5.02488 9.5566Z" fill="#9E5FC4"/>
<path d="M12.0737 4.58394H10.1587C9.8273 4.58394 9.55859 4.31524 9.55859 3.98387V2.06882C9.55859 1.73745 9.8273 1.46875 10.1587 1.46875H12.0737C12.4051 1.46875 12.6738 1.73745 12.6738 2.06882V3.98387C12.6736 4.31541 12.4051 4.58394 12.0737 4.58394Z" fill="#9E5FC4"/>
</svg>
