<svg width="140" height="40" viewBox="0 0 140 40" fill="none" xmlns="http://www.w3.org/2000/svg">
<path d="M139.568 14.27V26H136.984V14.27H139.568Z" fill="black"/>
<path d="M131.1 14.27V23.042C131.1 23.3253 131.179 23.5406 131.338 23.688C131.496 23.8353 131.723 23.909 132.018 23.909H136.115L136.234 25.864C135.429 25.9546 134.585 26.0056 133.701 26.017C132.828 26.0396 131.955 26.051 131.083 26.051C130.233 26.051 129.587 25.8243 129.145 25.371C128.714 24.9063 128.499 24.317 128.499 23.603V14.27H131.1Z" fill="black"/>
<path d="M123.716 14.27C123.932 14.27 124.119 14.3323 124.277 14.457C124.447 14.5816 124.561 14.746 124.617 14.95L128.017 26H125.365L122.968 17.381C122.923 17.1883 122.878 16.9956 122.832 16.803C122.787 16.599 122.747 16.4063 122.713 16.225H122.254C122.22 16.4063 122.181 16.599 122.135 16.803C122.101 16.9956 122.056 17.1883 121.999 17.381L119.602 26H116.933L120.35 14.95C120.407 14.746 120.515 14.5816 120.673 14.457C120.843 14.3323 121.036 14.27 121.251 14.27L123.716 14.27ZM125.518 20.951V22.906H119.432V20.951H125.518Z" fill="black"/>
<path d="M112.366 14.134C113.386 14.134 114.197 14.2246 114.797 14.406C115.409 14.576 115.851 14.882 116.123 15.324C116.395 15.766 116.531 16.3893 116.531 17.194C116.531 18.0326 116.367 18.673 116.038 19.115C115.721 19.5456 115.194 19.795 114.457 19.863V19.965C115.364 20.0443 115.999 20.3503 116.361 20.883C116.724 21.4043 116.905 22.1353 116.905 23.076C116.905 23.8806 116.764 24.504 116.48 24.946C116.208 25.388 115.778 25.6996 115.188 25.881C114.61 26.051 113.851 26.136 112.91 26.136C112.151 26.136 111.488 26.1303 110.921 26.119C110.366 26.119 109.85 26.1076 109.374 26.085C108.898 26.0623 108.411 26.034 107.912 26L108.167 24.198C108.439 24.2093 108.961 24.2206 109.731 24.232C110.513 24.2433 111.42 24.249 112.451 24.249C112.927 24.249 113.301 24.2036 113.573 24.113C113.845 24.0223 114.032 23.858 114.134 23.62C114.248 23.3706 114.304 23.0193 114.304 22.566C114.304 22.0786 114.248 21.7103 114.134 21.461C114.021 21.2003 113.823 21.019 113.539 20.917C113.267 20.815 112.888 20.7583 112.4 20.747H108.15V19.098H112.366C112.786 19.0866 113.114 19.0413 113.352 18.962C113.602 18.8826 113.777 18.7296 113.879 18.503C113.981 18.2763 114.032 17.959 114.032 17.551C114.032 17.1316 113.976 16.8143 113.862 16.599C113.76 16.3723 113.579 16.2193 113.318 16.14C113.058 16.0606 112.695 16.021 112.23 16.021C111.596 16.021 111.035 16.021 110.547 16.021C110.06 16.021 109.624 16.0266 109.238 16.038C108.853 16.038 108.496 16.0493 108.167 16.072L107.912 14.27C108.366 14.2246 108.802 14.1963 109.221 14.185C109.652 14.1623 110.117 14.151 110.615 14.151C111.114 14.1396 111.698 14.134 112.366 14.134ZM110.462 14.27V26H107.912V14.27H110.462Z" fill="black"/>
<path d="M103.096 14.27C103.311 14.27 103.498 14.3323 103.657 14.457C103.827 14.5816 103.94 14.746 103.997 14.95L107.397 26H104.745L102.348 17.381C102.302 17.1883 102.257 16.9956 102.212 16.803C102.166 16.599 102.127 16.4063 102.093 16.225H101.634C101.6 16.4063 101.56 16.599 101.515 16.803C101.481 16.9956 101.435 17.1883 101.379 17.381L98.9818 26H96.3128L99.7298 14.95C99.7865 14.746 99.8941 14.5816 100.053 14.457C100.223 14.3323 100.415 14.27 100.631 14.27L103.096 14.27ZM104.898 20.951V22.906H98.8118V20.951H104.898Z" fill="black"/>
<path d="M95.8252 14.27V25.065C95.8252 25.6883 95.5136 26 94.8902 26H93.4622C93.1789 26 92.9636 25.9376 92.8162 25.813C92.6689 25.677 92.5329 25.4786 92.4082 25.218L89.1612 19.064C89.0252 18.8033 88.8892 18.5143 88.7532 18.197C88.6286 17.8796 88.5209 17.5736 88.4302 17.279H88.2432C88.2772 17.585 88.3056 17.8966 88.3282 18.214C88.3509 18.52 88.3622 18.826 88.3622 19.132V26H85.8972V15.205C85.8972 14.5816 86.2146 14.27 86.8492 14.27H88.2602C88.5322 14.27 88.7362 14.338 88.8722 14.474C89.0196 14.5986 89.1612 14.7913 89.2972 15.052L92.4422 21.019C92.5782 21.2796 92.7199 21.5686 92.8672 21.886C93.0146 22.2033 93.1562 22.532 93.2922 22.872H93.4962C93.4622 22.532 93.4339 22.2033 93.4112 21.886C93.3999 21.5573 93.3942 21.2343 93.3942 20.917L93.3772 14.27H95.8252Z" fill="black"/>
<path d="M84.2144 14.27V26H81.6304V14.27H84.2144Z" fill="black"/>
<path d="M75.7461 14.27V23.042C75.7461 23.3253 75.8254 23.5406 75.9841 23.688C76.1428 23.8353 76.3694 23.909 76.6641 23.909H80.7611L80.8801 25.864C80.0754 25.9546 79.2311 26.0056 78.3471 26.017C77.4744 26.0396 76.6018 26.051 75.7291 26.051C74.8791 26.051 74.2331 25.8243 73.7911 25.371C73.3604 24.9063 73.1451 24.317 73.1451 23.603V14.27H75.7461Z" fill="black"/>
<path d="M68.3627 14.27C68.578 14.27 68.765 14.3323 68.9237 14.457C69.0937 14.5816 69.207 14.746 69.2637 14.95L72.6637 26H70.0117L67.6147 17.381C67.5693 17.1883 67.524 16.9956 67.4787 16.803C67.4333 16.599 67.3937 16.4063 67.3597 16.225H66.9007C66.8667 16.4063 66.827 16.599 66.7817 16.803C66.7477 16.9956 66.7023 17.1883 66.6457 17.381L64.2487 26H61.5797L64.9967 14.95C65.0533 14.746 65.161 14.5816 65.3197 14.457C65.4897 14.3323 65.6823 14.27 65.8977 14.27L68.3627 14.27ZM70.1647 20.951V22.906H64.0787V20.951H70.1647Z" fill="black"/>
<path d="M62.7439 14.27L59.5479 25.286C59.4912 25.49 59.3779 25.66 59.2079 25.796C59.0492 25.932 58.8566 26 58.6299 26H56.2499C56.0119 26 55.8079 25.932 55.6379 25.796C55.4792 25.66 55.3772 25.49 55.3319 25.286L52.1189 14.27H54.8049L56.9469 22.736C56.9922 22.9513 57.0376 23.1723 57.0829 23.399C57.1396 23.6143 57.1849 23.8296 57.2189 24.045H57.6609C57.6949 23.8296 57.7346 23.6086 57.7799 23.382C57.8366 23.1553 57.8932 22.9343 57.9499 22.719L60.0749 14.27H62.7439Z" fill="black"/>
<g clip-path="url(#clip0_1815_593)">
<rect width="40" height="40" fill="url(#paint0_linear_1815_593)"/>
<path d="M12.1924 20.0948C9.34336 20.1069 6.70334 20.6851 5.41614 21.088C5.41614 21.088 17.0926 23.0695 18.0639 31.1301C9.19101 18.3372 -0.487183 33.8089 -0.487183 33.8089C1.53066 33.2796 7.30875 31.7084 11.1671 32.3712C13.8069 32.8247 16.3803 35.218 16.2692 35.1879C9.97812 36.7357 -0.0163387 64.7344 1.68077 67.0082C3.19405 68.7469 4.70896 68.1538 6.22244 67.2718C6.97157 61.338 12.8177 35.3034 19.9715 37.4051C19.9725 37.4054 19.9735 37.4048 19.9745 37.4051C20.5768 37.6112 21.1465 37.9728 21.1774 38.5253C21.2363 39.5778 20.5569 41.298 20.7173 42.4926C21.0893 45.2649 21.6321 46.2291 22.4216 47.1963C24.307 46.1365 26.1109 42.3155 26.4841 40.3343C28.1734 41.0741 30.8891 42.7876 33.1046 49.1513C34.2628 43.1879 32.5925 38.4842 27.1094 36.3955C29.4839 35.3692 39.8191 40.5626 41.0806 43.4572C42.308 38.2378 33.6263 31.8509 26.3984 32.1903C27.7842 31.8288 29.307 32.2513 30.7561 31.1842C32.7006 29.7523 34.9683 28.5192 37.0814 27.1946C29.9749 24.1035 23.4167 25.6298 22.9549 28.8292C22.592 21.7284 17.0815 20.0741 12.1923 20.0949L12.1924 20.0948Z" fill="white"/>
</g>
<defs>
<linearGradient id="paint0_linear_1815_593" x1="20" y1="0" x2="20" y2="40" gradientUnits="userSpaceOnUse">
<stop stop-color="#FAAD66"/>
<stop offset="0.844644" stop-color="#F849C7"/>
</linearGradient>
<clipPath id="clip0_1815_593">
<rect width="40" height="40" fill="white"/>
</clipPath>
</defs>
</svg>
