<svg width="71" height="134" viewBox="0 0 71 134" fill="none" xmlns="http://www.w3.org/2000/svg">
<path d="M56.6957 55.0615L20.6773 45.0349L2.04977 112.185L38.0681 122.211L56.6957 55.0615Z" fill="#FFC727"/>
<g opacity="0.1">
<path d="M54.4921 63.0363L18.4737 53.0096L18.3603 53.4184L54.3787 63.445L54.4921 63.0363Z" fill="#020100"/>
<path d="M52.4803 70.2978L16.4619 60.2712L16.3486 60.6799L52.3669 70.7065L52.4803 70.2978Z" fill="#020100"/>
<path d="M50.4553 77.5519L14.4369 67.5253L14.3235 67.934L50.3419 77.9606L50.4553 77.5519Z" fill="#020100"/>
<path d="M48.4452 84.8017L12.4268 74.7751L12.3134 75.1838L48.3318 85.2104L48.4452 84.8017Z" fill="#020100"/>
<path d="M46.4333 92.0625L10.415 82.0359L10.3016 82.4446L46.32 92.4712L46.4333 92.0625Z" fill="#020100"/>
<path d="M44.4212 99.3183L8.40285 89.2917L8.28948 89.7004L44.3078 99.727L44.4212 99.3183Z" fill="#020100"/>
<path d="M42.4094 106.573L6.39104 96.5466L6.27766 96.9553L42.296 106.982L42.4094 106.573Z" fill="#020100"/>
<path d="M40.3988 113.828L4.38039 103.801L4.26702 104.21L40.2854 114.237L40.3988 113.828Z" fill="#020100"/>
</g>
<path d="M40.1063 50.4251L37.3267 49.6519L18.7108 116.805L21.4904 117.578L40.1063 50.4251Z" fill="#263238"/>
<path d="M40.0705 75.6747L37.0679 74.8389L31.4397 95.1275L34.4423 95.9634L40.0705 75.6747Z" fill="#263238"/>
<path d="M39.4894 117.18L30.835 114.774L25.9785 118.837L38.0933 122.211L39.4894 117.18Z" fill="#263238"/>
<path d="M3.46884 107.158L12.1166 109.564L14.1876 115.556L2.07275 112.182L3.46884 107.158Z" fill="#263238"/>
<path d="M30.2917 126.532L33.4941 127.426L37.2854 121.985L30.3778 120.062L31.5158 123.628L30.2917 126.532Z" fill="#263238"/>
<path d="M26.8112 127.532C26.1363 129.971 27.5589 132.503 30.0004 133.179C32.4352 133.855 34.9627 132.43 35.6376 129.984C36.3125 127.539 34.89 125.013 32.4485 124.337C30.0136 123.661 27.4861 125.086 26.8112 127.532Z" fill="#37474F"/>
<path d="M28.8162 128.089C28.4457 129.421 29.2265 130.806 30.5564 131.177C31.8863 131.549 33.2691 130.766 33.6397 129.434C34.0102 128.102 33.2294 126.717 31.8995 126.345C30.5696 125.974 29.1868 126.756 28.8162 128.089Z" fill="#DBDBDB"/>
<path d="M31.5822 127.286C31.483 127.63 31.4499 127.929 31.5028 127.942C31.5557 127.955 31.6748 127.683 31.7675 127.339C31.8667 126.994 31.8998 126.696 31.8469 126.682C31.7939 126.669 31.6748 126.941 31.5822 127.286Z" fill="#263238"/>
<path d="M32.5214 127.968C32.2105 128.147 31.9789 128.326 32.0053 128.372C32.0318 128.418 32.3097 128.312 32.6207 128.133C32.9316 127.954 33.1632 127.775 33.1368 127.729C33.1103 127.683 32.8324 127.789 32.5214 127.968Z" fill="#263238"/>
<path d="M32.7004 129.116C32.3563 129.016 32.0586 128.983 32.0454 129.036C32.0321 129.089 32.3034 129.208 32.6474 129.301C32.9915 129.401 33.2893 129.434 33.3025 129.381C33.3157 129.328 33.0444 129.208 32.7004 129.116Z" fill="#263238"/>
<path d="M32.0191 130.056C31.8405 129.745 31.6618 129.513 31.6155 129.539C31.5692 129.566 31.6751 129.844 31.8537 130.156C32.0324 130.467 32.211 130.699 32.2573 130.673C32.3036 130.646 32.1978 130.368 32.0191 130.056Z" fill="#263238"/>
<path d="M30.8675 130.235C30.9667 129.891 30.9998 129.592 30.9469 129.579C30.894 129.566 30.7749 129.838 30.6822 130.182C30.583 130.527 30.5499 130.825 30.6028 130.838C30.6558 130.852 30.7749 130.58 30.8675 130.235Z" fill="#263238"/>
<path d="M29.9277 129.553C30.2386 129.374 30.4702 129.195 30.4438 129.149C30.4173 129.102 30.1394 129.208 29.8284 129.387C29.5174 129.566 29.2859 129.745 29.3123 129.792C29.3388 129.838 29.6167 129.732 29.9277 129.553Z" fill="#263238"/>
<path d="M29.7494 128.406C30.0934 128.505 30.3912 128.538 30.4044 128.485C30.4176 128.432 30.1464 128.313 29.8023 128.22C29.4583 128.121 29.1605 128.088 29.1473 128.141C29.1341 128.194 29.4053 128.313 29.7494 128.406Z" fill="#263238"/>
<path d="M30.4377 127.464C30.6164 127.776 30.795 128.008 30.8413 127.981C30.8876 127.955 30.7818 127.677 30.6031 127.365C30.4245 127.054 30.2458 126.822 30.1995 126.848C30.1532 126.875 30.2591 127.153 30.4377 127.464Z" fill="#263238"/>
<path d="M6.52543 119.923L3.32967 119.029L2.87975 112.407L9.78737 114.329L6.97536 116.795L6.52543 119.923Z" fill="#263238"/>
<path d="M8.99361 122.574C8.31872 125.014 5.79122 126.445 3.35635 125.769C0.921481 125.093 -0.507688 122.561 0.167195 120.122C0.842078 117.683 3.36958 116.251 5.80446 116.927C8.23933 117.603 9.66849 120.135 8.99361 122.574Z" fill="#37474F"/>
<path d="M6.99537 122.018C6.62484 123.35 5.24861 124.132 3.91208 123.761C2.58216 123.39 1.80141 122.011 2.17194 120.672C2.54246 119.34 3.91869 118.558 5.25522 118.929C6.58514 119.3 7.36589 120.679 6.99537 122.018Z" fill="#DBDBDB"/>
<path d="M5.03714 119.897C4.9379 120.241 4.8188 120.513 4.77249 120.5C4.71956 120.487 4.75925 120.195 4.85188 119.844C4.95113 119.499 5.07023 119.227 5.11654 119.241C5.16948 119.254 5.12978 119.545 5.03714 119.897Z" fill="#263238"/>
<path d="M3.87954 119.996C4.05819 120.307 4.16405 120.585 4.11774 120.612C4.07142 120.638 3.89277 120.407 3.71413 120.095C3.53548 119.783 3.42962 119.505 3.47593 119.479C3.52225 119.452 3.7009 119.684 3.87954 119.996Z" fill="#263238"/>
<path d="M3.13179 120.89C3.47585 120.99 3.74713 121.109 3.7339 121.155C3.72066 121.208 3.42953 121.169 3.07886 121.076C2.7348 120.976 2.46353 120.857 2.47676 120.811C2.48999 120.758 2.78112 120.798 3.13179 120.89Z" fill="#263238"/>
<path d="M3.23714 122.05C3.54811 121.871 3.82601 121.765 3.85247 121.812C3.87894 121.858 3.64736 122.037 3.33638 122.216C3.02541 122.395 2.74751 122.501 2.72105 122.455C2.69458 122.408 2.92616 122.229 3.23714 122.05Z" fill="#263238"/>
<path d="M4.12378 122.793C4.22302 122.448 4.34212 122.176 4.38844 122.19C4.44137 122.203 4.40167 122.495 4.30904 122.846C4.20979 123.19 4.09069 123.462 4.04438 123.449C3.99144 123.436 4.03114 123.144 4.12378 122.793Z" fill="#263238"/>
<path d="M5.28215 122.694C5.10351 122.382 4.99764 122.104 5.04396 122.077C5.09027 122.051 5.26892 122.283 5.44757 122.594C5.62621 122.906 5.73208 123.184 5.68576 123.211C5.63944 123.237 5.4608 123.005 5.28215 122.694Z" fill="#263238"/>
<path d="M6.02992 121.798C5.68587 121.699 5.41459 121.58 5.42782 121.533C5.44106 121.48 5.73218 121.52 6.08286 121.613C6.42691 121.712 6.69819 121.832 6.68496 121.878C6.67173 121.931 6.3806 121.891 6.02992 121.798Z" fill="#263238"/>
<path d="M5.92377 120.645C5.61279 120.824 5.3349 120.93 5.30843 120.883C5.28197 120.837 5.51354 120.658 5.82452 120.479C6.1355 120.3 6.41339 120.194 6.43985 120.24C6.46632 120.287 6.23474 120.466 5.92377 120.645Z" fill="#263238"/>
<path d="M47.8108 49.3072L41.7989 47.6348L40.9597 50.6619L46.9716 52.3344L47.8108 49.3072Z" fill="#263238"/>
<path d="M69.6493 2.53866L66.9145 1.77734L52.45 53.9199L55.1848 54.6812L69.6493 2.53866Z" fill="#C7C7C7"/>
<path d="M70.4471 1.93781L66.552 0.853516L64.7309 7.41843L68.626 8.50273L70.4471 1.93781Z" fill="#263238"/>
</svg>
