<svg width="20" height="20" viewBox="0 0 20 20" fill="none" xmlns="http://www.w3.org/2000/svg">
<path fill-rule="evenodd" clip-rule="evenodd" d="M18.7447 4.95695C18.8722 4.50164 18.7447 4.16699 18.1382 4.16699H16.1325C15.6225 4.16699 15.3875 4.45605 15.26 4.77489C15.26 4.77489 14.24 7.43872 12.795 9.16908C12.3276 9.66997 12.1151 9.82916 11.8601 9.82916C11.7326 9.82916 11.5481 9.66998 11.5481 9.21467V4.95695C11.5481 4.41046 11.4001 4.16699 10.975 4.16699H7.82325C7.50463 4.16699 7.31295 4.42059 7.31295 4.66098C7.31295 5.17908 8.03528 5.29851 8.10977 6.75561V9.9205C8.10977 10.6144 7.99287 10.7402 7.73786 10.7402C7.05794 10.7402 5.40411 8.06427 4.42305 5.00254C4.23079 4.40739 4.03796 4.16699 3.52537 4.16699H1.51969C0.946641 4.16699 0.832031 4.45605 0.832031 4.77489C0.832031 5.3441 1.5121 8.16743 3.99814 11.9014C5.65568 14.4512 7.99058 15.8337 10.1154 15.8337C11.3905 15.8337 11.5481 15.5266 11.5481 14.9978V13.0705C11.5481 12.4565 11.6688 12.334 12.0724 12.334C12.3701 12.334 12.88 12.4933 14.0701 13.7228C15.4299 15.1797 15.654 15.8337 16.419 15.8337H18.4247C18.9977 15.8337 19.2843 15.5266 19.1189 14.9207C18.9381 14.3168 18.2889 13.4409 17.4273 12.4023C16.9598 11.8102 16.2586 11.1727 16.0462 10.854C15.7487 10.4441 15.8336 10.2621 16.0462 9.89794C16.0462 9.89794 18.4897 6.20943 18.7447 4.9571V4.95695Z" fill="#9E5FC4"/>
</svg>
