<svg>
  <symbol id="icon-burger" viewBox="0 0 36 14" fill="none" xmlns="http://www.w3.org/2000/svg">
    <path fill-rule="evenodd" clip-rule="evenodd" d="M0 0.8C0 0.358172 0.447715 0 1 0H35C35.5523 0 36 0.358172 36 0.8C36 1.24183 35.5523 1.6 35 1.6H1C0.447715 1.6 0 1.24183 0 0.8Z" fill="white"/>
    <path fill-rule="evenodd" clip-rule="evenodd" d="M0 12.4C0 11.9581 0.447715 11.6 1 11.6H35C35.5523 11.6 36 11.9581 36 12.4C36 12.8418 35.5523 13.2 35 13.2H1C0.447715 13.2 0 12.8418 0 12.4Z" fill="white"/>
  </symbol>
  <symbol id="icon-favorites" viewBox="0 0 22 20" fill="currentColor" xmlns="http://www.w3.org/2000/svg">
    <path d="M11 20C10.6868 20 10.3848 19.8841 10.1495 19.6734C9.26077 18.8794 8.40392 18.1331 7.64793 17.4749L7.64407 17.4714C5.42766 15.5415 3.5137 13.8747 2.18201 12.2329C0.693375 10.3974 0 8.65709 0 6.75591C0 4.90876 0.619858 3.20464 1.74527 1.95726C2.88411 0.695126 4.44676 0 6.14587 0C7.4158 0 8.57881 0.410249 9.60251 1.21926C10.1191 1.62762 10.5874 2.1274 11 2.71036C11.4127 2.1274 11.8809 1.62762 12.3977 1.21926C13.4214 0.410249 14.5844 0 15.8543 0C17.5532 0 19.1161 0.695126 20.2549 1.95726C21.3803 3.20464 22 4.90876 22 6.75591C22 8.65709 21.3068 10.3974 19.8182 12.2327C18.4865 13.8747 16.5727 15.5413 14.3566 17.4711C13.5993 18.1304 12.7411 18.8778 11.8503 19.6738C11.6152 19.8841 11.313 20 11 20ZM6.14587 1.31685C4.81099 1.31685 3.5847 1.86121 2.6926 2.84979C1.78723 3.85329 1.28856 5.24046 1.28856 6.75591C1.28856 8.35489 1.87015 9.78493 3.17415 11.3927C4.43426 12.9464 6.30845 14.5785 8.4785 16.4682L8.47978 16.4693L8.48381 16.4727C9.24265 17.1336 10.1029 17.8827 10.9982 18.6826C11.8988 17.8812 12.7604 17.1308 13.5207 16.469C13.5227 16.4673 13.5246 16.4656 13.5266 16.4638C15.6945 14.5758 17.5668 12.9453 18.826 11.3927C20.1299 9.78493 20.7114 8.35489 20.7114 6.75591C20.7114 5.24046 20.2128 3.85329 19.3074 2.84979C18.4155 1.86121 17.189 1.31685 15.8543 1.31685C14.8764 1.31685 13.9786 1.63448 13.1859 2.26083C12.4794 2.81926 11.9873 3.52519 11.6987 4.01914C11.5504 4.27315 11.2892 4.42476 11 4.42476C10.7108 4.42476 10.4496 4.27315 10.3013 4.01914C10.0129 3.52519 9.52077 2.81926 8.81413 2.26083C8.02139 1.63448 7.12358 1.31685 6.14587 1.31685Z" fill="white"/>
    <path d="M6.14587 1.31685C4.81099 1.31685 3.5847 1.86121 2.6926 2.84979C1.78723 3.85329 1.28856 5.24046 1.28856 6.75591C1.28856 8.35489 1.87015 9.78493 3.17415 11.3927C4.43426 12.9464 6.30845 14.5785 8.4785 16.4682L8.47978 16.4693L8.48381 16.4727C9.24265 17.1336 10.1029 17.8827 10.9982 18.6826C11.8988 17.8812 12.7604 17.1308 13.5207 16.469L13.5266 16.4638C15.6945 14.5758 17.5668 12.9453 18.826 11.3927C20.1299 9.78493 20.7114 8.35489 20.7114 6.75591C20.7114 5.24046 20.2128 3.85329 19.3074 2.84979C18.4155 1.86121 17.189 1.31685 15.8543 1.31685C14.8764 1.31685 13.9786 1.63448 13.1859 2.26083C12.4794 2.81926 11.9873 3.52519 11.6987 4.01914C11.5504 4.27315 11.2892 4.42476 11 4.42476C10.7108 4.42476 10.4496 4.27315 10.3013 4.01914C10.0129 3.52519 9.52077 2.81926 8.81413 2.26083C8.02139 1.63448 7.12358 1.31685 6.14587 1.31685Z" fill="none"/>
  </symbol>
  <symbol viewbox="0 0 20 20" fill="none" xmlns="http://www.w3.org/2000/svg" id="icon-flag-cu">
    <g id="flag-cu-svgrepo-com" clip-path="url(#clip0_1838_713)">
    <g id="Clip path group">
    <mask id="mask0_1838_713" style="mask-type:luminance" maskunits="userSpaceOnUse" x="0" y="2" width="20" height="16">
    <g id="clip0_503_4774">
    <path id="Vector" d="M18.5714 2.85715H1.42857C0.639593 2.85715 0 3.49674 0 4.28572V15.7143C0 16.5033 0.639593 17.1429 1.42857 17.1429H18.5714C19.3604 17.1429 20 16.5033 20 15.7143V4.28572C20 3.49674 19.3604 2.85715 18.5714 2.85715Z" fill="white"></path>
    </g>
    </mask>
    <g mask="url(#mask0_1838_713)">
    <g id="Group">
    <path id="Vector_2" d="M18.5713 3.03571H1.42847C0.738111 3.03571 0.178467 3.59535 0.178467 4.28571V15.7143C0.178467 16.4046 0.738111 16.9643 1.42847 16.9643H18.5713C19.2617 16.9643 19.8213 16.4046 19.8213 15.7143V4.28571C19.8213 3.59535 19.2617 3.03571 18.5713 3.03571Z" fill="white" stroke="#F5F5F5" stroke-width="14.2857"></path>
    <g id="Mask group">
    <mask id="mask1_1838_713" style="mask-type:alpha" maskunits="userSpaceOnUse" x="-7" y="-5" width="34" height="30">
    <g id="Group_2">
    <path id="Vector_3" d="M18.5713 3.03571H1.42847C0.738111 3.03571 0.178467 3.59535 0.178467 4.28571V15.7143C0.178467 16.4046 0.738111 16.9643 1.42847 16.9643H18.5713C19.2617 16.9643 19.8213 16.4046 19.8213 15.7143V4.28571C19.8213 3.59535 19.2617 3.03571 18.5713 3.03571Z" fill="white" stroke="white" stroke-width="14.2857"></path>
    </g>
    </mask>
    <g mask="url(#mask1_1838_713)">
    <g id="Group_3">
    <path id="Vector_4" fill-rule="evenodd" clip-rule="evenodd" d="M0 5.71429H20V2.85715H0V5.71429Z" fill="#0B389F"></path>
    <path id="Vector_5" fill-rule="evenodd" clip-rule="evenodd" d="M0 11.4286H20V8.57144H0V11.4286Z" fill="#0B389F"></path>
    <path id="Vector_6" fill-rule="evenodd" clip-rule="evenodd" d="M0 17.1428H20V14.2857H0V17.1428Z" fill="#0B389F"></path>
    <path id="Vector_7" fill-rule="evenodd" clip-rule="evenodd" d="M0 2.85715L9.52379 10L0 17.1429V2.85715Z" fill="#E12A43"></path>
    <path id="Vector_8" fill-rule="evenodd" clip-rule="evenodd" d="M3.33326 10.7305L2.21367 11.541L2.63852 10.2257L1.52173 9.4114L2.90389 9.40903L3.33326 8.09525L3.76264 9.40903L5.1448 9.4114L4.028 10.2257L4.45285 11.541L3.33326 10.7305Z" fill="white"></path>
    </g>
    </g>
    </g>
    </g>
    </g>
    </g>
    </g>
    <defs>
    <clippath id="clip0_1838_713">
    <rect width="20" height="20" fill="white"></rect>
    </clippath>
    </defs>
  </symbol>
  <symbol viewbox="0 0 20 20" fill="none" xmlns="http://www.w3.org/2000/svg" id="icon-flag-do">
    <g clip-path="url(#clip0_1838_728)">
    <mask id="mask0_1838_728" style="mask-type:luminance" maskunits="userSpaceOnUse" x="0" y="2" width="20" height="16">
    <path d="M18.5714 2.85715H1.42857C0.639593 2.85715 0 3.49674 0 4.28572V15.7143C0 16.5033 0.639593 17.1429 1.42857 17.1429H18.5714C19.3604 17.1429 20 16.5033 20 15.7143V4.28572C20 3.49674 19.3604 2.85715 18.5714 2.85715Z" fill="white"></path>
    </mask>
    <g mask="url(#mask0_1838_728)">
    <path d="M18.5713 3.03571H1.42847C0.738111 3.03571 0.178467 3.59535 0.178467 4.28571V15.7143C0.178467 16.4046 0.738111 16.9643 1.42847 16.9643H18.5713C19.2617 16.9643 19.8213 16.4046 19.8213 15.7143V4.28571C19.8213 3.59535 19.2617 3.03571 18.5713 3.03571Z" fill="white" stroke="#F5F5F5" stroke-width="14.2857"></path>
    <mask id="mask1_1838_728" style="mask-type:alpha" maskunits="userSpaceOnUse" x="-7" y="-5" width="34" height="30">
    <path d="M18.5713 3.03571H1.42847C0.738111 3.03571 0.178467 3.59535 0.178467 4.28571V15.7143C0.178467 16.4046 0.738111 16.9643 1.42847 16.9643H18.5713C19.2617 16.9643 19.8213 16.4046 19.8213 15.7143V4.28571C19.8213 3.59535 19.2617 3.03571 18.5713 3.03571Z" fill="white" stroke="white" stroke-width="14.2857"></path>
    </mask>
    <g mask="url(#mask1_1838_728)">
    <path fill-rule="evenodd" clip-rule="evenodd" d="M0 8.57143H8.57143V2.85715H0V8.57143Z" fill="#083D7A"></path>
    <path fill-rule="evenodd" clip-rule="evenodd" d="M11.4285 17.1429H19.9999V11.4286H11.4285V17.1429Z" fill="#083D7A"></path>
    <path fill-rule="evenodd" clip-rule="evenodd" d="M0 17.1429H8.57143V11.4286H0V17.1429Z" fill="#DF1E35"></path>
    <path fill-rule="evenodd" clip-rule="evenodd" d="M11.4285 8.57143H19.9999V2.85715H11.4285V8.57143Z" fill="#DF1E35"></path>
    <mask id="mask2_1838_728" style="mask-type:luminance" maskunits="userSpaceOnUse" x="8" y="8" width="4" height="4">
    <path fill-rule="evenodd" clip-rule="evenodd" d="M8.98993 8.98987C8.43207 9.54776 8.43207 10.4523 8.98993 11.0102C9.54785 11.5681 10.4524 11.5681 11.0103 11.0102C11.5681 10.4523 11.5681 9.54776 11.0103 8.98987" fill="white"></path>
    </mask>
    <g mask="url(#mask2_1838_728)">
    <path d="M8.65311 8.65314C7.90925 9.39699 7.90925 10.603 8.65311 11.3469L9.32654 10.6734C8.95461 10.3015 8.95461 9.6985 9.32654 9.32657L8.65311 8.65314ZM8.65311 11.3469C9.39696 12.0907 10.603 12.0907 11.3469 11.3469L10.6735 10.6734C10.3015 11.0454 9.69847 11.0454 9.32654 10.6734L8.65311 11.3469ZM11.3469 11.3469C12.0908 10.603 12.0908 9.39699 11.3469 8.65314L10.6735 9.32657C11.0454 9.6985 11.0454 10.3015 10.6735 10.6734L11.3469 11.3469Z" fill="#0F6D1A"></path>
    </g>
    <path fill-rule="evenodd" clip-rule="evenodd" d="M10.0001 10.4762C10.2631 10.4762 10.4763 10.263 10.4763 9.99999C10.4763 9.737 10.2631 9.5238 10.0001 9.5238C9.73714 9.5238 9.52393 9.737 9.52393 9.99999C9.52393 10.263 9.73714 10.4762 10.0001 10.4762Z" fill="#042F60"></path>
    </g>
    </g>
    </g>
    <defs>
    <clippath id="clip0_1838_728">
    <rect width="20" height="20" fill="white"></rect>
    </clippath>
    </defs>
  </symbol>
  <symbol viewbox="0 0 20 20" fill="none" xmlns="http://www.w3.org/2000/svg" id="icon-flag-it">
    <g id="flag-it-svgrepo-com" clip-path="url(#clip0_1838_747)">
    <g id="Clip path group">
    <mask id="mask0_1838_747" style="mask-type:luminance" maskunits="userSpaceOnUse" x="0" y="2" width="20" height="16">
    <g id="clip0_503_4138">
    <path id="Vector" d="M18.5714 2.85715H1.42857C0.639593 2.85715 0 3.49674 0 4.28572V15.7143C0 16.5033 0.639593 17.1429 1.42857 17.1429H18.5714C19.3604 17.1429 20 16.5033 20 15.7143V4.28572C20 3.49674 19.3604 2.85715 18.5714 2.85715Z" fill="white"></path>
    </g>
    </mask>
    <g mask="url(#mask0_1838_747)">
    <g id="Group">
    <path id="Vector_2" d="M18.5713 3.03571H1.42847C0.738111 3.03571 0.178467 3.59535 0.178467 4.28571V15.7143C0.178467 16.4046 0.738111 16.9643 1.42847 16.9643H18.5713C19.2617 16.9643 19.8213 16.4046 19.8213 15.7143V4.28571C19.8213 3.59535 19.2617 3.03571 18.5713 3.03571Z" fill="white" stroke="#F5F5F5" stroke-width="14.2857"></path>
    <g id="Mask group">
    <mask id="mask1_1838_747" style="mask-type:alpha" maskunits="userSpaceOnUse" x="-7" y="-5" width="34" height="30">
    <g id="Group_2">
    <path id="Vector_3" d="M18.5713 3.03571H1.42847C0.738111 3.03571 0.178467 3.59535 0.178467 4.28571V15.7143C0.178467 16.4046 0.738111 16.9643 1.42847 16.9643H18.5713C19.2617 16.9643 19.8213 16.4046 19.8213 15.7143V4.28571C19.8213 3.59535 19.2617 3.03571 18.5713 3.03571Z" fill="white" stroke="white" stroke-width="14.2857"></path>
    </g>
    </mask>
    <g mask="url(#mask1_1838_747)">
    <g id="Group_3">
    <path id="Vector_4" d="M19.9999 2.85715H13.3333V17.1429H19.9999V2.85715Z" fill="#E43D4C"></path>
    <path id="Vector_5" fill-rule="evenodd" clip-rule="evenodd" d="M0 17.1429H6.66666V2.85715H0V17.1429Z" fill="#1BB65D"></path>
    </g>
    </g>
    </g>
    </g>
    </g>
    </g>
    </g>
    <defs>
    <clippath id="clip0_1838_747">
    <rect width="20" height="20" fill="white"></rect>
    </clippath>
    </defs>
  </symbol>
  <symbol viewbox="0 0 20 20" fill="none" xmlns="http://www.w3.org/2000/svg" id="icon-flag-my">
    <g id="flag-my-svgrepo-com" clip-path="url(#clip0_1838_770)">
    <g id="Clip path group">
    <mask id="mask0_1838_770" style="mask-type:luminance" maskunits="userSpaceOnUse" x="0" y="2" width="20" height="16">
    <g id="clip0_503_3033">
    <path id="Vector" d="M18.5714 2.85715H1.42857C0.639593 2.85715 0 3.49674 0 4.28572V15.7143C0 16.5033 0.639593 17.1429 1.42857 17.1429H18.5714C19.3604 17.1429 20 16.5033 20 15.7143V4.28572C20 3.49674 19.3604 2.85715 18.5714 2.85715Z" fill="white"></path>
    </g>
    </mask>
    <g mask="url(#mask0_1838_770)">
    <g id="Group">
    <path id="Vector_2" d="M18.5714 2.85715H1.42857C0.639593 2.85715 0 3.49674 0 4.28572V15.7143C0 16.5033 0.639593 17.1429 1.42857 17.1429H18.5714C19.3604 17.1429 20 16.5033 20 15.7143V4.28572C20 3.49674 19.3604 2.85715 18.5714 2.85715Z" fill="white"></path>
    <g id="Mask group">
    <mask id="mask1_1838_770" style="mask-type:alpha" maskunits="userSpaceOnUse" x="0" y="2" width="20" height="16">
    <g id="Group_2">
    <path id="Vector_3" d="M18.5714 2.85715H1.42857C0.639593 2.85715 0 3.49674 0 4.28572V15.7143C0 16.5033 0.639593 17.1429 1.42857 17.1429H18.5714C19.3604 17.1429 20 16.5033 20 15.7143V4.28572C20 3.49674 19.3604 2.85715 18.5714 2.85715Z" fill="white"></path>
    </g>
    </mask>
    <g mask="url(#mask1_1838_770)">
    <g id="Group_3">
    <path id="Vector_4" fill-rule="evenodd" clip-rule="evenodd" d="M20 2.85715H9.52379V3.80953H20V2.85715ZM20 4.76191H9.52379V5.71429H20V4.76191ZM9.52379 6.66667H20V7.61905H9.52379V6.66667ZM20 8.57143H9.52379V9.52381H20V8.57143ZM0 10.4762H20V11.4286H0V10.4762ZM20 12.3809H0V13.3334H20V12.3809ZM0 14.2857H20V15.2381H0V14.2857ZM20 16.1905H0V17.1429H20V16.1905Z" fill="#E1244A"></path>
    <path id="Vector_5" d="M11.4286 2.85715H0V10.4762H11.4286V2.85715Z" fill="#0C3F8E"></path>
    <path id="Vector_6" fill-rule="evenodd" clip-rule="evenodd" d="M4.76193 9.52383C5.43701 9.52383 6.0574 9.2897 6.54634 8.89822C6.28733 8.99483 6.00699 9.04764 5.71431 9.04764C4.39934 9.04764 3.33336 7.98165 3.33336 6.66668C3.33336 5.35172 4.39934 4.28573 5.71431 4.28573C6.00699 4.28573 6.28733 4.33854 6.54634 4.43515C6.0574 4.04367 5.43701 3.80954 4.76193 3.80954C3.18397 3.80954 1.90479 5.08873 1.90479 6.66668C1.90479 8.24464 3.18397 9.52383 4.76193 9.52383ZM6.79262 8.38282L7.6191 7.44764L8.44553 8.38282L8.22967 7.1536L9.4761 7.09053L8.38046 6.4929L9.10824 5.47908L7.95788 5.96307L7.6191 4.76193L7.28024 5.96307L6.12986 5.47908L6.8577 6.4929L5.76206 7.09053L7.00849 7.1536L6.79262 8.38282Z" fill="#FFD34F"></path>
    </g>
    </g>
    </g>
    </g>
    </g>
    </g>
    </g>
    <defs>
    <clippath id="clip0_1838_770">
    <rect width="20" height="20" fill="white"></rect>
    </clippath>
    </defs>
  </symbol>
  <symbol viewbox="0 0 20 20" fill="none" xmlns="http://www.w3.org/2000/svg" id="icon-flag-ru">
    <g id="flag-ru-svgrepo-com" clip-path="url(#clip0_1838_792)">
    <g id="Clip path group">
    <mask id="mask0_1838_792" style="mask-type:luminance" maskunits="userSpaceOnUse" x="0" y="2" width="20" height="16">
    <g id="clip0_503_2726">
    <path id="Vector" d="M18.5714 2.85715H1.42857C0.639593 2.85715 0 3.49674 0 4.28572V15.7143C0 16.5033 0.639593 17.1429 1.42857 17.1429H18.5714C19.3604 17.1429 20 16.5033 20 15.7143V4.28572C20 3.49674 19.3604 2.85715 18.5714 2.85715Z" fill="white"></path>
    </g>
    </mask>
    <g mask="url(#mask0_1838_792)">
    <g id="Group">
    <path id="Vector_2" d="M18.5713 3.03572H1.42847C0.738111 3.03572 0.178467 3.59536 0.178467 4.28572V15.7143C0.178467 16.4046 0.738111 16.9643 1.42847 16.9643H18.5713C19.2617 16.9643 19.8213 16.4046 19.8213 15.7143V4.28572C19.8213 3.59536 19.2617 3.03572 18.5713 3.03572Z" fill="white" stroke="#F5F5F5" stroke-width="14.2857"></path>
    <g id="Mask group">
    <mask id="mask1_1838_792" style="mask-type:alpha" maskunits="userSpaceOnUse" x="-7" y="-5" width="34" height="30">
    <g id="Group_2">
    <path id="Vector_3" d="M18.5713 3.03572H1.42847C0.738111 3.03572 0.178467 3.59536 0.178467 4.28572V15.7143C0.178467 16.4046 0.738111 16.9643 1.42847 16.9643H18.5713C19.2617 16.9643 19.8213 16.4046 19.8213 15.7143V4.28572C19.8213 3.59536 19.2617 3.03572 18.5713 3.03572Z" fill="white" stroke="white" stroke-width="14.2857"></path>
    </g>
    </mask>
    <g mask="url(#mask1_1838_792)">
    <g id="Group_3">
    <path id="Vector_4" fill-rule="evenodd" clip-rule="evenodd" d="M0 12.3809H20V7.61905H0V12.3809Z" fill="#0C47B7"></path>
    <path id="Vector_5" fill-rule="evenodd" clip-rule="evenodd" d="M0 17.1428H20V12.3809H0V17.1428Z" fill="#E53B35"></path>
    </g>
    </g>
    </g>
    </g>
    </g>
    </g>
    </g>
    <defs>
    <clippath id="clip0_1838_792">
    <rect width="20" height="20" fill="white"></rect>
    </clippath>
    </defs>
  </symbol>
  <symbol viewbox="0 0 20 20" fill="none" xmlns="http://www.w3.org/2000/svg" id="icon-flag-th">
    <g id="flag-th-svgrepo-com" clip-path="url(#clip0_1838_817)">
    <g id="Clip path group">
    <mask id="mask0_1838_817" style="mask-type:luminance" maskunits="userSpaceOnUse" x="0" y="2" width="20" height="16">
    <g id="clip0_503_2920">
    <path id="Vector" d="M18.5714 2.85715H1.42857C0.639593 2.85715 0 3.49674 0 4.28572V15.7143C0 16.5033 0.639593 17.1429 1.42857 17.1429H18.5714C19.3604 17.1429 20 16.5033 20 15.7143V4.28572C20 3.49674 19.3604 2.85715 18.5714 2.85715Z" fill="white"></path>
    </g>
    </mask>
    <g mask="url(#mask0_1838_817)">
    <g id="Group">
    <path id="Vector_2" d="M18.5713 3.03572H1.42847C0.738111 3.03572 0.178467 3.59536 0.178467 4.28572V15.7143C0.178467 16.4046 0.738111 16.9643 1.42847 16.9643H18.5713C19.2617 16.9643 19.8213 16.4046 19.8213 15.7143V4.28572C19.8213 3.59536 19.2617 3.03572 18.5713 3.03572Z" fill="white" stroke="#F5F5F5" stroke-width="14.2857"></path>
    <g id="Mask group">
    <mask id="mask1_1838_817" style="mask-type:alpha" maskunits="userSpaceOnUse" x="-7" y="-5" width="34" height="30">
    <g id="Group_2">
    <path id="Vector_3" d="M18.5713 3.03572H1.42847C0.738111 3.03572 0.178467 3.59536 0.178467 4.28572V15.7143C0.178467 16.4046 0.738111 16.9643 1.42847 16.9643H18.5713C19.2617 16.9643 19.8213 16.4046 19.8213 15.7143V4.28572C19.8213 3.59536 19.2617 3.03572 18.5713 3.03572Z" fill="white" stroke="white" stroke-width="14.2857"></path>
    </g>
    </mask>
    <g mask="url(#mask1_1838_817)">
    <g id="Group_3">
    <path id="Vector_4" fill-rule="evenodd" clip-rule="evenodd" d="M0 5.71429H20V2.85715H0V5.71429Z" fill="#F12532"></path>
    <path id="Vector_5" fill-rule="evenodd" clip-rule="evenodd" d="M0 17.1429H20V14.2857H0V17.1429Z" fill="#F12532"></path>
    <path id="Vector_6" fill-rule="evenodd" clip-rule="evenodd" d="M0 12.3809H20V7.61905H0V12.3809Z" fill="#322B6C"></path>
    </g>
    </g>
    </g>
    </g>
    </g>
    </g>
    </g>
    <defs>
    <clippath id="clip0_1838_817">
    <rect width="20" height="20" fill="white"></rect>
    </clippath>
    </defs>
  </symbol>
  <symbol viewbox="0 0 20 20" fill="none" xmlns="http://www.w3.org/2000/svg" id="icon-flag-tr">
    <g id="flag-tr-svgrepo-com" clip-path="url(#clip0_1838_804)">
    <g id="Clip path group">
    <mask id="mask0_1838_804" style="mask-type:luminance" maskunits="userSpaceOnUse" x="0" y="2" width="20" height="16">
    <g id="clip0_503_4206">
    <path id="Vector" d="M18.5714 2.85715H1.42857C0.639593 2.85715 0 3.49674 0 4.28572V15.7143C0 16.5033 0.639593 17.1429 1.42857 17.1429H18.5714C19.3604 17.1429 20 16.5033 20 15.7143V4.28572C20 3.49674 19.3604 2.85715 18.5714 2.85715Z" fill="white"></path>
    </g>
    </mask>
    <g mask="url(#mask0_1838_804)">
    <g id="Group">
    <path id="Vector_2" d="M18.5714 2.85715H1.42857C0.639593 2.85715 0 3.49674 0 4.28572V15.7143C0 16.5033 0.639593 17.1429 1.42857 17.1429H18.5714C19.3604 17.1429 20 16.5033 20 15.7143V4.28572C20 3.49674 19.3604 2.85715 18.5714 2.85715Z" fill="white"></path>
    <g id="Mask group">
    <mask id="mask1_1838_804" style="mask-type:alpha" maskunits="userSpaceOnUse" x="0" y="2" width="20" height="16">
    <g id="Group_2">
    <path id="Vector_3" d="M18.5714 2.85715H1.42857C0.639593 2.85715 0 3.49674 0 4.28572V15.7143C0 16.5033 0.639593 17.1429 1.42857 17.1429H18.5714C19.3604 17.1429 20 16.5033 20 15.7143V4.28572C20 3.49674 19.3604 2.85715 18.5714 2.85715Z" fill="white"></path>
    </g>
    </mask>
    <g mask="url(#mask1_1838_804)">
    <g id="Group_3">
    <path id="Vector_4" d="M20 2.85715H0V17.1429H20V2.85715Z" fill="#E92434"></path>
    <path id="Vector_5" fill-rule="evenodd" clip-rule="evenodd" d="M13.5863 10.5489L12.7114 11.6095L12.7711 10.2359L11.4919 9.7316L12.8167 9.36379L12.9011 7.99142L13.6603 9.13777L14.9915 8.79387L14.1359 9.87016L14.8744 11.03L13.5863 10.5489Z" fill="white"></path>
    <path id="Vector_6" fill-rule="evenodd" clip-rule="evenodd" d="M12.4305 12.6313C11.6463 13.6382 10.4225 14.2857 9.04743 14.2857C6.6805 14.2857 4.76172 12.3669 4.76172 10C4.76172 7.63307 6.6805 5.71429 9.04743 5.71429C10.4225 5.71429 11.6463 6.36186 12.4305 7.36866C11.8253 6.92872 11.0644 6.66666 10.2378 6.66666C8.26536 6.66666 6.66637 8.15904 6.66637 9.99999C6.66637 11.8409 8.26536 13.3333 10.2378 13.3333C11.0644 13.3333 11.8254 13.0712 12.4305 12.6313Z" fill="white"></path>
    </g>
    </g>
    </g>
    </g>
    </g>
    </g>
    </g>
    <defs>
    <clippath id="clip0_1838_804">
    <rect width="20" height="20" fill="white"></rect>
    </clippath>
    </defs>
  </symbol>
  <symbol viewbox="0 0 20 20" fill="none" xmlns="http://www.w3.org/2000/svg" id="icon-flag">
    <path d="M12.6659 5.96666L5.99927 3.08332V2.29166C5.99927 1.94999 5.71593 1.66666 5.37427 1.66666C5.0326 1.66666 4.74927 1.94999 4.74927 2.29166V17.7083C4.74927 18.05 5.0326 18.3333 5.37427 18.3333C5.71593 18.3333 5.99927 18.05 5.99927 17.7083V14.4083L12.8493 11.025C12.8493 11.025 12.8493 11.025 12.8576 11.025C14.2409 10.3083 14.9826 9.38332 14.9409 8.40832C14.8992 7.43332 14.0909 6.56666 12.6659 5.96666Z" fill="#9E5FC4"></path>
  </symbol>
  <symbol viewbox="0 0 28 28" fill="none" xmlns="http://www.w3.org/2000/svg" id="icon-pin">
    <path d="M14.4025 3.85004C12.1886 3.85004 10.0654 4.7295 8.4999 6.29496C6.93444 7.86042 6.05498 9.98363 6.05498 12.1975C6.04811 14.2748 6.82285 16.2788 8.22532 17.8112L14.006 24.5362C14.0549 24.5934 14.1157 24.6394 14.1842 24.6709C14.2526 24.7025 14.3271 24.7188 14.4025 24.7188C14.4778 24.7188 14.5523 24.7025 14.6207 24.6709C14.6892 24.6394 14.75 24.5934 14.799 24.5362L20.5796 17.8112C21.9821 16.2788 22.7568 14.2748 22.75 12.1975C22.75 9.98363 21.8705 7.86042 20.305 6.29496C18.7396 4.7295 16.6164 3.85004 14.4025 3.85004ZM19.7866 17.133L14.4025 23.3988L9.01834 17.1382C8.06041 16.0932 7.42728 14.7921 7.19615 13.3934C6.96502 11.9948 7.14589 10.5592 7.71669 9.26156C8.28749 7.96396 9.22356 6.8605 10.4107 6.08577C11.5979 5.31105 12.9849 4.89852 14.4025 4.89852C15.8201 4.89852 17.207 5.31105 18.3942 6.08577C19.5814 6.8605 20.5174 7.96396 21.0882 9.26156C21.659 10.5592 21.8399 11.9948 21.6088 13.3934C21.3777 14.7921 20.7445 16.0932 19.7866 17.1382V17.133Z" fill="white"></path>
    <path d="M14.4025 8.54547C13.6802 8.54547 12.9741 8.75966 12.3736 9.16095C11.773 9.56224 11.3049 10.1326 11.0285 10.7999C10.7521 11.4672 10.6797 12.2015 10.8207 12.91C10.9616 13.6184 11.3094 14.2691 11.8201 14.7799C12.3309 15.2906 12.9816 15.6384 13.69 15.7794C14.3985 15.9203 15.1328 15.8479 15.8001 15.5715C16.4674 15.2951 17.0378 14.827 17.4391 14.2265C17.8404 13.6259 18.0545 12.9198 18.0545 12.1975C18.0545 11.2289 17.6698 10.3 16.9849 9.61512C16.3 8.93024 15.3711 8.54547 14.4025 8.54547ZM14.4025 14.8061C13.8866 14.8061 13.3822 14.6531 12.9533 14.3665C12.5243 14.0798 12.1899 13.6724 11.9925 13.1958C11.7951 12.7191 11.7434 12.1946 11.844 11.6886C11.9447 11.1826 12.1931 10.7178 12.558 10.3529C12.9228 9.98813 13.3876 9.73968 13.8936 9.63903C14.3996 9.53838 14.9241 9.59004 15.4008 9.78747C15.8774 9.98491 16.2848 10.3193 16.5715 10.7482C16.8581 11.1772 17.0111 11.6816 17.0111 12.1975C17.0111 12.8893 16.7363 13.5528 16.2471 14.042C15.7579 14.5313 15.0944 14.8061 14.4025 14.8061Z" fill="white"></path>
  </symbol>
  <symbol viewbox="0 0 20 20" fill="none" xmlns="http://www.w3.org/2000/svg" id="icon-vk">
    <path fill-rule="evenodd" clip-rule="evenodd" d="M18.7447 4.95695C18.8722 4.50164 18.7447 4.16699 18.1382 4.16699H16.1325C15.6225 4.16699 15.3875 4.45605 15.26 4.77489C15.26 4.77489 14.24 7.43872 12.795 9.16908C12.3276 9.66997 12.1151 9.82916 11.8601 9.82916C11.7326 9.82916 11.5481 9.66998 11.5481 9.21467V4.95695C11.5481 4.41046 11.4001 4.16699 10.975 4.16699H7.82325C7.50463 4.16699 7.31295 4.42059 7.31295 4.66098C7.31295 5.17908 8.03528 5.29851 8.10977 6.75561V9.9205C8.10977 10.6144 7.99287 10.7402 7.73786 10.7402C7.05794 10.7402 5.40411 8.06427 4.42305 5.00254C4.23079 4.40739 4.03796 4.16699 3.52537 4.16699H1.51969C0.946641 4.16699 0.832031 4.45605 0.832031 4.77489C0.832031 5.3441 1.5121 8.16743 3.99814 11.9014C5.65568 14.4512 7.99058 15.8337 10.1154 15.8337C11.3905 15.8337 11.5481 15.5266 11.5481 14.9978V13.0705C11.5481 12.4565 11.6688 12.334 12.0724 12.334C12.3701 12.334 12.88 12.4933 14.0701 13.7228C15.4299 15.1797 15.654 15.8337 16.419 15.8337H18.4247C18.9977 15.8337 19.2843 15.5266 19.1189 14.9207C18.9381 14.3168 18.2889 13.4409 17.4273 12.4023C16.9598 11.8102 16.2586 11.1727 16.0462 10.854C15.7487 10.4441 15.8336 10.2621 16.0462 9.89794C16.0462 9.89794 18.4897 6.20943 18.7447 4.9571V4.95695Z" fill="#9E5FC4"></path>
  </symbol>
  <symbol viewbox="0 0 20 20" fill="none" xmlns="http://www.w3.org/2000/svg" id="icon-youtube">
    <path d="M18.9906 5.49952C18.7745 4.69629 18.1412 4.06315 17.3381 3.84686C15.8708 3.44531 10.0018 3.44531 10.0018 3.44531C10.0018 3.44531 4.13284 3.44531 2.66557 3.83155C1.87793 4.0477 1.2292 4.69643 1.01305 5.49952C0.626953 6.96664 0.626953 10.0093 0.626953 10.0093C0.626953 10.0093 0.626953 13.0673 1.01305 14.5191C1.22934 15.3222 1.86248 15.9555 2.66571 16.1718C4.14829 16.5733 10.0019 16.5733 10.0019 16.5733C10.0019 16.5733 15.8708 16.5733 17.3381 16.1871C18.1413 15.971 18.7745 15.3377 18.9908 14.5346C19.3769 13.0673 19.3769 10.0248 19.3769 10.0248C19.3769 10.0248 19.3923 6.96664 18.9906 5.49952Z" fill="#9E5FC4"></path>
    <path d="M8.13477 12.82L13.0152 10.0091L8.13477 7.19812V12.82Z" fill="white"></path>
  </symbol>
  <symbol viewBox="0 0 16 16" fill="none" xmlns="http://www.w3.org/2000/svg" id="icon-filter">
    <path d="M15.1772 13.6719H9.68848C9.3018 13.6719 8.98828 13.3584 8.98828 12.9717C8.98828 12.585 9.3018 12.2715 9.68848 12.2715H15.1772C15.5639 12.2715 15.8774 12.585 15.8774 12.9717C15.8774 13.3584 15.5639 13.6719 15.1772 13.6719Z" fill="#9E5FC4"/>
    <path d="M9.55772 3.72657H0.823247C0.436561 3.72657 0.123047 3.41306 0.123047 3.02637C0.123047 2.63969 0.436561 2.32617 0.823247 2.32617H9.55772C9.9444 2.32617 10.2579 2.63969 10.2579 3.02637C10.2579 3.41306 9.9444 3.72657 9.55772 3.72657Z" fill="#9E5FC4"/>
    <path d="M15.1769 8.69923H5.62403C5.23734 8.69923 4.92383 8.38571 4.92383 7.99903C4.92383 7.61234 5.23734 7.29883 5.62403 7.29883H15.1769C15.5635 7.29883 15.8771 7.61234 15.8771 7.99903C15.8771 8.38571 15.5635 8.69923 15.1769 8.69923Z" fill="#9E5FC4"/>
    <path d="M6.4427 13.6719H0.823247C0.436561 13.6719 0.123047 13.3584 0.123047 12.9717C0.123047 12.585 0.436561 12.2715 0.823247 12.2715H6.4427C6.82939 12.2715 7.1429 12.585 7.1429 12.9717C7.1429 13.3584 6.82939 13.6719 6.4427 13.6719Z" fill="#9E5FC4"/>
    <path d="M2.5095 8.69923H0.823247C0.436561 8.69923 0.123047 8.38571 0.123047 7.99903C0.123047 7.61234 0.436561 7.29883 0.823247 7.29883H2.5095C2.89619 7.29883 3.2097 7.61234 3.2097 7.99903C3.2097 8.38571 2.89619 8.69923 2.5095 8.69923Z" fill="#9E5FC4"/>
    <path d="M15.1783 3.72657H12.7041C12.3174 3.72657 12.0039 3.41306 12.0039 3.02637C12.0039 2.63969 12.3174 2.32617 12.7041 2.32617H15.1783C15.5649 2.32617 15.8785 2.63969 15.8785 3.02637C15.8785 3.41306 15.5649 3.72657 15.1783 3.72657Z" fill="#9E5FC4"/>
    <path d="M8.95848 14.5293H7.04343C6.71206 14.5293 6.44336 14.2606 6.44336 13.9292V12.0141C6.44336 11.6828 6.71206 11.4141 7.04343 11.4141H8.95848C9.28985 11.4141 9.55855 11.6828 9.55855 12.0141V13.9292C9.55855 14.2606 9.28985 14.5293 8.95848 14.5293Z" fill="#9E5FC4"/>
    <path d="M5.02488 9.5566H3.10984C2.77847 9.5566 2.50977 9.28789 2.50977 8.95652V7.04148C2.50977 6.71011 2.77847 6.44141 3.10984 6.44141H5.02488C5.35625 6.44141 5.62496 6.71011 5.62496 7.04148V8.95652C5.62496 9.28789 5.35625 9.5566 5.02488 9.5566Z" fill="#9E5FC4"/>
    <path d="M12.0737 4.58394H10.1587C9.8273 4.58394 9.55859 4.31524 9.55859 3.98387V2.06882C9.55859 1.73745 9.8273 1.46875 10.1587 1.46875H12.0737C12.4051 1.46875 12.6738 1.73745 12.6738 2.06882V3.98387C12.6736 4.31541 12.4051 4.58394 12.0737 4.58394Z" fill="#9E5FC4"/>
  </symbol>
  <symbol viewBox="0 0 20 20" fill="none" xmlns="http://www.w3.org/2000/svg" id="icon-close">
    <path fill-rule="evenodd" clip-rule="evenodd" d="M16.296 17.8213L2.15387 3.67914L3.09668 2.73633L17.2388 16.8785L16.296 17.8213Z" fill="#242424"/>
    <path fill-rule="evenodd" clip-rule="evenodd" d="M16.9629 3.67958L2.82074 17.8217L1.87793 16.8789L16.0201 2.73677L16.9629 3.67958Z" fill="#242424"/>
  </symbol>
  
</svg>
