<svg>
  <symbol id="icon-burger" viewBox="0 0 36 14" fill="none" xmlns="http://www.w3.org/2000/svg">
    <path fill-rule="evenodd" clip-rule="evenodd" d="M0 0.8C0 0.358172 0.447715 0 1 0H35C35.5523 0 36 0.358172 36 0.8C36 1.24183 35.5523 1.6 35 1.6H1C0.447715 1.6 0 1.24183 0 0.8Z" fill="white"/>
    <path fill-rule="evenodd" clip-rule="evenodd" d="M0 12.4C0 11.9581 0.447715 11.6 1 11.6H35C35.5523 11.6 36 11.9581 36 12.4C36 12.8418 35.5523 13.2 35 13.2H1C0.447715 13.2 0 12.8418 0 12.4Z" fill="white"/>
  </symbol>
  <symbol id="icon-favorites" viewBox="0 0 22 20" fill="currentColor" xmlns="http://www.w3.org/2000/svg">
    <path d="M11 20C10.6868 20 10.3848 19.8841 10.1495 19.6734C9.26077 18.8794 8.40392 18.1331 7.64793 17.4749L7.64407 17.4714C5.42766 15.5415 3.5137 13.8747 2.18201 12.2329C0.693375 10.3974 0 8.65709 0 6.75591C0 4.90876 0.619858 3.20464 1.74527 1.95726C2.88411 0.695126 4.44676 0 6.14587 0C7.4158 0 8.57881 0.410249 9.60251 1.21926C10.1191 1.62762 10.5874 2.1274 11 2.71036C11.4127 2.1274 11.8809 1.62762 12.3977 1.21926C13.4214 0.410249 14.5844 0 15.8543 0C17.5532 0 19.1161 0.695126 20.2549 1.95726C21.3803 3.20464 22 4.90876 22 6.75591C22 8.65709 21.3068 10.3974 19.8182 12.2327C18.4865 13.8747 16.5727 15.5413 14.3566 17.4711C13.5993 18.1304 12.7411 18.8778 11.8503 19.6738C11.6152 19.8841 11.313 20 11 20ZM6.14587 1.31685C4.81099 1.31685 3.5847 1.86121 2.6926 2.84979C1.78723 3.85329 1.28856 5.24046 1.28856 6.75591C1.28856 8.35489 1.87015 9.78493 3.17415 11.3927C4.43426 12.9464 6.30845 14.5785 8.4785 16.4682L8.47978 16.4693L8.48381 16.4727C9.24265 17.1336 10.1029 17.8827 10.9982 18.6826C11.8988 17.8812 12.7604 17.1308 13.5207 16.469C13.5227 16.4673 13.5246 16.4656 13.5266 16.4638C15.6945 14.5758 17.5668 12.9453 18.826 11.3927C20.1299 9.78493 20.7114 8.35489 20.7114 6.75591C20.7114 5.24046 20.2128 3.85329 19.3074 2.84979C18.4155 1.86121 17.189 1.31685 15.8543 1.31685C14.8764 1.31685 13.9786 1.63448 13.1859 2.26083C12.4794 2.81926 11.9873 3.52519 11.6987 4.01914C11.5504 4.27315 11.2892 4.42476 11 4.42476C10.7108 4.42476 10.4496 4.27315 10.3013 4.01914C10.0129 3.52519 9.52077 2.81926 8.81413 2.26083C8.02139 1.63448 7.12358 1.31685 6.14587 1.31685Z" fill="white"/>
    <path d="M6.14587 1.31685C4.81099 1.31685 3.5847 1.86121 2.6926 2.84979C1.78723 3.85329 1.28856 5.24046 1.28856 6.75591C1.28856 8.35489 1.87015 9.78493 3.17415 11.3927C4.43426 12.9464 6.30845 14.5785 8.4785 16.4682L8.47978 16.4693L8.48381 16.4727C9.24265 17.1336 10.1029 17.8827 10.9982 18.6826C11.8988 17.8812 12.7604 17.1308 13.5207 16.469L13.5266 16.4638C15.6945 14.5758 17.5668 12.9453 18.826 11.3927C20.1299 9.78493 20.7114 8.35489 20.7114 6.75591C20.7114 5.24046 20.2128 3.85329 19.3074 2.84979C18.4155 1.86121 17.189 1.31685 15.8543 1.31685C14.8764 1.31685 13.9786 1.63448 13.1859 2.26083C12.4794 2.81926 11.9873 3.52519 11.6987 4.01914C11.5504 4.27315 11.2892 4.42476 11 4.42476C10.7108 4.42476 10.4496 4.27315 10.3013 4.01914C10.0129 3.52519 9.52077 2.81926 8.81413 2.26083C8.02139 1.63448 7.12358 1.31685 6.14587 1.31685Z" fill="none"/>
  </symbol>
  <symbol viewbox="0 0 20 20" fill="none" xmlns="http://www.w3.org/2000/svg" id="icon-flag-cu">
    <g id="flag-cu-svgrepo-com" clip-path="url(#clip0_1838_713)">
    <g id="Clip path group">
    <mask id="mask0_1838_713" style="mask-type:luminance" maskunits="userSpaceOnUse" x="0" y="2" width="20" height="16">
    <g id="clip0_503_4774">
    <path id="Vector" d="M18.5714 2.85715H1.42857C0.639593 2.85715 0 3.49674 0 4.28572V15.7143C0 16.5033 0.639593 17.1429 1.42857 17.1429H18.5714C19.3604 17.1429 20 16.5033 20 15.7143V4.28572C20 3.49674 19.3604 2.85715 18.5714 2.85715Z" fill="white"></path>
    </g>
    </mask>
    <g mask="url(#mask0_1838_713)">
    <g id="Group">
    <path id="Vector_2" d="M18.5713 3.03571H1.42847C0.738111 3.03571 0.178467 3.59535 0.178467 4.28571V15.7143C0.178467 16.4046 0.738111 16.9643 1.42847 16.9643H18.5713C19.2617 16.9643 19.8213 16.4046 19.8213 15.7143V4.28571C19.8213 3.59535 19.2617 3.03571 18.5713 3.03571Z" fill="white" stroke="#F5F5F5" stroke-width="14.2857"></path>
    <g id="Mask group">
    <mask id="mask1_1838_713" style="mask-type:alpha" maskunits="userSpaceOnUse" x="-7" y="-5" width="34" height="30">
    <g id="Group_2">
    <path id="Vector_3" d="M18.5713 3.03571H1.42847C0.738111 3.03571 0.178467 3.59535 0.178467 4.28571V15.7143C0.178467 16.4046 0.738111 16.9643 1.42847 16.9643H18.5713C19.2617 16.9643 19.8213 16.4046 19.8213 15.7143V4.28571C19.8213 3.59535 19.2617 3.03571 18.5713 3.03571Z" fill="white" stroke="white" stroke-width="14.2857"></path>
    </g>
    </mask>
    <g mask="url(#mask1_1838_713)">
    <g id="Group_3">
    <path id="Vector_4" fill-rule="evenodd" clip-rule="evenodd" d="M0 5.71429H20V2.85715H0V5.71429Z" fill="#0B389F"></path>
    <path id="Vector_5" fill-rule="evenodd" clip-rule="evenodd" d="M0 11.4286H20V8.57144H0V11.4286Z" fill="#0B389F"></path>
    <path id="Vector_6" fill-rule="evenodd" clip-rule="evenodd" d="M0 17.1428H20V14.2857H0V17.1428Z" fill="#0B389F"></path>
    <path id="Vector_7" fill-rule="evenodd" clip-rule="evenodd" d="M0 2.85715L9.52379 10L0 17.1429V2.85715Z" fill="#E12A43"></path>
    <path id="Vector_8" fill-rule="evenodd" clip-rule="evenodd" d="M3.33326 10.7305L2.21367 11.541L2.63852 10.2257L1.52173 9.4114L2.90389 9.40903L3.33326 8.09525L3.76264 9.40903L5.1448 9.4114L4.028 10.2257L4.45285 11.541L3.33326 10.7305Z" fill="white"></path>
    </g>
    </g>
    </g>
    </g>
    </g>
    </g>
    </g>
    <defs>
    <clippath id="clip0_1838_713">
    <rect width="20" height="20" fill="white"></rect>
    </clippath>
    </defs>
  </symbol>
  <symbol viewbox="0 0 20 20" fill="none" xmlns="http://www.w3.org/2000/svg" id="icon-flag-do">
    <g clip-path="url(#clip0_1838_728)">
    <mask id="mask0_1838_728" style="mask-type:luminance" maskunits="userSpaceOnUse" x="0" y="2" width="20" height="16">
    <path d="M18.5714 2.85715H1.42857C0.639593 2.85715 0 3.49674 0 4.28572V15.7143C0 16.5033 0.639593 17.1429 1.42857 17.1429H18.5714C19.3604 17.1429 20 16.5033 20 15.7143V4.28572C20 3.49674 19.3604 2.85715 18.5714 2.85715Z" fill="white"></path>
    </mask>
    <g mask="url(#mask0_1838_728)">
    <path d="M18.5713 3.03571H1.42847C0.738111 3.03571 0.178467 3.59535 0.178467 4.28571V15.7143C0.178467 16.4046 0.738111 16.9643 1.42847 16.9643H18.5713C19.2617 16.9643 19.8213 16.4046 19.8213 15.7143V4.28571C19.8213 3.59535 19.2617 3.03571 18.5713 3.03571Z" fill="white" stroke="#F5F5F5" stroke-width="14.2857"></path>
    <mask id="mask1_1838_728" style="mask-type:alpha" maskunits="userSpaceOnUse" x="-7" y="-5" width="34" height="30">
    <path d="M18.5713 3.03571H1.42847C0.738111 3.03571 0.178467 3.59535 0.178467 4.28571V15.7143C0.178467 16.4046 0.738111 16.9643 1.42847 16.9643H18.5713C19.2617 16.9643 19.8213 16.4046 19.8213 15.7143V4.28571C19.8213 3.59535 19.2617 3.03571 18.5713 3.03571Z" fill="white" stroke="white" stroke-width="14.2857"></path>
    </mask>
    <g mask="url(#mask1_1838_728)">
    <path fill-rule="evenodd" clip-rule="evenodd" d="M0 8.57143H8.57143V2.85715H0V8.57143Z" fill="#083D7A"></path>
    <path fill-rule="evenodd" clip-rule="evenodd" d="M11.4285 17.1429H19.9999V11.4286H11.4285V17.1429Z" fill="#083D7A"></path>
    <path fill-rule="evenodd" clip-rule="evenodd" d="M0 17.1429H8.57143V11.4286H0V17.1429Z" fill="#DF1E35"></path>
    <path fill-rule="evenodd" clip-rule="evenodd" d="M11.4285 8.57143H19.9999V2.85715H11.4285V8.57143Z" fill="#DF1E35"></path>
    <mask id="mask2_1838_728" style="mask-type:luminance" maskunits="userSpaceOnUse" x="8" y="8" width="4" height="4">
    <path fill-rule="evenodd" clip-rule="evenodd" d="M8.98993 8.98987C8.43207 9.54776 8.43207 10.4523 8.98993 11.0102C9.54785 11.5681 10.4524 11.5681 11.0103 11.0102C11.5681 10.4523 11.5681 9.54776 11.0103 8.98987" fill="white"></path>
    </mask>
    <g mask="url(#mask2_1838_728)">
    <path d="M8.65311 8.65314C7.90925 9.39699 7.90925 10.603 8.65311 11.3469L9.32654 10.6734C8.95461 10.3015 8.95461 9.6985 9.32654 9.32657L8.65311 8.65314ZM8.65311 11.3469C9.39696 12.0907 10.603 12.0907 11.3469 11.3469L10.6735 10.6734C10.3015 11.0454 9.69847 11.0454 9.32654 10.6734L8.65311 11.3469ZM11.3469 11.3469C12.0908 10.603 12.0908 9.39699 11.3469 8.65314L10.6735 9.32657C11.0454 9.6985 11.0454 10.3015 10.6735 10.6734L11.3469 11.3469Z" fill="#0F6D1A"></path>
    </g>
    <path fill-rule="evenodd" clip-rule="evenodd" d="M10.0001 10.4762C10.2631 10.4762 10.4763 10.263 10.4763 9.99999C10.4763 9.737 10.2631 9.5238 10.0001 9.5238C9.73714 9.5238 9.52393 9.737 9.52393 9.99999C9.52393 10.263 9.73714 10.4762 10.0001 10.4762Z" fill="#042F60"></path>
    </g>
    </g>
    </g>
    <defs>
    <clippath id="clip0_1838_728">
    <rect width="20" height="20" fill="white"></rect>
    </clippath>
    </defs>
  </symbol>
  <symbol viewbox="0 0 20 20" fill="none" xmlns="http://www.w3.org/2000/svg" id="icon-flag-it">
    <g id="flag-it-svgrepo-com" clip-path="url(#clip0_1838_747)">
    <g id="Clip path group">
    <mask id="mask0_1838_747" style="mask-type:luminance" maskunits="userSpaceOnUse" x="0" y="2" width="20" height="16">
    <g id="clip0_503_4138">
    <path id="Vector" d="M18.5714 2.85715H1.42857C0.639593 2.85715 0 3.49674 0 4.28572V15.7143C0 16.5033 0.639593 17.1429 1.42857 17.1429H18.5714C19.3604 17.1429 20 16.5033 20 15.7143V4.28572C20 3.49674 19.3604 2.85715 18.5714 2.85715Z" fill="white"></path>
    </g>
    </mask>
    <g mask="url(#mask0_1838_747)">
    <g id="Group">
    <path id="Vector_2" d="M18.5713 3.03571H1.42847C0.738111 3.03571 0.178467 3.59535 0.178467 4.28571V15.7143C0.178467 16.4046 0.738111 16.9643 1.42847 16.9643H18.5713C19.2617 16.9643 19.8213 16.4046 19.8213 15.7143V4.28571C19.8213 3.59535 19.2617 3.03571 18.5713 3.03571Z" fill="white" stroke="#F5F5F5" stroke-width="14.2857"></path>
    <g id="Mask group">
    <mask id="mask1_1838_747" style="mask-type:alpha" maskunits="userSpaceOnUse" x="-7" y="-5" width="34" height="30">
    <g id="Group_2">
    <path id="Vector_3" d="M18.5713 3.03571H1.42847C0.738111 3.03571 0.178467 3.59535 0.178467 4.28571V15.7143C0.178467 16.4046 0.738111 16.9643 1.42847 16.9643H18.5713C19.2617 16.9643 19.8213 16.4046 19.8213 15.7143V4.28571C19.8213 3.59535 19.2617 3.03571 18.5713 3.03571Z" fill="white" stroke="white" stroke-width="14.2857"></path>
    </g>
    </mask>
    <g mask="url(#mask1_1838_747)">
    <g id="Group_3">
    <path id="Vector_4" d="M19.9999 2.85715H13.3333V17.1429H19.9999V2.85715Z" fill="#E43D4C"></path>
    <path id="Vector_5" fill-rule="evenodd" clip-rule="evenodd" d="M0 17.1429H6.66666V2.85715H0V17.1429Z" fill="#1BB65D"></path>
    </g>
    </g>
    </g>
    </g>
    </g>
    </g>
    </g>
    <defs>
    <clippath id="clip0_1838_747">
    <rect width="20" height="20" fill="white"></rect>
    </clippath>
    </defs>
  </symbol>
  <symbol viewbox="0 0 20 20" fill="none" xmlns="http://www.w3.org/2000/svg" id="icon-flag-my">
    <g id="flag-my-svgrepo-com" clip-path="url(#clip0_1838_770)">
    <g id="Clip path group">
    <mask id="mask0_1838_770" style="mask-type:luminance" maskunits="userSpaceOnUse" x="0" y="2" width="20" height="16">
    <g id="clip0_503_3033">
    <path id="Vector" d="M18.5714 2.85715H1.42857C0.639593 2.85715 0 3.49674 0 4.28572V15.7143C0 16.5033 0.639593 17.1429 1.42857 17.1429H18.5714C19.3604 17.1429 20 16.5033 20 15.7143V4.28572C20 3.49674 19.3604 2.85715 18.5714 2.85715Z" fill="white"></path>
    </g>
    </mask>
    <g mask="url(#mask0_1838_770)">
    <g id="Group">
    <path id="Vector_2" d="M18.5714 2.85715H1.42857C0.639593 2.85715 0 3.49674 0 4.28572V15.7143C0 16.5033 0.639593 17.1429 1.42857 17.1429H18.5714C19.3604 17.1429 20 16.5033 20 15.7143V4.28572C20 3.49674 19.3604 2.85715 18.5714 2.85715Z" fill="white"></path>
    <g id="Mask group">
    <mask id="mask1_1838_770" style="mask-type:alpha" maskunits="userSpaceOnUse" x="0" y="2" width="20" height="16">
    <g id="Group_2">
    <path id="Vector_3" d="M18.5714 2.85715H1.42857C0.639593 2.85715 0 3.49674 0 4.28572V15.7143C0 16.5033 0.639593 17.1429 1.42857 17.1429H18.5714C19.3604 17.1429 20 16.5033 20 15.7143V4.28572C20 3.49674 19.3604 2.85715 18.5714 2.85715Z" fill="white"></path>
    </g>
    </mask>
    <g mask="url(#mask1_1838_770)">
    <g id="Group_3">
    <path id="Vector_4" fill-rule="evenodd" clip-rule="evenodd" d="M20 2.85715H9.52379V3.80953H20V2.85715ZM20 4.76191H9.52379V5.71429H20V4.76191ZM9.52379 6.66667H20V7.61905H9.52379V6.66667ZM20 8.57143H9.52379V9.52381H20V8.57143ZM0 10.4762H20V11.4286H0V10.4762ZM20 12.3809H0V13.3334H20V12.3809ZM0 14.2857H20V15.2381H0V14.2857ZM20 16.1905H0V17.1429H20V16.1905Z" fill="#E1244A"></path>
    <path id="Vector_5" d="M11.4286 2.85715H0V10.4762H11.4286V2.85715Z" fill="#0C3F8E"></path>
    <path id="Vector_6" fill-rule="evenodd" clip-rule="evenodd" d="M4.76193 9.52383C5.43701 9.52383 6.0574 9.2897 6.54634 8.89822C6.28733 8.99483 6.00699 9.04764 5.71431 9.04764C4.39934 9.04764 3.33336 7.98165 3.33336 6.66668C3.33336 5.35172 4.39934 4.28573 5.71431 4.28573C6.00699 4.28573 6.28733 4.33854 6.54634 4.43515C6.0574 4.04367 5.43701 3.80954 4.76193 3.80954C3.18397 3.80954 1.90479 5.08873 1.90479 6.66668C1.90479 8.24464 3.18397 9.52383 4.76193 9.52383ZM6.79262 8.38282L7.6191 7.44764L8.44553 8.38282L8.22967 7.1536L9.4761 7.09053L8.38046 6.4929L9.10824 5.47908L7.95788 5.96307L7.6191 4.76193L7.28024 5.96307L6.12986 5.47908L6.8577 6.4929L5.76206 7.09053L7.00849 7.1536L6.79262 8.38282Z" fill="#FFD34F"></path>
    </g>
    </g>
    </g>
    </g>
    </g>
    </g>
    </g>
    <defs>
    <clippath id="clip0_1838_770">
    <rect width="20" height="20" fill="white"></rect>
    </clippath>
    </defs>
  </symbol>
  <symbol viewbox="0 0 20 20" fill="none" xmlns="http://www.w3.org/2000/svg" id="icon-flag-ru">
    <g id="flag-ru-svgrepo-com" clip-path="url(#clip0_1838_792)">
    <g id="Clip path group">
    <mask id="mask0_1838_792" style="mask-type:luminance" maskunits="userSpaceOnUse" x="0" y="2" width="20" height="16">
    <g id="clip0_503_2726">
    <path id="Vector" d="M18.5714 2.85715H1.42857C0.639593 2.85715 0 3.49674 0 4.28572V15.7143C0 16.5033 0.639593 17.1429 1.42857 17.1429H18.5714C19.3604 17.1429 20 16.5033 20 15.7143V4.28572C20 3.49674 19.3604 2.85715 18.5714 2.85715Z" fill="white"></path>
    </g>
    </mask>
    <g mask="url(#mask0_1838_792)">
    <g id="Group">
    <path id="Vector_2" d="M18.5713 3.03572H1.42847C0.738111 3.03572 0.178467 3.59536 0.178467 4.28572V15.7143C0.178467 16.4046 0.738111 16.9643 1.42847 16.9643H18.5713C19.2617 16.9643 19.8213 16.4046 19.8213 15.7143V4.28572C19.8213 3.59536 19.2617 3.03572 18.5713 3.03572Z" fill="white" stroke="#F5F5F5" stroke-width="14.2857"></path>
    <g id="Mask group">
    <mask id="mask1_1838_792" style="mask-type:alpha" maskunits="userSpaceOnUse" x="-7" y="-5" width="34" height="30">
    <g id="Group_2">
    <path id="Vector_3" d="M18.5713 3.03572H1.42847C0.738111 3.03572 0.178467 3.59536 0.178467 4.28572V15.7143C0.178467 16.4046 0.738111 16.9643 1.42847 16.9643H18.5713C19.2617 16.9643 19.8213 16.4046 19.8213 15.7143V4.28572C19.8213 3.59536 19.2617 3.03572 18.5713 3.03572Z" fill="white" stroke="white" stroke-width="14.2857"></path>
    </g>
    </mask>
    <g mask="url(#mask1_1838_792)">
    <g id="Group_3">
    <path id="Vector_4" fill-rule="evenodd" clip-rule="evenodd" d="M0 12.3809H20V7.61905H0V12.3809Z" fill="#0C47B7"></path>
    <path id="Vector_5" fill-rule="evenodd" clip-rule="evenodd" d="M0 17.1428H20V12.3809H0V17.1428Z" fill="#E53B35"></path>
    </g>
    </g>
    </g>
    </g>
    </g>
    </g>
    </g>
    <defs>
    <clippath id="clip0_1838_792">
    <rect width="20" height="20" fill="white"></rect>
    </clippath>
    </defs>
  </symbol>
  <symbol viewbox="0 0 20 20" fill="none" xmlns="http://www.w3.org/2000/svg" id="icon-flag-th">
    <g id="flag-th-svgrepo-com" clip-path="url(#clip0_1838_817)">
    <g id="Clip path group">
    <mask id="mask0_1838_817" style="mask-type:luminance" maskunits="userSpaceOnUse" x="0" y="2" width="20" height="16">
    <g id="clip0_503_2920">
    <path id="Vector" d="M18.5714 2.85715H1.42857C0.639593 2.85715 0 3.49674 0 4.28572V15.7143C0 16.5033 0.639593 17.1429 1.42857 17.1429H18.5714C19.3604 17.1429 20 16.5033 20 15.7143V4.28572C20 3.49674 19.3604 2.85715 18.5714 2.85715Z" fill="white"></path>
    </g>
    </mask>
    <g mask="url(#mask0_1838_817)">
    <g id="Group">
    <path id="Vector_2" d="M18.5713 3.03572H1.42847C0.738111 3.03572 0.178467 3.59536 0.178467 4.28572V15.7143C0.178467 16.4046 0.738111 16.9643 1.42847 16.9643H18.5713C19.2617 16.9643 19.8213 16.4046 19.8213 15.7143V4.28572C19.8213 3.59536 19.2617 3.03572 18.5713 3.03572Z" fill="white" stroke="#F5F5F5" stroke-width="14.2857"></path>
    <g id="Mask group">
    <mask id="mask1_1838_817" style="mask-type:alpha" maskunits="userSpaceOnUse" x="-7" y="-5" width="34" height="30">
    <g id="Group_2">
    <path id="Vector_3" d="M18.5713 3.03572H1.42847C0.738111 3.03572 0.178467 3.59536 0.178467 4.28572V15.7143C0.178467 16.4046 0.738111 16.9643 1.42847 16.9643H18.5713C19.2617 16.9643 19.8213 16.4046 19.8213 15.7143V4.28572C19.8213 3.59536 19.2617 3.03572 18.5713 3.03572Z" fill="white" stroke="white" stroke-width="14.2857"></path>
    </g>
    </mask>
    <g mask="url(#mask1_1838_817)">
    <g id="Group_3">
    <path id="Vector_4" fill-rule="evenodd" clip-rule="evenodd" d="M0 5.71429H20V2.85715H0V5.71429Z" fill="#F12532"></path>
    <path id="Vector_5" fill-rule="evenodd" clip-rule="evenodd" d="M0 17.1429H20V14.2857H0V17.1429Z" fill="#F12532"></path>
    <path id="Vector_6" fill-rule="evenodd" clip-rule="evenodd" d="M0 12.3809H20V7.61905H0V12.3809Z" fill="#322B6C"></path>
    </g>
    </g>
    </g>
    </g>
    </g>
    </g>
    </g>
    <defs>
    <clippath id="clip0_1838_817">
    <rect width="20" height="20" fill="white"></rect>
    </clippath>
    </defs>
  </symbol>
  <symbol viewbox="0 0 20 20" fill="none" xmlns="http://www.w3.org/2000/svg" id="icon-flag-tr">
    <g id="flag-tr-svgrepo-com" clip-path="url(#clip0_1838_804)">
    <g id="Clip path group">
    <mask id="mask0_1838_804" style="mask-type:luminance" maskunits="userSpaceOnUse" x="0" y="2" width="20" height="16">
    <g id="clip0_503_4206">
    <path id="Vector" d="M18.5714 2.85715H1.42857C0.639593 2.85715 0 3.49674 0 4.28572V15.7143C0 16.5033 0.639593 17.1429 1.42857 17.1429H18.5714C19.3604 17.1429 20 16.5033 20 15.7143V4.28572C20 3.49674 19.3604 2.85715 18.5714 2.85715Z" fill="white"></path>
    </g>
    </mask>
    <g mask="url(#mask0_1838_804)">
    <g id="Group">
    <path id="Vector_2" d="M18.5714 2.85715H1.42857C0.639593 2.85715 0 3.49674 0 4.28572V15.7143C0 16.5033 0.639593 17.1429 1.42857 17.1429H18.5714C19.3604 17.1429 20 16.5033 20 15.7143V4.28572C20 3.49674 19.3604 2.85715 18.5714 2.85715Z" fill="white"></path>
    <g id="Mask group">
    <mask id="mask1_1838_804" style="mask-type:alpha" maskunits="userSpaceOnUse" x="0" y="2" width="20" height="16">
    <g id="Group_2">
    <path id="Vector_3" d="M18.5714 2.85715H1.42857C0.639593 2.85715 0 3.49674 0 4.28572V15.7143C0 16.5033 0.639593 17.1429 1.42857 17.1429H18.5714C19.3604 17.1429 20 16.5033 20 15.7143V4.28572C20 3.49674 19.3604 2.85715 18.5714 2.85715Z" fill="white"></path>
    </g>
    </mask>
    <g mask="url(#mask1_1838_804)">
    <g id="Group_3">
    <path id="Vector_4" d="M20 2.85715H0V17.1429H20V2.85715Z" fill="#E92434"></path>
    <path id="Vector_5" fill-rule="evenodd" clip-rule="evenodd" d="M13.5863 10.5489L12.7114 11.6095L12.7711 10.2359L11.4919 9.7316L12.8167 9.36379L12.9011 7.99142L13.6603 9.13777L14.9915 8.79387L14.1359 9.87016L14.8744 11.03L13.5863 10.5489Z" fill="white"></path>
    <path id="Vector_6" fill-rule="evenodd" clip-rule="evenodd" d="M12.4305 12.6313C11.6463 13.6382 10.4225 14.2857 9.04743 14.2857C6.6805 14.2857 4.76172 12.3669 4.76172 10C4.76172 7.63307 6.6805 5.71429 9.04743 5.71429C10.4225 5.71429 11.6463 6.36186 12.4305 7.36866C11.8253 6.92872 11.0644 6.66666 10.2378 6.66666C8.26536 6.66666 6.66637 8.15904 6.66637 9.99999C6.66637 11.8409 8.26536 13.3333 10.2378 13.3333C11.0644 13.3333 11.8254 13.0712 12.4305 12.6313Z" fill="white"></path>
    </g>
    </g>
    </g>
    </g>
    </g>
    </g>
    </g>
    <defs>
    <clippath id="clip0_1838_804">
    <rect width="20" height="20" fill="white"></rect>
    </clippath>
    </defs>
  </symbol>
  <symbol viewbox="0 0 20 20" fill="none" xmlns="http://www.w3.org/2000/svg" id="icon-flag">
    <path d="M12.6659 5.96666L5.99927 3.08332V2.29166C5.99927 1.94999 5.71593 1.66666 5.37427 1.66666C5.0326 1.66666 4.74927 1.94999 4.74927 2.29166V17.7083C4.74927 18.05 5.0326 18.3333 5.37427 18.3333C5.71593 18.3333 5.99927 18.05 5.99927 17.7083V14.4083L12.8493 11.025C12.8493 11.025 12.8493 11.025 12.8576 11.025C14.2409 10.3083 14.9826 9.38332 14.9409 8.40832C14.8992 7.43332 14.0909 6.56666 12.6659 5.96666Z" fill="#9E5FC4"></path>
  </symbol>
  <symbol viewbox="0 0 28 28" fill="none" xmlns="http://www.w3.org/2000/svg" id="icon-pin">
    <path d="M14.4025 3.85004C12.1886 3.85004 10.0654 4.7295 8.4999 6.29496C6.93444 7.86042 6.05498 9.98363 6.05498 12.1975C6.04811 14.2748 6.82285 16.2788 8.22532 17.8112L14.006 24.5362C14.0549 24.5934 14.1157 24.6394 14.1842 24.6709C14.2526 24.7025 14.3271 24.7188 14.4025 24.7188C14.4778 24.7188 14.5523 24.7025 14.6207 24.6709C14.6892 24.6394 14.75 24.5934 14.799 24.5362L20.5796 17.8112C21.9821 16.2788 22.7568 14.2748 22.75 12.1975C22.75 9.98363 21.8705 7.86042 20.305 6.29496C18.7396 4.7295 16.6164 3.85004 14.4025 3.85004ZM19.7866 17.133L14.4025 23.3988L9.01834 17.1382C8.06041 16.0932 7.42728 14.7921 7.19615 13.3934C6.96502 11.9948 7.14589 10.5592 7.71669 9.26156C8.28749 7.96396 9.22356 6.8605 10.4107 6.08577C11.5979 5.31105 12.9849 4.89852 14.4025 4.89852C15.8201 4.89852 17.207 5.31105 18.3942 6.08577C19.5814 6.8605 20.5174 7.96396 21.0882 9.26156C21.659 10.5592 21.8399 11.9948 21.6088 13.3934C21.3777 14.7921 20.7445 16.0932 19.7866 17.1382V17.133Z" fill="white"></path>
    <path d="M14.4025 8.54547C13.6802 8.54547 12.9741 8.75966 12.3736 9.16095C11.773 9.56224 11.3049 10.1326 11.0285 10.7999C10.7521 11.4672 10.6797 12.2015 10.8207 12.91C10.9616 13.6184 11.3094 14.2691 11.8201 14.7799C12.3309 15.2906 12.9816 15.6384 13.69 15.7794C14.3985 15.9203 15.1328 15.8479 15.8001 15.5715C16.4674 15.2951 17.0378 14.827 17.4391 14.2265C17.8404 13.6259 18.0545 12.9198 18.0545 12.1975C18.0545 11.2289 17.6698 10.3 16.9849 9.61512C16.3 8.93024 15.3711 8.54547 14.4025 8.54547ZM14.4025 14.8061C13.8866 14.8061 13.3822 14.6531 12.9533 14.3665C12.5243 14.0798 12.1899 13.6724 11.9925 13.1958C11.7951 12.7191 11.7434 12.1946 11.844 11.6886C11.9447 11.1826 12.1931 10.7178 12.558 10.3529C12.9228 9.98813 13.3876 9.73968 13.8936 9.63903C14.3996 9.53838 14.9241 9.59004 15.4008 9.78747C15.8774 9.98491 16.2848 10.3193 16.5715 10.7482C16.8581 11.1772 17.0111 11.6816 17.0111 12.1975C17.0111 12.8893 16.7363 13.5528 16.2471 14.042C15.7579 14.5313 15.0944 14.8061 14.4025 14.8061Z" fill="white"></path>
  </symbol>
  <symbol viewbox="0 0 20 20" fill="none" xmlns="http://www.w3.org/2000/svg" id="icon-vk">
    <path fill-rule="evenodd" clip-rule="evenodd" d="M18.7447 4.95695C18.8722 4.50164 18.7447 4.16699 18.1382 4.16699H16.1325C15.6225 4.16699 15.3875 4.45605 15.26 4.77489C15.26 4.77489 14.24 7.43872 12.795 9.16908C12.3276 9.66997 12.1151 9.82916 11.8601 9.82916C11.7326 9.82916 11.5481 9.66998 11.5481 9.21467V4.95695C11.5481 4.41046 11.4001 4.16699 10.975 4.16699H7.82325C7.50463 4.16699 7.31295 4.42059 7.31295 4.66098C7.31295 5.17908 8.03528 5.29851 8.10977 6.75561V9.9205C8.10977 10.6144 7.99287 10.7402 7.73786 10.7402C7.05794 10.7402 5.40411 8.06427 4.42305 5.00254C4.23079 4.40739 4.03796 4.16699 3.52537 4.16699H1.51969C0.946641 4.16699 0.832031 4.45605 0.832031 4.77489C0.832031 5.3441 1.5121 8.16743 3.99814 11.9014C5.65568 14.4512 7.99058 15.8337 10.1154 15.8337C11.3905 15.8337 11.5481 15.5266 11.5481 14.9978V13.0705C11.5481 12.4565 11.6688 12.334 12.0724 12.334C12.3701 12.334 12.88 12.4933 14.0701 13.7228C15.4299 15.1797 15.654 15.8337 16.419 15.8337H18.4247C18.9977 15.8337 19.2843 15.5266 19.1189 14.9207C18.9381 14.3168 18.2889 13.4409 17.4273 12.4023C16.9598 11.8102 16.2586 11.1727 16.0462 10.854C15.7487 10.4441 15.8336 10.2621 16.0462 9.89794C16.0462 9.89794 18.4897 6.20943 18.7447 4.9571V4.95695Z" fill="#9E5FC4"></path>
  </symbol>
  <symbol viewbox="0 0 20 20" fill="none" xmlns="http://www.w3.org/2000/svg" id="icon-youtube">
    <path d="M18.9906 5.49952C18.7745 4.69629 18.1412 4.06315 17.3381 3.84686C15.8708 3.44531 10.0018 3.44531 10.0018 3.44531C10.0018 3.44531 4.13284 3.44531 2.66557 3.83155C1.87793 4.0477 1.2292 4.69643 1.01305 5.49952C0.626953 6.96664 0.626953 10.0093 0.626953 10.0093C0.626953 10.0093 0.626953 13.0673 1.01305 14.5191C1.22934 15.3222 1.86248 15.9555 2.66571 16.1718C4.14829 16.5733 10.0019 16.5733 10.0019 16.5733C10.0019 16.5733 15.8708 16.5733 17.3381 16.1871C18.1413 15.971 18.7745 15.3377 18.9908 14.5346C19.3769 13.0673 19.3769 10.0248 19.3769 10.0248C19.3769 10.0248 19.3923 6.96664 18.9906 5.49952Z" fill="#9E5FC4"></path>
    <path d="M8.13477 12.82L13.0152 10.0091L8.13477 7.19812V12.82Z" fill="white"></path>
  </symbol>
  <symbol viewBox="0 0 16 16" fill="none" xmlns="http://www.w3.org/2000/svg" id="icon-filter">
    <path d="M15.1772 13.6719H9.68848C9.3018 13.6719 8.98828 13.3584 8.98828 12.9717C8.98828 12.585 9.3018 12.2715 9.68848 12.2715H15.1772C15.5639 12.2715 15.8774 12.585 15.8774 12.9717C15.8774 13.3584 15.5639 13.6719 15.1772 13.6719Z" fill="#9E5FC4"/>
    <path d="M9.55772 3.72657H0.823247C0.436561 3.72657 0.123047 3.41306 0.123047 3.02637C0.123047 2.63969 0.436561 2.32617 0.823247 2.32617H9.55772C9.9444 2.32617 10.2579 2.63969 10.2579 3.02637C10.2579 3.41306 9.9444 3.72657 9.55772 3.72657Z" fill="#9E5FC4"/>
    <path d="M15.1769 8.69923H5.62403C5.23734 8.69923 4.92383 8.38571 4.92383 7.99903C4.92383 7.61234 5.23734 7.29883 5.62403 7.29883H15.1769C15.5635 7.29883 15.8771 7.61234 15.8771 7.99903C15.8771 8.38571 15.5635 8.69923 15.1769 8.69923Z" fill="#9E5FC4"/>
    <path d="M6.4427 13.6719H0.823247C0.436561 13.6719 0.123047 13.3584 0.123047 12.9717C0.123047 12.585 0.436561 12.2715 0.823247 12.2715H6.4427C6.82939 12.2715 7.1429 12.585 7.1429 12.9717C7.1429 13.3584 6.82939 13.6719 6.4427 13.6719Z" fill="#9E5FC4"/>
    <path d="M2.5095 8.69923H0.823247C0.436561 8.69923 0.123047 8.38571 0.123047 7.99903C0.123047 7.61234 0.436561 7.29883 0.823247 7.29883H2.5095C2.89619 7.29883 3.2097 7.61234 3.2097 7.99903C3.2097 8.38571 2.89619 8.69923 2.5095 8.69923Z" fill="#9E5FC4"/>
    <path d="M15.1783 3.72657H12.7041C12.3174 3.72657 12.0039 3.41306 12.0039 3.02637C12.0039 2.63969 12.3174 2.32617 12.7041 2.32617H15.1783C15.5649 2.32617 15.8785 2.63969 15.8785 3.02637C15.8785 3.41306 15.5649 3.72657 15.1783 3.72657Z" fill="#9E5FC4"/>
    <path d="M8.95848 14.5293H7.04343C6.71206 14.5293 6.44336 14.2606 6.44336 13.9292V12.0141C6.44336 11.6828 6.71206 11.4141 7.04343 11.4141H8.95848C9.28985 11.4141 9.55855 11.6828 9.55855 12.0141V13.9292C9.55855 14.2606 9.28985 14.5293 8.95848 14.5293Z" fill="#9E5FC4"/>
    <path d="M5.02488 9.5566H3.10984C2.77847 9.5566 2.50977 9.28789 2.50977 8.95652V7.04148C2.50977 6.71011 2.77847 6.44141 3.10984 6.44141H5.02488C5.35625 6.44141 5.62496 6.71011 5.62496 7.04148V8.95652C5.62496 9.28789 5.35625 9.5566 5.02488 9.5566Z" fill="#9E5FC4"/>
    <path d="M12.0737 4.58394H10.1587C9.8273 4.58394 9.55859 4.31524 9.55859 3.98387V2.06882C9.55859 1.73745 9.8273 1.46875 10.1587 1.46875H12.0737C12.4051 1.46875 12.6738 1.73745 12.6738 2.06882V3.98387C12.6736 4.31541 12.4051 4.58394 12.0737 4.58394Z" fill="#9E5FC4"/>
  </symbol>
  <symbol viewBox="0 0 20 20" fill="none" xmlns="http://www.w3.org/2000/svg" id="icon-close">
    <path fill-rule="evenodd" clip-rule="evenodd" d="M16.296 17.8213L2.15387 3.67914L3.09668 2.73633L17.2388 16.8785L16.296 17.8213Z" fill="#242424"/>
    <path fill-rule="evenodd" clip-rule="evenodd" d="M16.9629 3.67958L2.82074 17.8217L1.87793 16.8789L16.0201 2.73677L16.9629 3.67958Z" fill="#242424"/>
  </symbol>
  <symbol id="icon-suitcase" viewBox="0 0 71 134" fill="none" xmlns="http://www.w3.org/2000/svg">
    <path d="M56.6957 55.0615L20.6773 45.0349L2.04977 112.185L38.0681 122.211L56.6957 55.0615Z" fill="#FFC727"/>
    <g opacity="0.1">
    <path d="M54.4921 63.0363L18.4737 53.0096L18.3603 53.4184L54.3787 63.445L54.4921 63.0363Z" fill="#020100"/>
    <path d="M52.4803 70.2978L16.4619 60.2712L16.3486 60.6799L52.3669 70.7065L52.4803 70.2978Z" fill="#020100"/>
    <path d="M50.4553 77.5519L14.4369 67.5253L14.3235 67.934L50.3419 77.9606L50.4553 77.5519Z" fill="#020100"/>
    <path d="M48.4452 84.8017L12.4268 74.7751L12.3134 75.1838L48.3318 85.2104L48.4452 84.8017Z" fill="#020100"/>
    <path d="M46.4333 92.0625L10.415 82.0359L10.3016 82.4446L46.32 92.4712L46.4333 92.0625Z" fill="#020100"/>
    <path d="M44.4212 99.3183L8.40285 89.2917L8.28948 89.7004L44.3078 99.727L44.4212 99.3183Z" fill="#020100"/>
    <path d="M42.4094 106.573L6.39104 96.5466L6.27766 96.9553L42.296 106.982L42.4094 106.573Z" fill="#020100"/>
    <path d="M40.3988 113.828L4.38039 103.801L4.26702 104.21L40.2854 114.237L40.3988 113.828Z" fill="#020100"/>
    </g>
    <path d="M40.1063 50.4251L37.3267 49.6519L18.7108 116.805L21.4904 117.578L40.1063 50.4251Z" fill="#263238"/>
    <path d="M40.0705 75.6747L37.0679 74.8389L31.4397 95.1275L34.4423 95.9634L40.0705 75.6747Z" fill="#263238"/>
    <path d="M39.4894 117.18L30.835 114.774L25.9785 118.837L38.0933 122.211L39.4894 117.18Z" fill="#263238"/>
    <path d="M3.46884 107.158L12.1166 109.564L14.1876 115.556L2.07275 112.182L3.46884 107.158Z" fill="#263238"/>
    <path d="M30.2917 126.532L33.4941 127.426L37.2854 121.985L30.3778 120.062L31.5158 123.628L30.2917 126.532Z" fill="#263238"/>
    <path d="M26.8112 127.532C26.1363 129.971 27.5589 132.503 30.0004 133.179C32.4352 133.855 34.9627 132.43 35.6376 129.984C36.3125 127.539 34.89 125.013 32.4485 124.337C30.0136 123.661 27.4861 125.086 26.8112 127.532Z" fill="#37474F"/>
    <path d="M28.8162 128.089C28.4457 129.421 29.2265 130.806 30.5564 131.177C31.8863 131.549 33.2691 130.766 33.6397 129.434C34.0102 128.102 33.2294 126.717 31.8995 126.345C30.5696 125.974 29.1868 126.756 28.8162 128.089Z" fill="#DBDBDB"/>
    <path d="M31.5822 127.286C31.483 127.63 31.4499 127.929 31.5028 127.942C31.5557 127.955 31.6748 127.683 31.7675 127.339C31.8667 126.994 31.8998 126.696 31.8469 126.682C31.7939 126.669 31.6748 126.941 31.5822 127.286Z" fill="#263238"/>
    <path d="M32.5214 127.968C32.2105 128.147 31.9789 128.326 32.0053 128.372C32.0318 128.418 32.3097 128.312 32.6207 128.133C32.9316 127.954 33.1632 127.775 33.1368 127.729C33.1103 127.683 32.8324 127.789 32.5214 127.968Z" fill="#263238"/>
    <path d="M32.7004 129.116C32.3563 129.016 32.0586 128.983 32.0454 129.036C32.0321 129.089 32.3034 129.208 32.6474 129.301C32.9915 129.401 33.2893 129.434 33.3025 129.381C33.3157 129.328 33.0444 129.208 32.7004 129.116Z" fill="#263238"/>
    <path d="M32.0191 130.056C31.8405 129.745 31.6618 129.513 31.6155 129.539C31.5692 129.566 31.6751 129.844 31.8537 130.156C32.0324 130.467 32.211 130.699 32.2573 130.673C32.3036 130.646 32.1978 130.368 32.0191 130.056Z" fill="#263238"/>
    <path d="M30.8675 130.235C30.9667 129.891 30.9998 129.592 30.9469 129.579C30.894 129.566 30.7749 129.838 30.6822 130.182C30.583 130.527 30.5499 130.825 30.6028 130.838C30.6558 130.852 30.7749 130.58 30.8675 130.235Z" fill="#263238"/>
    <path d="M29.9277 129.553C30.2386 129.374 30.4702 129.195 30.4438 129.149C30.4173 129.102 30.1394 129.208 29.8284 129.387C29.5174 129.566 29.2859 129.745 29.3123 129.792C29.3388 129.838 29.6167 129.732 29.9277 129.553Z" fill="#263238"/>
    <path d="M29.7494 128.406C30.0934 128.505 30.3912 128.538 30.4044 128.485C30.4176 128.432 30.1464 128.313 29.8023 128.22C29.4583 128.121 29.1605 128.088 29.1473 128.141C29.1341 128.194 29.4053 128.313 29.7494 128.406Z" fill="#263238"/>
    <path d="M30.4377 127.464C30.6164 127.776 30.795 128.008 30.8413 127.981C30.8876 127.955 30.7818 127.677 30.6031 127.365C30.4245 127.054 30.2458 126.822 30.1995 126.848C30.1532 126.875 30.2591 127.153 30.4377 127.464Z" fill="#263238"/>
    <path d="M6.52543 119.923L3.32967 119.029L2.87975 112.407L9.78737 114.329L6.97536 116.795L6.52543 119.923Z" fill="#263238"/>
    <path d="M8.99361 122.574C8.31872 125.014 5.79122 126.445 3.35635 125.769C0.921481 125.093 -0.507688 122.561 0.167195 120.122C0.842078 117.683 3.36958 116.251 5.80446 116.927C8.23933 117.603 9.66849 120.135 8.99361 122.574Z" fill="#37474F"/>
    <path d="M6.99537 122.018C6.62484 123.35 5.24861 124.132 3.91208 123.761C2.58216 123.39 1.80141 122.011 2.17194 120.672C2.54246 119.34 3.91869 118.558 5.25522 118.929C6.58514 119.3 7.36589 120.679 6.99537 122.018Z" fill="#DBDBDB"/>
    <path d="M5.03714 119.897C4.9379 120.241 4.8188 120.513 4.77249 120.5C4.71956 120.487 4.75925 120.195 4.85188 119.844C4.95113 119.499 5.07023 119.227 5.11654 119.241C5.16948 119.254 5.12978 119.545 5.03714 119.897Z" fill="#263238"/>
    <path d="M3.87954 119.996C4.05819 120.307 4.16405 120.585 4.11774 120.612C4.07142 120.638 3.89277 120.407 3.71413 120.095C3.53548 119.783 3.42962 119.505 3.47593 119.479C3.52225 119.452 3.7009 119.684 3.87954 119.996Z" fill="#263238"/>
    <path d="M3.13179 120.89C3.47585 120.99 3.74713 121.109 3.7339 121.155C3.72066 121.208 3.42953 121.169 3.07886 121.076C2.7348 120.976 2.46353 120.857 2.47676 120.811C2.48999 120.758 2.78112 120.798 3.13179 120.89Z" fill="#263238"/>
    <path d="M3.23714 122.05C3.54811 121.871 3.82601 121.765 3.85247 121.812C3.87894 121.858 3.64736 122.037 3.33638 122.216C3.02541 122.395 2.74751 122.501 2.72105 122.455C2.69458 122.408 2.92616 122.229 3.23714 122.05Z" fill="#263238"/>
    <path d="M4.12378 122.793C4.22302 122.448 4.34212 122.176 4.38844 122.19C4.44137 122.203 4.40167 122.495 4.30904 122.846C4.20979 123.19 4.09069 123.462 4.04438 123.449C3.99144 123.436 4.03114 123.144 4.12378 122.793Z" fill="#263238"/>
    <path d="M5.28215 122.694C5.10351 122.382 4.99764 122.104 5.04396 122.077C5.09027 122.051 5.26892 122.283 5.44757 122.594C5.62621 122.906 5.73208 123.184 5.68576 123.211C5.63944 123.237 5.4608 123.005 5.28215 122.694Z" fill="#263238"/>
    <path d="M6.02992 121.798C5.68587 121.699 5.41459 121.58 5.42782 121.533C5.44106 121.48 5.73218 121.52 6.08286 121.613C6.42691 121.712 6.69819 121.832 6.68496 121.878C6.67173 121.931 6.3806 121.891 6.02992 121.798Z" fill="#263238"/>
    <path d="M5.92377 120.645C5.61279 120.824 5.3349 120.93 5.30843 120.883C5.28197 120.837 5.51354 120.658 5.82452 120.479C6.1355 120.3 6.41339 120.194 6.43985 120.24C6.46632 120.287 6.23474 120.466 5.92377 120.645Z" fill="#263238"/>
    <path d="M47.8108 49.3072L41.7989 47.6348L40.9597 50.6619L46.9716 52.3344L47.8108 49.3072Z" fill="#263238"/>
    <path d="M69.6493 2.53866L66.9145 1.77734L52.45 53.9199L55.1848 54.6812L69.6493 2.53866Z" fill="#C7C7C7"/>
    <path d="M70.4471 1.93781L66.552 0.853516L64.7309 7.41843L68.626 8.50273L70.4471 1.93781Z" fill="#263238"/>
  </symbol>
  <symbol id="icon-plane" viewBox="0 0 234 72" fill="none" xmlns="http://www.w3.org/2000/svg">
    <g opacity="0.6">
    <path d="M181.388 32.6399L0 71.589L162.782 23.4659L181.388 32.6399Z" fill="#EBEBEB"/>
    <path d="M156.084 44.3175C146.436 46.7712 136.729 48.9245 127.011 50.9876C122.152 52.0392 117.283 52.9907 112.414 53.9922L97.7877 56.8365L83.1311 59.5206C78.2323 60.3618 73.3434 61.2532 68.4445 62.0344C58.6368 63.6568 48.8191 65.1792 38.9414 66.401C48.5892 63.9473 58.2869 61.784 68.0146 59.7309C72.8735 58.6693 77.7424 57.7279 82.6113 56.7263L97.2379 53.892L111.894 51.218C116.793 50.3767 121.682 49.4853 126.581 48.7042C136.389 47.0817 146.206 45.5594 156.084 44.3375V44.3175Z" fill="#EBEBEB"/>
    <path d="M87.3797 41.1928C81.3011 43.4763 75.1925 45.6296 69.044 47.6626C62.9054 49.7258 56.7268 51.6787 50.5483 53.6016C44.3597 55.4945 38.1511 57.3674 31.9226 59.12C25.694 60.9027 19.4355 62.5652 13.127 64.0976C19.1955 61.8141 25.3141 59.6608 31.4627 57.6177C37.6013 55.5546 43.7798 53.6016 49.9584 51.6787C56.1469 49.7859 62.3555 47.923 68.5841 46.1604C74.8126 44.3777 81.0712 42.7151 87.3797 41.1728V41.1928Z" fill="#EBEBEB"/>
    </g>
    <path d="M185.976 34.0714C185.626 33.6708 180.767 30.2656 180.397 30.0152L181.227 29.875C181.227 29.875 185.666 33.6607 185.976 34.0814V34.0714Z" fill="#FFC727"/>
    <path opacity="0.5" d="M185.976 34.0714C185.626 33.6708 180.767 30.2656 180.397 30.0152L181.227 29.875C181.227 29.875 185.666 33.6607 185.976 34.0814V34.0714Z" fill="white"/>
    <path d="M185.996 34.1014C185.996 34.1014 185.996 34.1114 185.996 34.1214C185.956 34.2116 185.626 34.2817 185.256 34.3317C185.256 34.3317 185.256 34.3317 185.246 34.3317C184.786 34.3918 184.286 34.4018 184.206 34.3518C184.106 34.2817 180.597 32.519 178.448 31.4474C178.418 31.4374 178.388 31.4173 178.368 31.4073H178.348C178.248 31.3572 178.138 31.3072 178.048 31.2571C177.678 31.0768 177.378 30.9266 177.168 30.8164C176.948 30.7062 176.828 30.6461 176.828 30.6461L180.437 30.0252C180.647 30.1654 182.287 31.3172 183.737 32.3587C183.787 32.3888 183.837 32.4289 183.886 32.4689C184.026 32.5691 184.156 32.6592 184.286 32.7594C185.166 33.4003 185.886 33.9412 186.016 34.0914C186.016 34.0914 186.016 34.1014 186.026 34.1114C186.026 34.1114 186.026 34.1114 186.026 34.1214L185.996 34.1014Z" fill="#FFC727"/>
    <g opacity="0.1">
    <path d="M185.996 34.1013C185.996 34.1013 185.996 34.1113 185.996 34.1213C185.956 34.2115 185.626 34.2816 185.257 34.3317C185.257 34.3317 185.257 34.3317 185.247 34.3317C184.787 34.3918 184.287 34.4018 184.207 34.3517C184.097 34.2816 180.498 32.4789 178.368 31.4072C178.718 31.5775 183.337 33.8009 184.267 32.7392C185.147 33.3802 185.866 33.921 185.996 34.0713C185.996 34.0713 185.996 34.0813 186.006 34.0913C186.006 34.0913 186.006 34.0913 186.006 34.1013H185.996Z" fill="black"/>
    </g>
    <path d="M233.535 38.0684C233.535 38.5591 230.876 38.7093 230.516 38.6092C230.116 38.499 201.173 27.0817 201.173 27.0817L211.82 22.8553C211.9 22.9154 212 22.9855 212.13 23.0656C212.17 23.0957 212.22 23.1257 212.27 23.1557C214.23 24.5178 220.098 28.594 225.217 32.1694C225.317 32.2395 225.417 32.3096 225.517 32.3797C225.657 32.4699 225.787 32.57 225.917 32.6602C229.466 35.1439 232.546 37.3172 233.535 38.0584V38.0684Z" fill="#FFC727"/>
    <path d="M233.535 38.0684C230.946 36.1254 214.03 24.3876 211.82 22.8553L213.17 22.3145C213.17 22.3145 232.865 37.3172 233.455 37.9181C233.505 37.9682 233.525 38.0183 233.525 38.0583L233.535 38.0684Z" fill="#FFC727"/>
    <path opacity="0.5" d="M233.535 38.0684C230.946 36.1254 214.03 24.3876 211.82 22.8553L213.17 22.3145C213.17 22.3145 232.865 37.3172 233.455 37.9181C233.505 37.9682 233.525 38.0183 233.525 38.0583L233.535 38.0684Z" fill="white"/>
    <g opacity="0.5">
    <path opacity="0.1" d="M233.535 38.0684C233.535 38.5591 230.876 38.7093 230.516 38.6092C230.116 38.499 201.173 27.0817 201.173 27.0817L211.82 22.8553C211.82 22.8553 209.191 25.8699 215.44 30.5169C219.699 33.6817 224.237 34.3327 225.917 32.6702C229.466 35.1539 232.546 37.3272 233.535 38.0684Z" fill="black"/>
    </g>
    <path d="M209.391 30.8273C208.571 31.228 207.671 31.5384 207.611 30.7172C207.581 30.3767 207.851 30.0161 209.171 29.3751C209.481 29.2249 210.241 28.8944 210.461 29.5855C210.671 30.2465 209.701 30.6871 209.391 30.8374V30.8273Z" fill="#FFC727"/>
    <path opacity="0.1" d="M209.391 30.8273C208.571 31.228 207.671 31.5384 207.611 30.7172C207.581 30.3767 207.851 30.0161 209.171 29.3751C209.481 29.2249 210.241 28.8944 210.461 29.5855C210.671 30.2465 209.701 30.6871 209.391 30.8374V30.8273Z" fill="black"/>
    <path d="M216.109 33.5713C215.289 33.9719 214.389 34.2824 214.329 33.4611C214.299 33.1206 214.569 32.7601 215.889 32.1191C216.199 31.9689 216.959 31.6384 217.179 32.3294C217.389 32.9904 216.419 33.4311 216.109 33.5813V33.5713Z" fill="#FFC727"/>
    <path opacity="0.1" d="M216.109 33.5713C215.289 33.9719 214.389 34.2824 214.329 33.4611C214.299 33.1206 214.569 32.7601 215.889 32.1191C216.199 31.9689 216.959 31.6384 217.179 32.3294C217.389 32.9904 216.419 33.4311 216.109 33.5813V33.5713Z" fill="black"/>
    <path d="M222.828 36.3262C222.008 36.7268 221.108 37.0373 221.048 36.216C221.018 35.8755 221.288 35.515 222.608 34.874C222.918 34.7238 223.677 34.3933 223.897 35.0843C224.107 35.7453 223.138 36.186 222.828 36.3362V36.3262Z" fill="#FFC727"/>
    <path opacity="0.1" d="M222.828 36.3262C222.008 36.7268 221.108 37.0373 221.048 36.216C221.018 35.8755 221.288 35.515 222.608 34.874C222.918 34.7238 223.677 34.3933 223.897 35.0843C224.107 35.7453 223.138 36.186 222.828 36.3362V36.3262Z" fill="black"/>
    <path d="M220.628 29.0948C219.818 30.537 217.979 31.0578 216.819 31.5185C213.729 32.7504 211.49 33.4515 210.39 30.6372C210.25 30.2766 210.17 29.9361 210.14 29.6156C209.96 27.4924 212.15 26.4408 213.26 25.8499C214.599 25.1388 215.549 24.6781 216.259 24.3877C217.409 23.897 217.929 23.8369 218.458 23.8168C219.078 23.7968 220.488 23.957 220.958 26.541C221.148 27.6226 220.988 28.4439 220.628 29.0848V29.0948Z" fill="#FFC727"/>
    <path d="M220.668 27.0819C220.668 28.6643 219.678 29.9362 218.468 29.9362C217.258 29.9362 216.269 28.6543 216.269 27.0819C216.269 25.5095 217.258 24.2275 218.468 24.2275C219.678 24.2275 220.668 25.5095 220.668 27.0819Z" fill="#263238"/>
    <path d="M220.408 27.0814C220.408 28.4736 219.538 29.6053 218.468 29.6053C217.398 29.6053 216.519 28.4736 216.519 27.0814C216.519 25.6893 217.388 24.5576 218.468 24.5576C219.548 24.5576 220.408 25.6893 220.408 27.0814Z" fill="#455A64"/>
    <path d="M174.549 26.3197L174.039 26.51L172.889 26.9306C171.859 26.4799 170.45 25.869 168.92 25.218C165.071 23.5655 160.522 21.6225 159.642 21.3221C159.672 21.3221 159.712 21.3421 159.752 21.3521C159.782 21.3521 159.812 21.3722 159.852 21.3822C159.892 21.3922 159.942 21.4122 159.982 21.4222C160.002 21.4222 160.032 21.4423 160.062 21.4423C160.152 21.4723 160.252 21.5024 160.362 21.5424C160.462 21.5725 160.562 21.6125 160.672 21.6426C160.932 21.7227 161.222 21.8228 161.542 21.933C161.642 21.9631 161.742 22.0031 161.842 22.0332C161.932 22.0632 162.022 22.0933 162.122 22.1233C162.172 22.1433 162.222 22.1533 162.272 22.1734C162.422 22.2235 162.582 22.2735 162.742 22.3336C162.842 22.3737 162.952 22.4037 163.062 22.4438C164.291 22.8544 165.721 23.3351 167.151 23.8159L167.54 23.9461C168.05 24.1163 168.56 24.2966 169.06 24.4568C170 24.7773 170.9 25.0778 171.69 25.3482C171.819 25.3883 171.939 25.4383 172.059 25.4784C172.479 25.6186 172.869 25.7488 173.199 25.869C173.299 25.909 173.399 25.9391 173.489 25.9691C173.539 25.9892 173.579 25.9992 173.629 26.0192C173.649 26.0192 173.679 26.0392 173.699 26.0392C174.229 26.2195 174.539 26.3297 174.539 26.3297L174.549 26.3197Z" fill="#FFC727"/>
    <path opacity="0.5" d="M174.549 26.3197L174.039 26.51L172.889 26.9306C171.859 26.4799 170.45 25.869 168.92 25.218C165.071 23.5655 160.522 21.6225 159.642 21.3221C159.672 21.3221 159.712 21.3421 159.752 21.3521C159.782 21.3521 159.812 21.3722 159.852 21.3822C159.892 21.3922 159.942 21.4122 159.982 21.4222C160.002 21.4222 160.032 21.4423 160.062 21.4423C160.152 21.4723 160.252 21.5024 160.362 21.5424C160.462 21.5725 160.562 21.6125 160.672 21.6426C160.932 21.7227 161.222 21.8228 161.542 21.933C161.642 21.9631 161.742 22.0031 161.842 22.0332C161.932 22.0632 162.022 22.0933 162.122 22.1233C162.172 22.1433 162.222 22.1533 162.272 22.1734C162.422 22.2235 162.582 22.2735 162.742 22.3336C162.842 22.3737 162.952 22.4037 163.062 22.4438C164.291 22.8544 165.721 23.3351 167.151 23.8159L167.54 23.9461C168.05 24.1163 168.56 24.2966 169.06 24.4568C170 24.7773 170.9 25.0778 171.69 25.3482C171.819 25.3883 171.939 25.4383 172.059 25.4784C172.479 25.6186 172.869 25.7488 173.199 25.869C173.299 25.909 173.399 25.9391 173.489 25.9691C173.539 25.9892 173.579 25.9992 173.629 26.0192C173.649 26.0192 173.679 26.0392 173.699 26.0392C174.229 26.2195 174.539 26.3297 174.539 26.3297L174.549 26.3197Z" fill="white"/>
    <path d="M172.9 26.9312L169.82 28.0529C169.82 28.0529 162.952 24.8581 158.853 22.855C158.823 22.845 158.803 22.835 158.803 22.835C158.783 22.835 158.763 22.815 158.753 22.8049C158.323 22.5946 157.923 22.4043 157.573 22.2241C156.513 21.6933 155.843 21.3327 155.863 21.2826C155.973 21.0523 158.523 21.0022 159.543 21.2826C159.543 21.2826 159.563 21.2826 159.573 21.2826C159.593 21.2826 159.613 21.2927 159.643 21.3027C160.492 21.5931 164.771 23.4159 168.531 25.0283C168.561 25.0383 168.591 25.0484 168.621 25.0684C168.72 25.1185 168.82 25.1585 168.92 25.1986C170.45 25.8596 171.86 26.4705 172.89 26.9112L172.9 26.9312Z" fill="#FFC727"/>
    <g opacity="0.1">
    <path d="M172.899 26.9315L169.82 28.0532C169.82 28.0532 162.951 24.8583 158.852 22.8553C159.532 23.1457 166.481 26.2104 168.2 25.7897C168.6 25.6896 168.84 25.4592 168.93 25.2189C170.46 25.8799 171.869 26.4908 172.899 26.9315Z" fill="black"/>
    </g>
    <path d="M180.808 22.5342L173.35 26.1296C173.35 26.1296 173.43 19.7199 173.48 15.1129C173.48 14.9527 173.48 14.7924 173.48 14.6422C173.48 14.512 173.48 14.3918 173.48 14.2717C173.5 12.6892 173.52 11.4173 173.53 10.8465C173.56 8.99364 173.76 8.61306 174.249 8.91352C174.739 9.21398 176.919 11.1169 177.579 11.9581C178.118 12.6492 179.308 16.8656 180.078 19.75C180.078 19.78 180.088 19.8 180.098 19.8201C180.148 19.9903 180.188 20.1506 180.228 20.3108C180.568 21.6128 180.808 22.5342 180.808 22.5342Z" fill="#FFC727"/>
    <g opacity="0.1">
    <path d="M180.808 22.5345L173.35 26.13C173.35 26.13 173.43 19.7203 173.48 15.1133C174.579 17.567 176.749 20.9221 180.228 20.3212C180.568 21.6232 180.808 22.5446 180.808 22.5446V22.5345Z" fill="black"/>
    </g>
    <path d="M168.13 30.056C167.36 28.1331 170.62 26.3804 174.329 24.7179C178.028 23.0554 214.529 6.93091 219.818 5.48872C225.107 4.04653 231.266 6.01952 232.315 9.04411C233.875 13.591 227.296 17.3868 203.652 27.2117C200.553 28.4936 186.696 31.8287 178.908 31.8587C170.58 31.8888 168.52 30.9974 168.14 30.056H168.13Z" fill="#FFC727"/>
    <path opacity="0.5" d="M168.13 30.056C167.36 28.1331 170.62 26.3804 174.329 24.7179C178.028 23.0554 214.529 6.93091 219.818 5.48872C225.107 4.04653 231.266 6.01952 232.315 9.04411C233.875 13.591 227.296 17.3868 203.652 27.2117C200.553 28.4936 186.696 31.8287 178.908 31.8587C170.58 31.8888 168.52 30.9974 168.14 30.056H168.13Z" fill="white"/>
    <path opacity="0.1" d="M203.652 27.211C200.552 28.503 186.696 31.828 178.897 31.8581C170.569 31.8881 168.51 30.9967 168.13 30.0553C167.73 29.0538 168.43 28.0923 169.72 27.1709C169.72 27.3612 169.74 27.5515 169.82 27.7418C170.159 28.6031 172.029 29.4043 179.587 29.3843C186.656 29.3643 196.823 23.6256 199.643 22.4538C221.098 13.5403 229.476 12.7991 228.056 8.6829C227.436 6.89018 224.837 5.50808 221.767 5.1275C226.526 4.55664 231.395 6.39943 232.305 9.06347C233.865 13.6104 227.286 17.4161 203.642 27.231L203.652 27.211Z" fill="black"/>
    <path d="M179.697 23.7063L180.537 23.3457V24.5776L179.697 24.9381V23.7063Z" fill="#455A64"/>
    <path d="M181.227 23.0459L182.126 22.6553V23.8871L181.227 24.2777V23.0459Z" fill="#455A64"/>
    <path d="M182.817 22.3546L183.716 21.964V23.2059L182.817 23.5864V22.3546Z" fill="#455A64"/>
    <path d="M184.406 21.6635L185.296 21.283V22.5148L184.406 22.9054V21.6635Z" fill="#455A64"/>
    <path d="M185.996 20.9824L186.886 20.5918V21.8237L185.996 22.2143V20.9824Z" fill="#455A64"/>
    <path d="M187.575 20.292L188.475 19.9014V21.1433L187.575 21.5238V20.292Z" fill="#455A64"/>
    <path d="M189.165 19.6004L190.065 19.2098V20.4517L189.165 20.8423V19.6004Z" fill="#455A64"/>
    <path d="M190.755 18.9189L191.645 18.5283V19.7602L190.755 20.1508V18.9189Z" fill="#455A64"/>
    <path d="M192.345 18.2285L193.235 17.8379V19.0698L192.345 19.4604V18.2285Z" fill="#455A64"/>
    <path d="M193.924 17.5373L194.824 17.1467V18.3886L193.924 18.7792V17.5373Z" fill="#455A64"/>
    <path d="M195.514 16.8463L196.413 16.4657V17.6976L195.514 18.0882V16.8463Z" fill="#455A64"/>
    <path d="M197.104 16.165L197.993 15.7744V17.0063L197.104 17.3969V16.165Z" fill="#455A64"/>
    <path d="M198.683 15.4746L199.582 15.084V16.3259L198.683 16.7064V15.4746Z" fill="#455A64"/>
    <path d="M200.272 14.7831L201.172 14.4025V15.6344L200.272 16.025V14.7831Z" fill="#455A64"/>
    <path d="M201.862 14.1025L202.752 13.7119V14.9438L201.862 15.3344V14.1025Z" fill="#455A64"/>
    <path d="M203.452 13.4111L204.342 13.0205V14.2524L203.452 14.643V13.4111Z" fill="#455A64"/>
    <path d="M205.031 12.7197L205.931 12.3291V13.571L205.031 13.9616V12.7197Z" fill="#455A64"/>
    <path d="M206.621 12.029L207.521 11.6484V12.8802L206.621 13.2708V12.029Z" fill="#455A64"/>
    <path d="M208.211 11.3476L209.101 10.957V12.1889L208.211 12.5795V11.3476Z" fill="#455A64"/>
    <path d="M209.8 10.6562L210.69 10.2656V11.5075L209.8 11.8881V10.6562Z" fill="#455A64"/>
    <path d="M211.38 9.96554L212.28 9.58496V10.8168L211.38 11.2074V9.96554Z" fill="#455A64"/>
    <path d="M213.87 8.89453V10.1264L212.97 10.517V9.28512L213.87 8.89453Z" fill="#455A64"/>
    <path d="M215.449 8.20312V9.44501L214.56 9.82559V8.59372L215.449 8.20312Z" fill="#455A64"/>
    <path d="M217.038 7.51172V8.7536L216.139 9.1442V7.90231L217.038 7.51172Z" fill="#455A64"/>
    <path d="M218.628 6.83105V8.06292L217.728 8.45352V7.22165L218.628 6.83105Z" fill="#455A64"/>
    <path d="M222.777 6.32025C223.267 5.92965 223.847 5.69931 224.437 5.53906V6.36031C223.897 6.34028 223.357 6.33026 222.777 6.31023V6.32025Z" fill="#455A64"/>
    <path d="M226.386 5.34833V6.48005C225.967 6.43999 225.557 6.41996 225.127 6.39993V5.40842C225.537 5.34833 225.967 5.3283 226.386 5.34833Z" fill="#455A64"/>
    <path d="M230.375 6.95096C230.026 6.95096 229.706 6.88085 229.376 6.84079C229.046 6.81075 228.746 6.74064 228.426 6.72061C227.966 6.6505 227.516 6.60043 227.076 6.56037V5.42865C227.626 5.50877 228.156 5.64898 228.666 5.8593C228.986 5.97949 229.286 6.14974 229.576 6.32C229.726 6.40012 229.856 6.51029 229.996 6.62046C230.126 6.73062 230.265 6.83078 230.385 6.95096H230.375Z" fill="#455A64"/>
    <path d="M201.863 17.0162L191.345 22.0838C191.345 22.0838 174.629 13.1102 162.632 6.54027C162.622 6.54027 162.612 6.53025 162.602 6.53025C156.193 3.02493 151.315 0.300799 151.385 0.200647C151.584 -0.069763 154.804 -0.0397175 156.083 0.130541C156.233 0.150571 156.363 0.170602 156.443 0.200647C156.983 0.350875 175.899 7.37153 189.146 12.289C196.344 14.963 201.863 17.0162 201.863 17.0162Z" fill="#FFC727"/>
    <g opacity="0.1">
    <path d="M201.863 17.0162L191.345 22.0839C191.345 22.0839 174.629 13.1103 162.632 6.54028C163.572 7.011 185.077 17.8775 187.886 16.245C188.946 15.6341 189.226 14.0417 189.156 12.289C196.354 14.9631 201.873 17.0162 201.873 17.0162H201.863Z" fill="black"/>
    </g>
    <path d="M203.392 16.3249L200.273 17.8272C192.285 14.4721 159.042 1.31215 156.263 0.200467C156.233 0.190452 156.203 0.180437 156.173 0.170421C156.143 0.170421 156.123 0.150391 156.103 0.150391C156.093 0.150391 156.083 0.150391 156.083 0.150391C156.233 0.170421 156.363 0.190452 156.443 0.220497C157.273 0.450847 203.392 16.3349 203.392 16.3349V16.3249Z" fill="#FFC727"/>
    <path opacity="0.5" d="M203.392 16.3249L200.273 17.8272C192.285 14.4721 159.042 1.31215 156.263 0.200467C156.233 0.190452 156.203 0.180437 156.173 0.170421C156.143 0.170421 156.123 0.150391 156.103 0.150391C156.093 0.150391 156.083 0.150391 156.083 0.150391C156.233 0.170421 156.363 0.190452 156.443 0.220497C157.273 0.450847 203.392 16.3349 203.392 16.3349V16.3249Z" fill="white"/>
    <path d="M180.868 16.5652C179.838 17.0659 178.719 17.4565 178.639 16.425C178.609 16.0043 178.938 15.5436 180.588 14.7524C180.978 14.5621 181.928 14.1515 182.198 15.0128C182.468 15.8441 181.248 16.3849 180.858 16.5752L180.868 16.5652Z" fill="#FFC727"/>
    <path opacity="0.1" d="M180.868 16.5652C179.838 17.0659 178.719 17.4565 178.639 16.425C178.609 16.0043 178.938 15.5436 180.588 14.7524C180.978 14.5621 181.928 14.1515 182.198 15.0128C182.468 15.8441 181.248 16.3849 180.858 16.5752L180.868 16.5652Z" fill="black"/>
    <path d="M171.97 12.0583C170.94 12.5591 169.82 12.9497 169.74 11.9181C169.71 11.4975 170.04 11.0368 171.69 10.2456C172.08 10.0553 173.029 9.64468 173.299 10.506C173.569 11.3372 172.349 11.8781 171.96 12.0684L171.97 12.0583Z" fill="#FFC727"/>
    <path opacity="0.1" d="M171.97 12.0583C170.94 12.5591 169.82 12.9497 169.74 11.9181C169.71 11.4975 170.04 11.0368 171.69 10.2456C172.08 10.0553 173.029 9.64468 173.299 10.506C173.569 11.3372 172.349 11.8781 171.96 12.0684L171.97 12.0583Z" fill="black"/>
    <path d="M163.041 7.50129C162.082 7.972 161.042 8.33255 160.962 7.37109C160.932 6.9805 161.232 6.54985 162.782 5.80872C163.141 5.63846 164.021 5.24787 164.281 6.04909C164.531 6.82026 163.401 7.33103 163.031 7.50129H163.041Z" fill="#FFC727"/>
    <path opacity="0.1" d="M163.041 7.50129C162.082 7.972 161.042 8.33255 160.962 7.37109C160.932 6.9805 161.232 6.54985 162.782 5.80872C163.141 5.63846 164.021 5.24787 164.281 6.04909C164.531 6.82026 163.401 7.33103 163.031 7.50129H163.041Z" fill="black"/>
    <path d="M194.154 15.5441C193.344 16.9863 191.505 17.507 190.345 17.9677C187.256 19.1996 185.016 19.9007 183.917 17.0864C183.777 16.7259 183.697 16.3853 183.667 16.0649C183.487 13.9416 185.676 12.89 186.786 12.2991C188.126 11.5881 189.075 11.1274 189.785 10.8369C190.935 10.3462 191.455 10.2861 191.985 10.2661C192.605 10.246 194.014 10.4063 194.484 12.9902C194.674 14.0718 194.514 14.8931 194.154 15.534V15.5441Z" fill="#FFC727"/>
    <path d="M191.985 16.3854C193.2 16.3854 194.184 15.1074 194.184 13.531C194.184 11.9546 193.2 10.6767 191.985 10.6767C190.77 10.6767 189.785 11.9546 189.785 13.531C189.785 15.1074 190.77 16.3854 191.985 16.3854Z" fill="#263238"/>
    <path d="M193.934 13.5306C193.934 14.9227 193.064 16.0544 191.995 16.0544C190.925 16.0544 190.045 14.9227 190.045 13.5306C190.045 12.1385 190.915 11.0068 191.995 11.0068C193.074 11.0068 193.934 12.1385 193.934 13.5306Z" fill="#455A64"/>
    <path d="M160.682 21.6527C160.572 21.6127 160.472 21.5827 160.372 21.5527C160.472 21.5827 160.572 21.6227 160.682 21.6527Z" fill="#FFC727"/>
  </symbol>
  <symbol id="icon-confetti" viewBox="0 0 130 85" fill="none" xmlns="http://www.w3.org/2000/svg">
    <g clip-path="url(#clip0_17001_186)">
    <path d="M104.274 52.9037C105.416 52.9037 106.341 51.9782 106.341 50.8366C106.341 49.695 105.416 48.7695 104.274 48.7695C103.133 48.7695 102.207 49.695 102.207 50.8366C102.207 51.9782 103.133 52.9037 104.274 52.9037Z" fill="#FAA074"/>
    <path d="M83.9931 62.5343L70.1609 76.3654C69.5123 77.0139 70.8836 79.4367 73.2237 81.7766C75.564 84.1166 77.9868 85.4877 78.6355 84.8391L82.5148 80.9598L83.9931 62.5343Z" fill="#8D58CD"/>
    <path d="M87.7105 71.008L75.2013 83.5161C76.8006 84.7334 78.1716 85.3027 78.6355 84.839L82.5148 80.9596L87.7105 71.008Z" fill="#5C2CC7"/>
    <path d="M88.7169 57.8105L74.0398 72.4861C73.3912 73.1346 74.7625 75.5573 77.1026 77.8972C79.4429 80.2372 81.8657 81.6083 82.5144 80.9598L84.3669 79.1075L85.5352 76.7939L87.4351 76.0396L97.1915 66.2843L88.7169 57.8105Z" fill="#FAA074"/>
    <path d="M94.8137 63.9053L79.0811 79.6364C80.6804 80.8537 82.0515 81.423 82.5153 80.9593L84.3678 79.1071L85.2632 76.7735L87.436 76.0391L97.1924 66.2837L94.8137 63.9053Z" fill="#EAC941"/>
    <path d="M97.0885 66.3808C97.737 65.7323 96.366 63.3099 94.0263 60.9701C91.6865 58.6304 89.2641 57.2594 88.6156 57.9079C87.9672 58.5563 89.3382 60.9788 91.6779 63.3185C94.0176 65.6582 96.4401 67.0292 97.0885 66.3808Z" fill="#8D58CD"/>
    <path d="M100.217 64.2574C99.898 64.2574 99.5892 64.0856 99.4288 63.7839C99.1976 63.3491 99.3626 62.8089 99.7976 62.5776C103.617 60.5464 111.537 57.6879 121.662 61.3638C122.125 61.532 122.364 62.0436 122.196 62.5066C122.028 62.9696 121.516 63.2087 121.053 63.0406C111.578 59.6001 104.194 62.2605 100.635 64.1527C100.502 64.2236 100.358 64.2574 100.217 64.2574Z" fill="#8D58CD"/>
    <path d="M98.4695 57.4217C98.2412 57.4217 98.0129 57.3346 97.8386 57.1604C97.4904 56.812 97.4904 56.2472 97.8388 55.8989L99.513 54.2249C99.8612 53.8765 100.426 53.8766 100.774 54.225C101.123 54.5734 101.123 55.1382 100.774 55.4864L99.1001 57.1605C98.9259 57.3346 98.6976 57.4217 98.4695 57.4217Z" fill="#8D58CD"/>
    <path d="M107.856 48.0353C107.628 48.0353 107.399 47.9481 107.225 47.7739C106.877 47.4254 106.877 46.8606 107.225 46.5123L119.604 34.1438C119.953 33.7956 120.517 33.7959 120.866 34.1443C121.214 34.4928 121.214 35.0575 120.865 35.4058L108.486 47.7743C108.312 47.9484 108.084 48.0353 107.856 48.0353Z" fill="#8D58CD"/>
    <path d="M114.936 31.0961C116.078 31.0961 117.003 30.1706 117.003 29.029C117.003 27.8874 116.078 26.9619 114.936 26.9619C113.795 26.9619 112.869 27.8874 112.869 29.029C112.869 30.1706 113.795 31.0961 114.936 31.0961Z" fill="#FAA074"/>
    <path d="M125.851 42.0997C126.993 42.0997 127.919 41.1743 127.919 40.0327C127.919 38.8911 126.993 37.9656 125.851 37.9656C124.71 37.9656 123.784 38.8911 123.784 40.0327C123.784 41.1743 124.71 42.0997 125.851 42.0997Z" fill="#FAA074"/>
    <path d="M107.11 70.7054C108.252 70.7054 109.177 69.78 109.177 68.6384C109.177 67.4967 108.252 66.5713 107.11 66.5713C105.968 66.5713 105.043 67.4967 105.043 68.6384C105.043 69.78 105.968 70.7054 107.11 70.7054Z" fill="#FAA074"/>
    <path d="M125.589 54.758L123.407 53.5668L121.187 54.6854L121.648 52.2463L119.896 50.4846L122.362 50.1683L123.5 47.9609L124.563 50.2046L127.018 50.602L125.209 52.305L125.589 54.758Z" fill="#8D58CD"/>
    <path d="M125.158 32.9391L124.458 30.554L122.097 29.7751L124.147 28.3762L124.154 25.8916L126.122 27.4122L128.487 26.6557L127.653 28.9943L129.108 31.0112L126.624 30.9359L125.158 32.9391Z" fill="#8D58CD"/>
    <path d="M115.412 80.2002L113.23 79.009L111.01 80.1277L111.471 77.6884L109.719 75.9268L112.185 75.6105L113.323 73.4031L114.386 75.6468L116.841 76.0443L115.032 77.7473L115.412 80.2002Z" fill="#8D58CD"/>
    <path d="M118.744 45.492C119.891 45.492 119.893 43.708 118.744 43.708C117.596 43.708 117.594 45.492 118.744 45.492Z" fill="#AE80EA"/>
    <path d="M129.138 59.2058C130.286 59.2058 130.288 57.4219 129.138 57.4219C127.99 57.4219 127.988 59.2058 129.138 59.2058Z" fill="#AE80EA"/>
    <path d="M96.6996 26.7839C97.8474 26.7839 97.8493 25 96.6996 25C95.5517 25 95.5497 26.7839 96.6996 26.7839Z" fill="#AE80EA"/>
    <path d="M125.809 64.6804C126.957 64.6804 126.959 62.8965 125.809 62.8965C124.661 62.8965 124.659 64.6804 125.809 64.6804Z" fill="#AE80EA"/>
    <path d="M91.6854 55.4839C91.5462 55.4839 91.405 55.4512 91.2729 55.3823C90.8364 55.1541 90.6674 54.6152 90.8957 54.1785C92.7427 50.6449 95.3322 43.3204 91.9231 33.9683C91.7545 33.5055 91.9929 32.9935 92.4557 32.8247C92.9185 32.6559 93.4305 32.8946 93.5992 33.3572C97.2428 43.3529 94.4598 51.2106 92.4766 55.0048C92.3173 55.3096 92.0068 55.4839 91.6854 55.4839Z" fill="#8D58CD"/>
    <path d="M86.3133 49.9448C87.4571 49.9448 88.3844 49.021 88.3844 47.8816C88.3844 46.7421 87.4571 45.8184 86.3133 45.8184C85.1695 45.8184 84.2422 46.7421 84.2422 47.8816C84.2422 49.021 85.1695 49.9448 86.3133 49.9448Z" fill="#FAA074"/>
    <path d="M122.798 69.4612C122.509 69.3868 122.422 69.2594 122.192 68.868C121.922 68.4082 121.514 67.7134 120.493 67.4507C119.473 67.188 118.779 67.5991 118.32 67.8709C117.929 68.103 117.791 68.1727 117.501 68.0983C117.212 68.0239 117.126 67.8965 116.896 67.5052C116.626 67.0455 116.218 66.3507 115.197 66.0879C114.719 65.9649 114.233 66.2525 114.11 66.7294C113.988 67.2065 114.275 67.6928 114.752 67.8155C115.041 67.8899 115.128 68.0173 115.358 68.4087C115.628 68.8684 116.036 69.5631 117.057 69.8259C118.078 70.0886 118.771 69.6776 119.23 69.4056C119.621 69.1737 119.759 69.1036 120.049 69.1784C120.338 69.2528 120.424 69.3802 120.654 69.7716C120.924 70.2313 121.333 70.926 122.354 71.1887C122.428 71.208 122.503 71.2171 122.576 71.2171C122.974 71.2171 123.336 70.9497 123.44 70.5471C123.562 70.0702 123.275 69.5839 122.798 69.4612Z" fill="#FAA074"/>
    <path d="M116.163 54.2958C116.595 54.0595 116.754 53.5175 116.518 53.0852C116.281 52.6529 115.739 52.494 115.307 52.7305C115.045 52.8738 114.894 52.8401 114.457 52.7114C113.946 52.5607 113.172 52.3328 112.248 52.8382C111.323 53.344 111.098 54.118 110.95 54.63C110.824 55.0656 110.772 55.2101 110.51 55.3532C110.247 55.4966 110.097 55.4627 109.66 55.334C109.149 55.1832 108.375 54.9553 107.451 55.4607C107.018 55.697 106.86 56.239 107.096 56.6713C107.332 57.1036 107.874 57.2624 108.306 57.026C108.569 56.8827 108.719 56.9166 109.156 57.0452C109.431 57.1262 109.781 57.2293 110.189 57.2293C110.542 57.2293 110.938 57.1525 111.366 56.9184C112.291 56.4125 112.515 55.6386 112.664 55.1265C112.79 54.6911 112.842 54.5465 113.104 54.4035C113.366 54.2602 113.517 54.2939 113.953 54.4226C114.465 54.5733 115.239 54.8012 116.163 54.2958Z" fill="#FAA074"/>
    <path d="M87.4458 38.1128C87.0537 37.8833 86.9262 37.7971 86.8519 37.5093C86.7777 37.2221 86.8474 37.0851 87.0792 36.6955C87.352 36.237 87.7643 35.544 87.5008 34.5235C87.2372 33.5033 86.5411 33.096 86.0804 32.8264C85.6883 32.5969 85.5607 32.5105 85.4864 32.2228C85.3631 31.746 84.8774 31.459 84.3996 31.5823C83.9227 31.7056 83.6359 32.1921 83.7591 32.6691C84.0226 33.6892 84.7187 34.0965 85.1794 34.3661C85.5716 34.5955 85.6991 34.6818 85.7734 34.9696C85.8476 35.2568 85.7779 35.3938 85.5461 35.7833C85.2733 36.2419 84.861 36.9348 85.1245 37.9554C85.3881 38.9755 86.0842 39.3829 86.5449 39.6524C86.9371 39.8819 87.0646 39.9682 87.1389 40.2559C87.2428 40.6581 87.6049 40.9249 88.002 40.9249C88.0758 40.9249 88.1509 40.9157 88.2257 40.8964C88.7026 40.7731 88.9894 40.2865 88.8662 39.8096C88.6026 38.7897 87.9066 38.3823 87.4458 38.1128Z" fill="#FAA074"/>
    <path d="M102.249 39.7022C102.486 39.2703 102.328 38.7281 101.896 38.4911C101.464 38.2539 100.922 38.412 100.685 38.8439C100.178 39.7681 100.406 40.5411 100.558 41.0526C100.686 41.487 100.72 41.6368 100.577 41.8971C100.434 42.1581 100.289 42.2104 99.8519 42.3366C99.339 42.4847 98.5641 42.7082 98.0572 43.6318C97.55 44.5561 97.7786 45.329 97.9299 45.8406C98.0583 46.275 98.0923 46.4247 97.9495 46.685C97.7124 47.1168 97.8702 47.6591 98.3022 47.8961C98.4384 47.9709 98.5854 48.0064 98.7305 48.0064C99.0456 48.0064 99.3509 47.8391 99.5132 47.5435C100.021 46.6191 99.792 45.8462 99.6406 45.3347C99.5122 44.9002 99.4783 44.7505 99.6211 44.4902C99.7643 44.2292 99.9094 44.1768 100.346 44.0506C100.859 43.9026 101.634 43.679 102.141 42.7555C102.648 41.8311 102.42 41.0581 102.268 40.5466C102.14 40.1122 102.106 39.9624 102.249 39.7022Z" fill="#FAA074"/>
    <path d="M100.22 29.4393L101.413 31.617L100.293 33.8328L102.736 33.3729L104.502 35.1214L104.818 32.6595L107.03 31.5245L104.782 30.4629L104.384 28.0127L102.678 29.8186L100.22 29.4393Z" fill="#8D58CD"/>
    <path d="M74.7285 39.5966L75.922 41.7742L74.8012 43.99L77.2451 43.5302L79.0103 45.2787L79.3272 42.8167L81.5389 41.6816L79.2909 40.62L78.8927 38.1699L77.1863 39.9758L74.7285 39.5966Z" fill="#8D58CD"/>
    <path d="M110.43 37.1903C111.578 37.1903 111.58 35.4064 110.43 35.4064C109.282 35.4064 109.28 37.1903 110.43 37.1903Z" fill="#AE80EA"/>
    <path d="M91.0883 30.0271C92.2361 30.0271 92.238 28.2432 91.0883 28.2432C89.9404 28.2432 89.9384 30.0271 91.0883 30.0271Z" fill="#AE80EA"/>
    <path d="M85.2802 68.1793L85.8412 65.6068L88.2786 64.6105L86.0051 63.2821L85.8146 60.709L82.3557 64.1719L82.3454 64.1922L80.959 66.4308L83.5794 66.1693L85.2802 68.1793Z" fill="white"/>
    <path d="M80.959 77.0166L83.5603 77.4246L84.3673 79.108L87.4355 76.0401L86.6358 75.2426L87.1102 72.6525L84.766 73.8513L82.4496 72.5998L82.8652 75.1999L80.959 77.0166Z" fill="white"/>
    </g>
    <g clip-path="url(#clip1_17001_186)">
    <path d="M25.7259 27.9037C24.5843 27.9037 23.6588 26.9782 23.6588 25.8366C23.6588 24.695 24.5843 23.7695 25.7259 23.7695C26.8675 23.7695 27.7929 24.695 27.7929 25.8366C27.7929 26.9782 26.8675 27.9037 25.7259 27.9037Z" fill="#FAA074"/>
    <path d="M46.0069 37.5343L59.8391 51.3654C60.4877 52.0139 59.1164 54.4367 56.7763 56.7766C54.4361 59.1166 52.0132 60.4877 51.3646 59.8391L47.4852 55.9598L46.0069 37.5343Z" fill="#8D58CD"/>
    <path d="M42.2896 46.008L54.7988 58.5161C53.1995 59.7334 51.8284 60.3027 51.3646 59.839L47.4852 55.9596L42.2896 46.008Z" fill="#5C2CC7"/>
    <path d="M41.2832 32.8105L55.9602 47.4861C56.6088 48.1346 55.2375 50.5573 52.8974 52.8972C50.5572 55.2372 48.1343 56.6083 47.4857 55.9598L45.6332 54.1075L44.4648 51.7939L42.565 51.0396L32.8085 41.2843L41.2832 32.8105Z" fill="#FAA074"/>
    <path d="M35.1864 38.9053L50.9189 54.6364C49.3197 55.8537 47.9486 56.423 47.4847 55.9593L45.6322 54.1071L44.7368 51.7735L42.564 51.0391L32.8076 41.2837L35.1864 38.9053Z" fill="#EAC941"/>
    <path d="M32.9115 41.3808C32.263 40.7323 33.634 38.3099 35.9738 35.9701C38.3135 33.6304 40.7359 32.2594 41.3844 32.9079C42.0329 33.5563 40.6618 35.9788 38.3221 38.3185C35.9824 40.6582 33.56 42.0292 32.9115 41.3808Z" fill="#8D58CD"/>
    <path d="M29.7829 39.2574C30.1021 39.2574 30.4109 39.0856 30.5712 38.7839C30.8024 38.3491 30.6374 37.8089 30.2024 37.5776C26.3825 35.5464 18.4627 32.6879 8.33814 36.3638C7.87513 36.532 7.63607 37.0436 7.80411 37.5066C7.97228 37.9696 8.4838 38.2087 8.94692 38.0406C18.4225 34.6001 25.8065 37.2605 29.3647 39.1527C29.4983 39.2236 29.6417 39.2574 29.7829 39.2574Z" fill="#8D58CD"/>
    <path d="M31.5306 32.4217C31.7589 32.4217 31.9872 32.3346 32.1614 32.1604C32.5097 31.812 32.5097 31.2472 32.1613 30.8989L30.487 29.2249C30.1389 28.8765 29.574 28.8766 29.2256 29.225C28.8773 29.5734 28.8773 30.1382 29.2257 30.4864L30.9 32.1605C31.0741 32.3346 31.3024 32.4217 31.5306 32.4217Z" fill="#8D58CD"/>
    <path d="M22.1441 23.0353C22.3725 23.0353 22.6009 22.9481 22.7751 22.7739C23.1233 22.4254 23.1231 21.8606 22.7746 21.5123L10.3958 9.14379C10.0474 8.79563 9.48256 8.79586 9.1344 9.14426C8.78623 9.49277 8.78647 10.0575 9.13498 10.4058L21.5137 22.7743C21.6878 22.9484 21.916 23.0353 22.1441 23.0353Z" fill="#8D58CD"/>
    <path d="M15.0638 6.09605C13.9221 6.09605 12.9967 5.1706 12.9967 4.02898C12.9967 2.88737 13.9221 1.96191 15.0638 1.96191C16.2054 1.96191 17.1308 2.88737 17.1308 4.02898C17.1308 5.1706 16.2054 6.09605 15.0638 6.09605Z" fill="#FAA074"/>
    <path d="M4.1486 17.0997C3.00699 17.0997 2.08153 16.1743 2.08153 15.0327C2.08153 13.8911 3.00699 12.9656 4.1486 12.9656C5.29021 12.9656 6.21567 13.8911 6.21567 15.0327C6.21567 16.1743 5.29021 17.0997 4.1486 17.0997Z" fill="#FAA074"/>
    <path d="M22.8899 45.7054C21.7483 45.7054 20.8229 44.78 20.8229 43.6384C20.8229 42.4967 21.7483 41.5713 22.8899 41.5713C24.0315 41.5713 24.957 42.4967 24.957 43.6384C24.957 44.78 24.0315 45.7054 22.8899 45.7054Z" fill="#FAA074"/>
    <path d="M4.41126 29.758L6.59317 28.5668L8.81329 29.6854L8.35239 27.2463L10.1045 25.4846L7.63767 25.1683L6.50036 22.9609L5.43665 25.2046L2.98169 25.602L4.79106 27.305L4.41126 29.758Z" fill="#8D58CD"/>
    <path d="M4.84188 7.93914L5.54243 5.55402L7.90329 4.77508L5.85263 3.37621L5.84583 0.891602L3.8779 2.41223L1.51282 1.65566L2.3472 3.99426L0.892432 6.01117L3.37599 5.93594L4.84188 7.93914Z" fill="#8D58CD"/>
    <path d="M14.5882 55.2002L16.7701 54.009L18.9902 55.1277L18.5295 52.6884L20.2814 50.9268L17.8147 50.6105L16.6773 48.4031L15.6137 50.6468L13.1587 51.0443L14.9681 52.7473L14.5882 55.2002Z" fill="#8D58CD"/>
    <path d="M11.2565 20.492C10.1086 20.492 10.1067 18.708 11.2565 18.708C12.4044 18.708 12.4063 20.492 11.2565 20.492Z" fill="#AE80EA"/>
    <path d="M0.862041 34.2058C-0.285811 34.2058 -0.287803 32.4219 0.862041 32.4219C2.00989 32.4219 2.01177 34.2058 0.862041 34.2058Z" fill="#AE80EA"/>
    <path d="M33.3005 1.78395C32.1526 1.78395 32.1507 0 33.3005 0C34.4483 0 34.4503 1.78395 33.3005 1.78395Z" fill="#AE80EA"/>
    <path d="M4.19102 39.6804C3.04317 39.6804 3.0413 37.8965 4.19102 37.8965C5.33899 37.8965 5.34087 39.6804 4.19102 39.6804Z" fill="#AE80EA"/>
    <path d="M38.3146 30.4839C38.4538 30.4839 38.595 30.4512 38.7271 30.3823C39.1636 30.1541 39.3326 29.6152 39.1043 29.1785C37.2573 25.6449 34.6678 18.3204 38.0769 8.96826C38.2456 8.50548 38.0071 7.99349 37.5443 7.82474C37.0816 7.65587 36.5696 7.89458 36.4008 8.35724C32.7572 18.3529 35.5402 26.2106 37.5235 30.0048C37.6827 30.3096 37.9933 30.4839 38.3146 30.4839Z" fill="#8D58CD"/>
    <path d="M43.6867 24.9448C42.5429 24.9448 41.6157 24.021 41.6157 22.8816C41.6157 21.7421 42.5429 20.8184 43.6867 20.8184C44.8305 20.8184 45.7578 21.7421 45.7578 22.8816C45.7578 24.021 44.8305 24.9448 43.6867 24.9448Z" fill="#FAA074"/>
    <path d="M7.20193 44.4612C7.49115 44.3868 7.57764 44.2594 7.80756 43.868C8.07768 43.4082 8.48584 42.7134 9.5069 42.4507C10.5275 42.188 11.2208 42.5991 11.6797 42.8709C12.0711 43.103 12.2087 43.1727 12.4986 43.0983C12.7879 43.0239 12.8744 42.8965 13.1042 42.5052C13.3742 42.0455 13.7824 41.3507 14.8034 41.0879C15.2811 40.9649 15.7668 41.2525 15.8896 41.7294C16.0124 42.2065 15.7251 42.6928 15.248 42.8155C14.9587 42.8899 14.8722 43.0173 14.6424 43.4087C14.3724 43.8684 13.9642 44.5631 12.9432 44.8259C11.9224 45.0886 11.229 44.6776 10.7702 44.4056C10.3789 44.1737 10.2413 44.1036 9.9515 44.1784C9.66217 44.2528 9.57568 44.3802 9.34576 44.7716C9.07565 45.2313 8.66748 45.926 7.64643 46.1887C7.57189 46.208 7.49701 46.2171 7.42353 46.2171C7.02615 46.2171 6.66381 45.9497 6.56021 45.5471C6.43764 45.0702 6.72486 44.5839 7.20193 44.4612Z" fill="#FAA074"/>
    <path d="M13.8371 29.2958C13.4048 29.0595 13.2461 28.5175 13.4823 28.0852C13.7188 27.6529 14.2608 27.494 14.6929 27.7305C14.9552 27.8738 15.1058 27.8401 15.5426 27.7114C16.0545 27.5607 16.8278 27.3328 17.7522 27.8382C18.6773 28.344 18.9016 29.118 19.05 29.63C19.1761 30.0656 19.2285 30.2101 19.4902 30.3532C19.7525 30.4966 19.9031 30.4627 20.3398 30.334C20.8515 30.1832 21.6247 29.9553 22.5493 30.4607C22.9816 30.697 23.1404 31.239 22.9042 31.6713C22.6677 32.1036 22.1257 32.2624 21.6936 32.026C21.431 31.8827 21.2805 31.9166 20.844 32.0452C20.5692 32.1262 20.2192 32.2293 19.8107 32.2293C19.4584 32.2293 19.0624 32.1525 18.6343 31.9184C17.709 31.4125 17.4847 30.6386 17.3364 30.1265C17.2103 29.6911 17.1579 29.5465 16.8963 29.4035C16.6342 29.2602 16.4835 29.2939 16.0466 29.4226C15.535 29.5733 14.7615 29.8012 13.8371 29.2958Z" fill="#FAA074"/>
    <path d="M42.5542 13.1128C42.9463 12.8833 43.0738 12.7971 43.1481 12.5093C43.2223 12.2221 43.1526 12.0851 42.9208 11.6955C42.648 11.237 42.2357 10.544 42.4993 9.52346C42.7628 8.50335 43.4589 8.096 43.9196 7.82635C44.3117 7.5969 44.4393 7.51053 44.5136 7.22284C44.6369 6.746 45.1226 6.45901 45.6004 6.58229C46.0774 6.70557 46.3641 7.19213 46.241 7.66909C45.9774 8.68921 45.2813 9.09655 44.8206 9.36608C44.4284 9.59553 44.3009 9.68178 44.2266 9.9696C44.1524 10.2568 44.2222 10.3938 44.454 10.7833C44.7268 11.2419 45.139 11.9348 44.8755 12.9554C44.6119 13.9755 43.9158 14.3829 43.4552 14.6524C43.0629 14.8819 42.9354 14.9682 42.8611 15.2559C42.7572 15.6581 42.3951 15.9249 41.9981 15.9249C41.9242 15.9249 41.8491 15.9157 41.7744 15.8964C41.2974 15.7731 41.0106 15.2865 41.1338 14.8096C41.3975 13.7897 42.0935 13.3823 42.5542 13.1128Z" fill="#FAA074"/>
    <path d="M27.7511 14.7022C27.5141 14.2703 27.6721 13.7281 28.1039 13.4911C28.5358 13.2539 29.0779 13.412 29.3151 13.8439C29.8222 14.7681 29.5936 15.5411 29.4423 16.0526C29.3139 16.487 29.2799 16.6368 29.4229 16.8971C29.5661 17.1581 29.7112 17.2104 30.1481 17.3366C30.6611 17.4847 31.4359 17.7082 31.9429 18.6318C32.4501 19.5561 32.2214 20.329 32.0701 20.8406C31.9417 21.275 31.9077 21.4247 32.0506 21.685C32.2876 22.1168 32.1298 22.6591 31.6978 22.8961C31.5617 22.9709 31.4146 23.0064 31.2695 23.0064C30.9544 23.0064 30.6491 22.8391 30.4868 22.5435C29.9794 21.6191 30.208 20.8462 30.3594 20.3347C30.4879 19.9002 30.5217 19.7505 30.3789 19.4902C30.2357 19.2292 30.0906 19.1768 29.6536 19.0506C29.1407 18.9026 28.3658 18.679 27.859 17.7555C27.3516 16.8311 27.5802 16.0581 27.7316 15.5466C27.8601 15.1122 27.8939 14.9624 27.7511 14.7022Z" fill="#FAA074"/>
    <path d="M29.7802 4.43934L28.5867 6.61703L29.7075 8.83281L27.2636 8.37285L25.4984 10.1214L25.1816 7.65953L22.9698 6.52445L25.2179 5.46285L25.6161 3.0127L27.3225 4.81855L29.7802 4.43934Z" fill="#8D58CD"/>
    <path d="M55.2715 14.5966L54.078 16.7742L55.1988 18.99L52.7549 18.5302L50.9897 20.2787L50.6728 17.8167L48.4611 16.6816L50.7091 15.62L51.1073 13.1699L52.8137 14.9758L55.2715 14.5966Z" fill="#8D58CD"/>
    <path d="M19.57 12.1903C18.4221 12.1903 18.4202 10.4064 19.57 10.4064C20.7178 10.4064 20.7197 12.1903 19.57 12.1903Z" fill="#AE80EA"/>
    <path d="M38.9118 5.02711C37.7639 5.02711 37.762 3.24316 38.9118 3.24316C40.0596 3.24316 40.0616 5.02711 38.9118 5.02711Z" fill="#AE80EA"/>
    <path d="M44.7198 43.1793L44.1588 40.6068L41.7215 39.6105L43.9949 38.2821L44.1854 35.709L47.6443 39.1719L47.6547 39.1922L49.041 41.4308L46.4207 41.1693L44.7198 43.1793Z" fill="white"/>
    <path d="M49.041 52.0166L46.4398 52.4246L45.6327 54.108L42.5645 51.0401L43.3642 50.2426L42.8898 47.6525L45.234 48.8513L47.5505 47.5998L47.1348 50.1999L49.041 52.0166Z" fill="white"/>
    </g>
    <defs>
    <clipPath id="clip0_17001_186">
    <rect width="60" height="60" fill="white" transform="translate(70 25)"/>
    </clipPath>
    <clipPath id="clip1_17001_186">
    <rect width="60" height="60" fill="white" transform="matrix(-1 0 0 1 60 0)"/>
    </clipPath>
    </defs>
  </symbol>
</svg>
